<svg xmlns="http://www.w3.org/2000/svg" viewBox="0 0 852.6 1216.5"><defs><style>.ea485fbd-034f-4c81-a4e8-795ea3f4fdb0{fill:#fff;}.a789dc1d-34b0-401b-b168-d208faff05f1{fill:#9b794e;}</style></defs><g id="e653cc1d-eece-4c18-8859-c60ded25f38e" data-name="Layer 2"><g id="b66fd4a7-6432-4069-bb1c-70766df89eda" data-name="Layer 1"><path class="ea485fbd-034f-4c81-a4e8-795ea3f4fdb0" d="M707.3,867.2a.9.9,0,0,0,.1-.5l-.3.4Z"/><path class="ea485fbd-034f-4c81-a4e8-795ea3f4fdb0" d="M261.1,913.7h0c.5-2.1,1.1-4.1,1.5-6.1a15.8,15.8,0,0,0,.3-3.7,10,10,0,0,0-1.9-5.3,23.4,23.4,0,0,0-4.2-5.2,37.3,37.3,0,0,0-5.7-4.1,11.6,11.6,0,0,0-4.4-1.9,10.8,10.8,0,0,0-6.1,1.1,17.4,17.4,0,0,0-5.2,4.6,56.7,56.7,0,0,0-5.2,7.6,54.1,54.1,0,0,0-3.4,7.8,34.4,34.4,0,0,0-1.5,5.5,1.9,1.9,0,0,0-.2.7,5.4,5.4,0,0,0-.5,1.1c-2.5,5.1-4.7,10.4-6.9,15.6-.7,1.9-1.5,3.8-2.1,5.7a49.7,49.7,0,0,0-1.8,6.3,27.9,27.9,0,0,0-.7,6.4,23.9,23.9,0,0,0,1.1,6.5,26.5,26.5,0,0,0,2.7,5.3,36.9,36.9,0,0,0,7.6,8.6,19.4,19.4,0,0,0,6.2,3.6c1.4.6,2.8.9,4.2,1.4s3.3.9,5,1.2c3.3.8,6.6,1.6,9.9,2.1a24.3,24.3,0,0,0,3.8.3,18.7,18.7,0,0,0,5.7-.8,16.9,16.9,0,0,0,8.5-5.9,24.3,24.3,0,0,0,4.5-11,71.1,71.1,0,0,0,1-7.9c0-2.3.1-4.6,0-6.8a25.9,25.9,0,0,0-1-6.2c-.3-1.2-.6-2.4-1-3.6a13.6,13.6,0,0,0-1.1-2.8,30.5,30.5,0,0,0-4.3-6.5l-3-3.8c.1.1.2.2.2.3a.5.5,0,0,0-.2-.4l-.6-1.1a13.6,13.6,0,0,1-1.1-2.8,7.5,7.5,0,0,1-.4-1.6.7.7,0,0,1-.1-.5v-.8C260.8,915.6,261,914.6,261.1,913.7Zm0,41.1a8.3,8.3,0,0,1,1.1,1.5,5.1,5.1,0,0,1,.3,1.7,10.9,10.9,0,0,1-.3,2.6,7.9,7.9,0,0,1-3.4,4.4,13.3,13.3,0,0,1-5.1,2,15.3,15.3,0,0,1-3,.3c-1.5,0-3-.2-4.4-.3a29.8,29.8,0,0,1-4.3-.9l-2-.6a18.2,18.2,0,0,1-3.1-1.6l-1.4-1.1-1.9-1.8a15.4,15.4,0,0,1-1.7-1.9l-.8-1.5a31.2,31.2,0,0,1-2.3-4.9,36.8,36.8,0,0,1-1.5-4.7,40.3,40.3,0,0,1-1.1-5,29.1,29.1,0,0,1,.8-9.3,40.2,40.2,0,0,1,3.6-8.6l1.8-3.9c.4-1.2.7-2.5,1-3.7h0a68,68,0,0,1,3.1-8.6.4.4,0,0,1-.1.3,23.9,23.9,0,0,1,1.3-2.8,8.7,8.7,0,0,1,2.2-3.1,3.3,3.3,0,0,1,4.4.1,5.5,5.5,0,0,1,1.6,3.2c.3,1.2.4,2.4.6,3.7a21.9,21.9,0,0,1,.3,3.6,18.9,18.9,0,0,1-.8,4,24.1,24.1,0,0,1-2.1,5l-1.4,2.5a83.3,83.3,0,0,0-2.9,8.4c-.4,1.6-.9,3.1-1.2,4.7a17.7,17.7,0,0,0-.1,2.3v1.6c0,.2.1.4.1.6v-.3a2.9,2.9,0,0,0,.2.9,3.1,3.1,0,0,0,.2.8l.3.6h0c0,.1,0,.2.1.2h0l.3.4.7.9L242,948h.1l3.1,2.1h0l.6.3h-.3l1.9.9,2.8,1.1,3.5.8,3,.5h1.8A3.7,3.7,0,0,1,261.1,954.8Z"/><path class="ea485fbd-034f-4c81-a4e8-795ea3f4fdb0" d="M84.6,723.8h0Z"/><path class="ea485fbd-034f-4c81-a4e8-795ea3f4fdb0" d="M617.5,1098.7a.1.1,0,0,1,.1-.1h.1C617.6,1098.5,617.5,1098.6,617.5,1098.7Z"/><path class="ea485fbd-034f-4c81-a4e8-795ea3f4fdb0" d="M750.2,813.8a10.7,10.7,0,0,0-1.7-4.9,9,9,0,0,0-8.3-4.2c-3.4.5-6.8,2.4-9.6,4.3a62.2,62.2,0,0,0-8.7,6.6,68.5,68.5,0,0,0-6.6,6.6,138.4,138.4,0,0,0-8.8,11.1,125.1,125.1,0,0,1-8.1,9.9c0,.1-.1.1-.1.2h0a.1.1,0,0,0-.1.1l-1.2,1.3c-3.5,4-6.9,8.1-10.1,12.4s-5.9,8.3-9,12.3-6.6,8.1-9.9,12.3a48.3,48.3,0,0,0-7.6,13.2,122.1,122.1,0,0,0-3.4,11.8,70.1,70.1,0,0,0-1.5,11.2c-.1,1.8-.1,3.6-.1,5.4.2,8.5.5,16.9.2,25.4a72.8,72.8,0,0,1-1,8c-.3,1.2-.6,2.5-1,3.8a72.7,72.7,0,0,1-3.3,7.6,143.4,143.4,0,0,1-8.1,13.6l.4-.6-1.2,1.8c-2.2,3.1-4.4,6-6.8,8.8a109.7,109.7,0,0,0-6.9,9.5h0c-2.8,4.1-5.2,8.6-5.9,13.7s0,7.7-.3,11.5-.5,9.1-.6,13.6v.3h0v.4a.6.6,0,0,0-.1.4v-.2a27,27,0,0,1-.4,2.8,20.2,20.2,0,0,1-.9,3.3l-.4,1-1,1.7-2.6,3.4-.6.7c-4.3,3.4-8.8,6.5-13.1,9.8s-7.6,6.5-11.7,9.3l-1.1.7-6,4.3a70.5,70.5,0,0,0-6.1,4.7c-2.5,2.2-5,4.5-7.7,6.5H569l-.2.2h.2l-2.5,1.4-2.4,1-1.3.4h0a58.5,58.5,0,0,1-7.3,1.2h-1.4l-3.9-.5-4.9-1.3-3.4-1.4-2.1-1.2-2.4-1.8c-3.1-2.9-6.2-5.9-10.2-7.5a10.7,10.7,0,0,0-8.9.7c-2,1.2-3.3,3.2-4.6,5.1l-2.2,3.6c-1.4,2-2.9,4-4.4,5.9a12.1,12.1,0,0,1-1.6,1.6l-1,.8-1.6,1-1,.4a9.8,9.8,0,0,1-2.3.6l-1.5.2h-2.4l-3-.3-3.6-1-2.5-1.1-.3-.2a62.5,62.5,0,0,1-5-4c-1.2-1.1-2.5-2.3-3.8-3.3s-2.8-2-4.2-2.9c-3.6-2.4-7.2-4.6-11.6-5a14,14,0,0,0-6.1.7c-3.1,1.3-4.5,3.9-6.3,6.5l.3-.5c-1,1.6-2.2,3.1-3.3,4.6l.3-.4-.5.6-.7.4a85.8,85.8,0,0,1-8.3,3.5l-3.1.8-2.9.4h-1.4a34,34,0,0,1-4.6-.6l-4.8-1.4-1.6-.7a49.3,49.3,0,0,1-5.4-3.4l.2.2a33.3,33.3,0,0,1-3.2-2.4l-1.9-1.9c-1.8-2.1-3.5-4.3-5.5-6.3a10.7,10.7,0,0,0-3.7-2.2,22.3,22.3,0,0,0-2.3-.4,10.9,10.9,0,0,0-2.6.3,14.6,14.6,0,0,0-8.3,4.6c-1.3,1.3-2.6,2.7-3.8,4.1l.4-.5-1.3,1.5a.2.2,0,0,0,.2-.2l-.6.7h.1l-5.8,6.9h0l-1.6,1.7-.5.4h-.6l-3.4-.5-2.2-.5-1.3-.6-2.4-1.4-3.2-2.5.5.4a50.5,50.5,0,0,0-5.1-4.3c-2.6-1.9-5.7-3.9-9.1-4.3a20.7,20.7,0,0,0-11.4,2.2,81.8,81.8,0,0,0-8.4,5.1,81.7,81.7,0,0,1-9.5,5.6l-3.1,1.4a42.1,42.1,0,0,1-4.8,1.2c-2.1.4-4.1.7-6.2.9H297l-3.6-.5-2.5-.7-1.3-.5c-3-1.6-5.8-3.5-8.6-5.3a56.4,56.4,0,0,0-5.3-3.1,20.9,20.9,0,0,0-4.1-1.7,21.6,21.6,0,0,0-5.6-.8l-4.1.4-8.3,1.1H251l-2-.2-2.3-.7-.5-.2-.4-.2-5.2-3.9c-2.1-1.6-4-3.3-6-5s-5.2-5.4-7.8-8.2-5.5-5.6-8.1-8.5-2.8-3.7-4.2-5.6-2-3.1-3-4.8-1.5-3.9-2.3-6c-2-6-3.5-12-5.1-18.1s-3.2-10.7-4.4-16.1l-.6-3.2c-.5-2.3-.9-4.7-1.6-7s-1.2-4.3-1.9-6.4c-1.2-4.2-2.7-8.3-3.6-12.6-.4-2.5-.8-5-1-7.6s-.4-2.4-.5-3.6v.2c-.6-4.6-1-9.2-1.3-13.8h0c-.5-6.2-.7-12.3-1.1-18.4s-1.2-11.1-2.1-16.6-2.2-8.8-3.2-13.3-2-8.8-3.1-13.2-2-7-3.2-10.5h-.1c-.6-1.7-1.3-3.4-1.9-5.2,0,.1.1.1.1.2-.8-2.2-1.6-4.3-2.2-6.5s-1.1-4.2-1.7-6.3l-2.1-5.6a36.6,36.6,0,0,1-2.1-5.5c-.1-.3-.1-.5-.2-.8l-1.9-3a64.7,64.7,0,0,0-7.3-9.1,45.1,45.1,0,0,0-7.5-7,29.2,29.2,0,0,0-5.7-3.3,49.5,49.5,0,0,0-6.6-1.8c-5.1-1-10.3-.4-15.5.2a48.9,48.9,0,0,0-5.3.9c-2.1.5-4.5,1.2-6.1,2.8a9.7,9.7,0,0,0-2.7,5.3,21,21,0,0,0,0,5.6,74.3,74.3,0,0,0,2.3,9c1.1,3.8,2.3,7.7,3.8,11.5s2.9,6.8,4.4,10.3,2.9,6.6,4.2,10,2.7,7,4,10.6,1.9,6.3,2.6,9.5,1,5.3,1.3,8,.6,5.5.8,8.2a331,331,0,0,1-.5,34.5v-.2c-.6,8.1-1.7,16-3,24l-1.8,11.5c-.5,4-1.1,7.9-1.3,11.9-.5,8.8-1,17.8,0,26.6a109.1,109.1,0,0,0,3.5,17,122.3,122.3,0,0,0,4.5,13.3,132.1,132.1,0,0,0,11.1,19.3c3.5,5.4,7,10.8,11.6,15.5s11.2,10.1,16.9,15c3.4,3.1,6.8,6.2,10.1,9.4s5.6,5.5,8.4,8.3c6.2,6,12.3,12.1,18.2,18.5s12.5,14.5,18.7,22c3.4,3.9,6.6,8,10.1,11.8a137.7,137.7,0,0,0,10,10.2l1.5,1.4a65.5,65.5,0,0,0,5.9,4.5,5.1,5.1,0,0,0,1.6.9l2.2,1.6a27.5,27.5,0,0,0,3.3,2.3,37.1,37.1,0,0,0,8.5,4.1l2.4.7,1.9.7,1.2.4a40,40,0,0,0,8.3,1.4l3.5.3h4.7l4.7-.3h1c5.3,0,10.7.3,16,.4a170.6,170.6,0,0,0,18.9-.7c6.1-.6,12.1-1.6,18.3-2h.5a67.7,67.7,0,0,1,7.8,0l3.4.5h.4a154.6,154.6,0,0,1,15.2,4.1,62.8,62.8,0,0,0,8,2.7,30.8,30.8,0,0,0,6.1.7l2.9-.2c3.7-.5,7.7-1.4,10.6-3.9s3.9-3.6,4.5-6-.1-7.4-1.9-10.4a45.5,45.5,0,0,0-6.6-9.6,27.9,27.9,0,0,0-3.8-3l-2.9-2a74.2,74.2,0,0,1-6.4-4.6,11.4,11.4,0,0,0-1.1-1.1l-1.1-1.5c-.1,0-.1-.1-.2-.2h0l-.9-1.4-.2-.5-.6-2c0-.2-.1-.5-.1-.7v-.5h.1a9.5,9.5,0,0,1,1-1.7l1.1-1.5c.6-.7,1.3-1.3,1.9-1.9h0l.3-.3h.5l.5-.3.9-.2,2.1-.4h5l1.1.3,2.3,1.1.8.3,3.3,2.1a59.1,59.1,0,0,1,6.3,4.9,18,18,0,0,1,1.9,2c3.2,3.7,5.9,7.7,9.1,11.4a38.1,38.1,0,0,0,11.6,9.1,81.3,81.3,0,0,0,12.8,5.6,91.1,91.1,0,0,0,13.7,3.3c2.1.5,4.2,1,6.3,1.7a84.7,84.7,0,0,1,9.4,3.9,97.6,97.6,0,0,0,9.3,4.2,37.1,37.1,0,0,0,12.3,2.2,113.9,113.9,0,0,0,21-1.9,106.3,106.3,0,0,0,11.5-2.3,95.6,95.6,0,0,0,11.5-3.6c3.1-1.1,6.2-2.6,9.2-4l11.8-5.8h0l1.9-.9-1.2.5c3.8-1.8,7.4-3.9,11.1-5.9a82.6,82.6,0,0,0,9.8-6.4c3.2-2.7,6-5.6,8.9-8.5a167.4,167.4,0,0,0,14.7-17.8c4.3-5.9,7.8-12.4,11.4-18.9s7-12.4,10.8-18.3a79,79,0,0,1,6.1-7.9c3.6-4.1,7.5-7.8,11.5-11.6l12.2-11.3c4.5-3.8,9-7.5,13.4-11.5a2.7,2.7,0,0,1-.8.7,27.5,27.5,0,0,0,2.6-2.2l7.9-7.1a94.5,94.5,0,0,0,14.9-17.9c4-6.2,7.8-12.5,11.5-18.9,1.9-3.4,3.8-6.9,5.4-10.5a69.6,69.6,0,0,0,3.9-10.8,146.8,146.8,0,0,0,3.9-22.8c.6-7.1,1.1-14.3,1.6-21.5s1.6-14.9,2.4-22.4a189.1,189.1,0,0,0,1.4-22.6c0-7.2-.2-14.4.2-21.5a169,169,0,0,1,3-21.2,132,132,0,0,1,4-14c0,.1-.1.2-.1.3,2.4-6.8,5.1-13.6,7.6-20.5,1.1-3.3,2.3-6.5,3.2-9.8,1.3-5.1,2.7-10.3,3.1-15.5A32.4,32.4,0,0,0,750.2,813.8ZM202,1050.6c.1.5.5,1.2.3,1.5s-.7.5-1,.7-.5-1.2-.4-1.5S201.6,1050.8,202,1050.6Zm-28.6-38.1.4.6-.4-.5-.5-.7Zm-.2,73.9c-.3-.2-.3-.9-.5-1.4s.9-.7,1.1-.5.3.9.5,1.4S173.4,1086.6,173.2,1086.4Zm45.8,25a3.9,3.9,0,0,1-1.8.4l-1.5-.2a17.8,17.8,0,0,1-3.6-1.4c-1.6-.8-3.1-1.8-4.6-2.7l-4.4-2.9-1.7-1.4-2.6-2c-1.3-1-2.4-2.1-3.6-3.1l-4.1-3.7-9.3-8c-2.8-2.4-5.7-4.7-8.5-7.2a98.2,98.2,0,0,1-8.1-7.7,190.6,190.6,0,0,1-14.4-16.8,112.9,112.9,0,0,1-7.3-11.2,28.9,28.9,0,0,1-3.6-10.7,54.8,54.8,0,0,1-.5-5.7,47.2,47.2,0,0,1,.3-6.5c.2-2.4.5-4.7.8-7h0a4.1,4.1,0,0,0,.1-1.1h0a5,5,0,0,0,.2-1.2h0v-.5h0c.7-4.8,1.2-9.6,1.6-14.4.2-2.5.3-5,.4-7.5s.1-4.8.2-7.1c.2-4.9.6-9.6,1-14.4s1.1-7.7,1.7-11.5c-.1-2.2-.2-4.4-.2-6.6s-.3-5.8-.4-8.8a88.1,88.1,0,0,1,0-8.9c.2-1.9.5-4.2,2-5.6a4.5,4.5,0,0,1,3.8-1.1,8.5,8.5,0,0,1,3.7,2.3,32.3,32.3,0,0,1,4.4,6.5,35.3,35.3,0,0,1,3.2,7.5,36,36,0,0,1,1.2,6.4v-.3a1.3,1.3,0,0,1,.1.6.4.4,0,0,0-.1-.3c1,7.7,1.1,15.4,2.1,23.1.6,4.5,1.6,9,2.5,13.6.6,2.5,1.1,5.1,1.6,7.6a50.5,50.5,0,0,1,.8,6.8,103.1,103.1,0,0,1-.2,14.7c-.4,5-.7,10-.7,15.1a56.2,56.2,0,0,0,.2,5.8c.2,1.2.5,2.4.7,3.6h.1v.2h0c.4,1.3.8,2.5,1.3,3.7s1.6,3.4,2.5,5l-.2-.4c2,3.1,4.1,6.1,6.2,9l9,11.4h0c2,2.7,4,5.4,6.2,7.9s4.1,4.8,6.3,7.1c4.5,5.1,8.9,10.2,13.1,15.6,1,1.4,2.1,2.7,3.1,4.2l1.5,2.3a9.3,9.3,0,0,1,1.4,3.6A3.6,3.6,0,0,1,219,1111.4Zm9.6,12c-.2.1-.9-.9-.8-1.2a17.3,17.3,0,0,1,1-2.4l1.7,2.2A18.2,18.2,0,0,1,228.6,1123.4Zm.5-41.7a27.2,27.2,0,0,1,.4-3c.1-.2,1.1-.3,1.2,0a23,23,0,0,1,.6,2.8Zm32.4,51.3a2.5,2.5,0,0,1,1-1.5,6.6,6.6,0,0,1,2.4-1.5,9.4,9.4,0,0,1,3-.5,17.8,17.8,0,0,1,4.7.8l4.9,1.7a51.7,51.7,0,0,0,6.3,2.1l5.3.9h1.3l1.3.2,3.5.2,2.6.2h2.6l5.9.3,6.6.7a56.6,56.6,0,0,1,8.2,1.6c5.8,1.3,11.1,3.9,15.8,6.3l1.8.9a17.7,17.7,0,0,1,3.1,1.5,9.1,9.1,0,0,1,2.7,1.8,6.4,6.4,0,0,1,.6,1,3.4,3.4,0,0,1,.2,1.4,2.9,2.9,0,0,1-2,2.5,30.6,30.6,0,0,1-5.6.5h-4.2c-3.7-.2-7.4-.3-11-.6l-16.4-1.6-5-.6a61,61,0,0,1-8.1-1.6c-3.8-.6-7.3-1.3-10.7-2a82,82,0,0,1-10.7-2.9,39.7,39.7,0,0,1-3.6-1.7l-2-1.4a11.1,11.1,0,0,1-2.3-1.9l-.7-.7a7.1,7.1,0,0,1-1-1.4,7,7,0,0,1-.8-2.7A4.1,4.1,0,0,1,261.5,1133Zm108.3,64.6a21.9,21.9,0,0,1-5.7.2l-8.4.5h-3.5l-5.1-.2-8.8-.7q-4.7-.6-9.3-.9c-5.8-.4-11.6-.5-17.4-.8a82.6,82.6,0,0,1-10-1c-1.3-.2-2.7-.3-4-.6a36.9,36.9,0,0,1-13.1-5.5,101.5,101.5,0,0,1-8.1-6.6c-4.5-3.9-9.2-7.5-13.6-11.5h.1l-3.5-3.1-4.5-3.7-2.5-2.3c-1.3-1.2-2.9-2.5-3.6-4.2a7.4,7.4,0,0,1-.7-2.1,5.5,5.5,0,0,1-.1-1.8,5.1,5.1,0,0,1,1.5-2.9c1.6-1.6,4-1.7,6.1-1.5a26.3,26.3,0,0,1,8.2,1.8l6.5,2.6,4.8,2a1,1,0,0,0-.1-.3c.1-.6,1.2-1,1.8-1.4l1,2.7h0l4.4,1.9h0c4.9,2.2,10.1,3.8,15.1,5.9l15.3,6.1a53.5,53.5,0,0,0,6.7,2.4c2.4.6,4.7,1,7.1,1.4,5.6.7,11.1,1,16.6,1.4,2.7.2,5.4.6,8,1a57.4,57.4,0,0,1,9.1,2.2,25.7,25.7,0,0,1,5.2,2.1,24.9,24.9,0,0,1,6,4.2c2.1,2.2,3.8,5.5,3.2,8.7A5.3,5.3,0,0,1,369.8,1197.6Zm84.7-58.7a33.9,33.9,0,0,0-4.8-1.7l-1.6-.3h-3.8c-2.5.4-5,1-7.4,1.5a44.1,44.1,0,0,1-7.2.8,38.5,38.5,0,0,1-5.9.1,34.5,34.5,0,0,1-5.6-1,19.1,19.1,0,0,1-5.2-1.9,7.3,7.3,0,0,1-3.2-3.3,6.1,6.1,0,0,1-.2-5.1c.9-2,3.1-3.3,5.2-4.1a43.7,43.7,0,0,1,6.2-1.7c3.4-1,6.8-2.1,10.1-3.4l5.5-1.9c1.1-.4,2.2-.9,3.3-1.2l.5-.5a44.7,44.7,0,0,1,8.5-4.9,12.4,12.4,0,0,1,3.3-.9l2.6-.4a10.6,10.6,0,0,1,2.5-.2,16.9,16.9,0,0,1,3.8.7l4.2,1.5,2.7,1.5,4.4,2.6-.5-.2,4,2.1,4.6,2.1.9.3,1.8.4h1.4l1.5-.4h0a55.2,55.2,0,0,0,5.3-1.8l1.4-.7c2.5-1.6,4.8-3.3,7.4-4.7a22.6,22.6,0,0,1,4.2-1.9,21,21,0,0,1,6.6-.9,38.7,38.7,0,0,1,4.8.3l3.1.6,3.5,1.1c3.1,1,5.9,2.5,8.9,3.8a20.6,20.6,0,0,0,3.5,1.2c4.4,1.2,8.9,2,13.4,2.8l3.6.6c1.6.4,3.1,1,3.2,2.9a2.6,2.6,0,0,1-1.7,2.6l-5.2,1.7-4.4,1.4a64.5,64.5,0,0,1-6.2,2.1,43.1,43.1,0,0,1-8,1.3c-2.7.3-5.4.3-8.1.7h-.7l-5.1,1.1c-2.2.6-4.3,1.2-6.5,2a47.8,47.8,0,0,0-4.8,1.9h.2l-1.4.6c-3.6,1.6-7.2,3.1-10.9,4.4s-8.8,3-13.3,3.2h-2.8l-3.6-.2a39.9,39.9,0,0,1-7-1.8,35,35,0,0,1-5.6-2.4Zm30.2,18.8c-.2.5-.2,1.2-.5,1.4s-.7-.1-1.1-.2a18.7,18.7,0,0,0,.7-2.2Zm70.9,15.4-1,.5h0a15.9,15.9,0,0,0-2.9,1.5h0c-3.1,2-6.1,4.4-9.1,6.7h.1c-3.8,3.1-7.5,6.4-11.4,9.4a39.4,39.4,0,0,1-5.1,3.2,29.5,29.5,0,0,1-5.8,2.4c-2.3.8-4.8,1.4-7.3,2a19.7,19.7,0,0,1-3.5.5,25.6,25.6,0,0,1-3.9.3h-1.9l-3.8.7h0l-2.9.4h.6a31.1,31.1,0,0,1-4.3.3,51.5,51.5,0,0,1-8.8-.9,57.7,57.7,0,0,1-13.5-3.8,26.6,26.6,0,0,1-6-3.2c-1.9-1.4-4-3.3-4.4-5.7a5.2,5.2,0,0,1,2.5-5.8c1.5-.8,3.1-.5,4.6-.2a118.8,118.8,0,0,0,13.3.9c4.4-.2,8.8-.7,13.1-1.3l13.2-1.8c6-.9,11.9-2.1,17.8-3.4s12.2-2.7,18.2-4.3H543l5.2-1.7,3-1a18.4,18.4,0,0,1,2.5-.9,2.9,2.9,0,0,1,3.3,1.9A2.8,2.8,0,0,1,555.6,1173.1Zm8.1-49.3c-.2.1-.6-.4-.9-.5l1.5-1.1C564.1,1122.9,564,1123.6,563.7,1123.8ZM663.6,974c-.1.6-.3,1.2-.5,2.2-.2-.9-.4-1.4-.5-1.8Zm-27.3,40.6,1.1.8a8.8,8.8,0,0,0-.5,1.5c-.4-.3-.9-.5-1.1-.9S636.1,1015.1,636.3,1014.6Zm77-43.8c-.2,1.5-.3,2.9-.4,4.3a30.1,30.1,0,0,1-.9,4.1c-.3,1.2-.7,2.4-1.1,3.6s-.5,1.3-.7,2a1.1,1.1,0,0,1-.1.5h.1c-.4,1.7-.8,3.4-1.1,5.1h0c0,.1-.1.1-.1.2a.9.9,0,0,1-.1.5.4.4,0,0,0,.1-.3c-.3,1.5-.5,3-.8,4.5a40.6,40.6,0,0,1-1.9,5.9c-.9,2.6-1.8,5.3-2.6,7.9a49.8,49.8,0,0,1-2.7,6.3c0,.1-.2,0-.3.2a119.3,119.3,0,0,1-5.6,14.4,106.6,106.6,0,0,1-5.5,10,43.8,43.8,0,0,1-2.8,4.2c-1.2,1.5-2.3,2.9-3.6,4.3a81.6,81.6,0,0,1-7.3,7.1c-2.7,2.4-5.5,4.6-8.2,6.9l-1.1.9.3-.2-3.9,3.5-4.3,4.5-7.3,7.8c-2.6,2.7-5.1,5.4-7.9,7.9s-5.6,5-8.5,7.5l.3-.3-.9.8h.2l-2.1,1.8h0l-7.5,7a84.8,84.8,0,0,1-10.4,8.6,23.6,23.6,0,0,1-10.4,4.2h-.5a5.7,5.7,0,0,1-2.9-.8,4.3,4.3,0,0,1-2.1-3c-.5-1.7.3-3.2,1.3-4.6l2.4-3q3.3-3.7,6.3-7.8a99.9,99.9,0,0,1,6.7-7.9c2.5-2.6,5.2-5,7.9-7.4s4.9-5,7.3-7.6l1-1.2c2.4-2.7,4.6-5.6,6.7-8.5a4.3,4.3,0,0,1,.4-.7l-.2.4a16.3,16.3,0,0,1,1.1-1.7c2.1-3.2,3.9-6.6,5.8-10,.8-1.5,1.8-3,2.8-4.5a16.7,16.7,0,0,1,1.8-2.8l1.8-2.4c.6-.8,1.3-1.4,1.9-2.1a23.9,23.9,0,0,1,2.2-2.3,56.6,56.6,0,0,1,4.4-4,34,34,0,0,1,6.8-4.3c2.4-1.2,5.1-1.2,7.7-1.6l2-.6,2.3-1h0a11.8,11.8,0,0,0,1.9-1.1l2.9-2.2c1.3-1.2,2.5-2.4,3.7-3.7h0l1.5-2a82,82,0,0,0,4.2-9.6c.6-1.7,1-3.4,1.5-5.1s1-2.9,1.5-4.4v.2c.6-1.5,1-3,1.5-4.6s.1-.4.2-.6.1-.4.2-.6.5-3.1.8-4.6,1-4.1,1.5-6.1,1-3.6,1.5-5.4c1.5-7.9,3.1-15.8,3.7-23.8h0c.1-1.2.1-2.4.3-3.5a8.9,8.9,0,0,1,.8-3.3,3.3,3.3,0,0,1,2.2-1.4,2.6,2.6,0,0,1,2.5,1.4,15.6,15.6,0,0,1,2.1,7.9c.1,2.6.1,5.2.1,7.7S713.5,967.9,713.3,970.8Zm1.6-109c-.4,1.9-.7,3.8-1,5.7s-.6,4.1-1,6.1a15,15,0,0,1-1.9,4.7,31.4,31.4,0,0,1-1.8,3.1l-1,1.6-.9,3.5a37.1,37.1,0,0,1-1.9,4.6,29.1,29.1,0,0,1-2.5,4.2,87,87,0,0,0-5,8.3,30.9,30.9,0,0,0-1.4,3.2c-.5,1.5-.9,3.1-1.3,4.6-1.2,6.4-2.2,12.9-3.3,19.3-.5,3.4-1.2,6.7-1.9,9.9a53.3,53.3,0,0,1-3.5,9.7,30.4,30.4,0,0,1-2.7,4.7c-1.1,1.6-2.5,3.2-4.6,3.2a3.6,3.6,0,0,1-3.3-2.1,5.8,5.8,0,0,1-.8-3.1c-.1-2.6.1-5.2.2-7.8s0-6.9-.1-10.4-.8-8.6-1.1-13a38.6,38.6,0,0,1,0-6.8,63.6,63.6,0,0,1,.8-7.5,48.5,48.5,0,0,1,2.6-9,58.4,58.4,0,0,1,4.6-9.4c1.3-2,2.8-3.9,4.3-5.8l3-3.6,2-2.1c.9-1.6,1.9-3.2,2.9-4.7a21.8,21.8,0,0,1,2.2-3.1c.6-.7,1.4-1.3,2.1-2,4.3-4.1,7.9-8.8,12-13.1,1.1-1.1,2.3-2.4,4-2.2a2.8,2.8,0,0,1,2.3,2,4.3,4.3,0,0,1-.3,2.5h0c-.4,1.2-1,2.5-1.4,3.7Zm2,16.9c-.8-.7-1.3-2.7-1.5-4.2s1.5-1.9,1.9-1.6,1.8,2,3.2,3.9C718.8,877.7,717.5,879.1,716.9,878.7Z"/><path class="ea485fbd-034f-4c81-a4e8-795ea3f4fdb0" d="M660.4,895.1h0c.1-.2.1-.4.2-.6A1.9,1.9,0,0,0,660.4,895.1Z"/><path class="ea485fbd-034f-4c81-a4e8-795ea3f4fdb0" d="M272.1,48.1Z"/><path class="ea485fbd-034f-4c81-a4e8-795ea3f4fdb0" d="M534.1,340l-5.8-5.2,4.5,7.5A17.1,17.1,0,0,1,534.1,340Z"/><path class="ea485fbd-034f-4c81-a4e8-795ea3f4fdb0" d="M606.9,505c-.1,0-.2,0-.2-.1h0C606.7,505,606.8,505,606.9,505Z"/><path class="ea485fbd-034f-4c81-a4e8-795ea3f4fdb0" d="M609.3,506.2l-.6-.2-.3-.2Z"/><path class="ea485fbd-034f-4c81-a4e8-795ea3f4fdb0" d="M274.9,1209.2Z"/><path class="ea485fbd-034f-4c81-a4e8-795ea3f4fdb0" d="M221.7,1020.2c1.3,6.6,2.6,13.3,4.5,19.7a83.7,83.7,0,0,0,7.3,18.1c2.1,3.7,4.4,7.9,7.9,10.3a16.9,16.9,0,0,0,4.8,2.5,24.4,24.4,0,0,0,4.6.7h.3a12.8,12.8,0,0,0,5.5-1,21.4,21.4,0,0,0,4.1-2.5,22.4,22.4,0,0,0,4.2-4.5c1-1.4,2-2.8,2.9-4.3a51.4,51.4,0,0,0,5.1-11.2,62.5,62.5,0,0,0,2.6-14.1,39.7,39.7,0,0,0-.7-12.4,58.6,58.6,0,0,0-4.2-11.5,26.8,26.8,0,0,0-4.4-6.7,48.4,48.4,0,0,0-8.6-7.7c-2.4-1.6-4.6-3.2-7.3-4a16,16,0,0,0-4.9-.3c-1,.1-2.1.1-3.1.3a90.9,90.9,0,0,0-9.1,1.5,32.5,32.5,0,0,0-7,1.7,13,13,0,0,0-5.8,4.3c-1.9,2.5-2.3,6.1-2,9.1a27.5,27.5,0,0,0,1,5.6c.6,1.8,1.2,3.5,1.9,5.3.1.3.3.7.4,1.1Zm6.1-12.5a3.1,3.1,0,0,1,2-1.1,5,5,0,0,1,2.6.8l3.9,2.3c1.3.9,2.7,1.6,4,2.6a11.9,11.9,0,0,1,2,1.9,15.1,15.1,0,0,1,1.6,3.1c.5.8.9,1.7,1.4,2.6s1.1,1.8,1.7,2.7a33,33,0,0,1,1.8,3.2c.4.9.7,1.8,1,2.7s.1,1,.2,1.5.2,2.7.4,4a.4.4,0,0,0-.1-.3c.1.3.1.5.2.8l.3.9c.4,1,.9,1.9,1.4,2.9h0l.5.8.6.6a6,6,0,0,0,.8.8l.7.5h-.1l.5.3h.5l.8.2h2.7c1-.2,2.3-.6,3.3,0a1.9,1.9,0,0,1,.8,1.6,3.9,3.9,0,0,1-.2,1.5,16.6,16.6,0,0,1-3.4,5.9h.2c-.8,1-1.5,2.2-2.2,3.2a14.3,14.3,0,0,1-1.4,2,10.6,10.6,0,0,1-3,2.6,5.2,5.2,0,0,1-2.5.7h-.4a8.6,8.6,0,0,1-2.3-.6,16,16,0,0,1-3.7-2.5,17.7,17.7,0,0,1-3.6-4.1,20.7,20.7,0,0,1-2.3-5,56.9,56.9,0,0,1-1.6-5.9c-.5-2-.9-4-1.3-6s-1.6-5.2-2.6-7.6l-1.2-2.5a11.4,11.4,0,0,1-1.5-2.9,1.9,1.9,0,0,1-.2-.7.9.9,0,0,1-.1-.5c0-.1-.1-.1-.1-.2a34.2,34.2,0,0,1-2.6-5.9C226.6,1012.1,226.3,1009.5,227.8,1007.7Z"/><path class="ea485fbd-034f-4c81-a4e8-795ea3f4fdb0" d="M696.5,845.4l.5-.6h.1Z"/><path class="ea485fbd-034f-4c81-a4e8-795ea3f4fdb0" d="M715.1,822.4l.2-.2.3-.4Z"/><path class="ea485fbd-034f-4c81-a4e8-795ea3f4fdb0" d="M246.3,805.5h0Z"/><path class="ea485fbd-034f-4c81-a4e8-795ea3f4fdb0" d="M176.3,886.1a.4.4,0,0,1,.1.3h0A.4.4,0,0,0,176.3,886.1Z"/><path class="ea485fbd-034f-4c81-a4e8-795ea3f4fdb0" d="M298.4,664.8Z"/><path class="ea485fbd-034f-4c81-a4e8-795ea3f4fdb0" d="M5.8,329.3c-1,8-2,15.9-2.9,23.9S1.2,367.3.8,374.4v-.7c-.2,2.5-.3,5-.5,7.5V381a210.2,210.2,0,0,0,.2,25.1c.3,8.1.8,16.1,1.4,24.2a1.7,1.7,0,0,1-.1-.7c.3,5,.6,10,1,14.9a1.3,1.3,0,0,0-.1-.6c.3,4.1.6,8.3.8,12.5.4,8,1.3,16,2.2,24a220.9,220.9,0,0,0,4.2,22.7c3.6,14.9,7.5,29.8,10.6,44.9h0c1.5,7.8,3.1,15.5,4.4,23.3s2.7,16.2,4.3,24.2A169.5,169.5,0,0,0,34,616.5a44.1,44.1,0,0,0,2.9,7.1,17.3,17.3,0,0,0,3.2,4.9c2.3,2.2,5.4,4.2,8.7,4.2H50a11.1,11.1,0,0,0,8.7-7.2,36,36,0,0,0,2-11.7c0-3.7,0-7.5-.2-11.3-.3-7.5-.8-14.9-.5-22.3s.6-15,1-22.6c.3-5.3.8-10.7,1.2-16.1v-.7h0a2.2,2.2,0,0,1,.1-.8c0,.1-.1.1-.1.2a4.3,4.3,0,0,1,.1-.5l.3-4.8v-.1c.2-2.3.3-4.6.4-6.9v-3.9c.1-1.8.1-3.7.3-5.5s.3-2.6.4-3.9a28.7,28.7,0,0,1,.5-3.1,47,47,0,0,1,1.2-5.1c1-4.5,2.2-8.9,3.6-13.3.4-1.2.9-2.3,1.3-3.4l2.4-5.9c.5-2.5,1-5,1.6-7.6.1-.1.1-.3.2-.5.5-2.7,1-5.5,1.7-8.2s.7-3.7,1.2-5.5a57.2,57.2,0,0,1,1.7-5.9,18.3,18.3,0,0,0,.8-2.5,7.5,7.5,0,0,0,.4-1.6c1-5.1,2.1-10.1,3-15.2v.2c.6-3.8,1.1-7.5,1.6-11.4s.8-7.5,1.1-11.2c.5-5.9.9-11.7,1.3-17.6a12.3,12.3,0,0,1-.2-1.9v-3.2c0-.4.1-.7.1-1.1v-.3a.9.9,0,0,1,.1-.5c0-.1.1-.1.1-.2l.4-.6.7-.9h.1l.3-.2.4-.2.8-.2h1.9l.7.2,2.2,1,.4.2.6.5.4.4.7.8a10.9,10.9,0,0,1,.8,1.5,16.7,16.7,0,0,1,.8,2c0-.1-.1-.2-.2-.4a88.8,88.8,0,0,1,3.2,12,313.9,313.9,0,0,1,4.1,33.4c.2,3.3.3,6.5.3,9.8s-.4,4.4-.7,6.6-.6,3.7-.9,5.6c-1,4.4-2.4,8.8-3.8,13.2l-3.9,11.8c-3,8.4-5.9,16.9-7.5,25.6a126,126,0,0,0-2.2,13.7c-.5,4.8-.7,9.7-.8,14.5-.2,7.3.2,14.6.3,21.9s.3,15.2.5,22.9.5,15.7.6,23.6.1,14.8-.2,22.2c-.3,2.3-.5,4.6-.8,6.9s-.7,4.2-1,6.3v-.2c0,.1-.1.3-.1.4h0q-.6,3.1-1.5,6.3c-.5,1.9-1.1,3.7-1.7,5.5,0-.2.1-.3.1-.5a57.2,57.2,0,0,1-2.8,6.8l-1,1.7-4.3,5.4h.1l-1.2,1.2a3.9,3.9,0,0,1-.8,1l.4-.5a39.8,39.8,0,0,1-3.5,3.6h0l-.2.2-.2.2c.1-.1.1-.2.2-.2a75.2,75.2,0,0,1-6.4,4.7c-5.5,3.7-11.2,7.2-16.9,10.6a31.5,31.5,0,0,0-4.1,3.1l-1.6,1.8a22.9,22.9,0,0,0-2.1,2.3,30.6,30.6,0,0,0-4.8,12.8,52.9,52.9,0,0,0-.8,8,53.8,53.8,0,0,0,.9,9c1,5.6,3.4,10.8,5.8,16a97.5,97.5,0,0,0,5.7,9.9c1.1,1.9,2.2,3.7,3.4,5.4s2.4,3,3.7,4.5a99.4,99.4,0,0,0,7.9,8c1.5,1.5,3.1,2.8,4.7,4.2a37.8,37.8,0,0,0,6.1,4.4c2.1,1.2,4.3,2.2,6.4,3.2a39,39,0,0,0,7.3,2.4c3.8.9,7.7,1.3,11.6,1.9h0l2.7.7,3.7,1.1c2,.8,3.9,1.5,5.8,2.4l6.7,3.1,2.6,1.4c3.4,1.7,6.8,3.5,10.3,5a53.6,53.6,0,0,0,6,2.4c2,.5,3.9,1.1,5.9,1.5,7.7,1.9,15.6,1.7,23.4,1.9a37.5,37.5,0,0,1,4.7.5l1.9.6a54.8,54.8,0,0,1,5.6,2.3h.3a32.2,32.2,0,0,0,2.4,2.8c3.7,3.7,7.5,7.2,11.5,10.6l1.8,1.9.7.9h.1l7.8,11.5h0a.1.1,0,0,0,.1.1l.2.4c.1.1.2.2.2.3h0l.7,1.1c2.8,4.1,5.6,8.4,8,12.8s4,7.1,6.2,10.5a45.1,45.1,0,0,0,4.7,5.9l2.3,1.2.9.3,2.3.5a49.8,49.8,0,0,0,6.6.9,30.9,30.9,0,0,0,4.3,0h.4a55.5,55.5,0,0,1,10-.3,53.7,53.7,0,0,1,8.8,1.4,34.3,34.3,0,0,1,6.8,3,50.2,50.2,0,0,1,6.4,4.7l4,3.7,3.4,3.3a.1.1,0,0,1,.1.1l.3.2h.8l2.1.3h2.3a8,8,0,0,0,1.5-.3l1-.2,1.1-.6a32.4,32.4,0,0,0,3.5-2.1l1.9-1.5h.1l.6-1,1.8-5a16.4,16.4,0,0,1,2.7-4.6,14.6,14.6,0,0,1,5.2-3.9,17.9,17.9,0,0,1,5.6-1.5,9.4,9.4,0,0,1,3-.7,10.7,10.7,0,0,1,3.9.7h.3l.2.2a10.6,10.6,0,0,1,2.6,1.7l.4.5,1.2.5a17.5,17.5,0,0,1,5.2,5.3c2.3,3.3,3.2,7.2,4.6,10.9.7,1.8,1.5,3.5,2.3,5.2s1.2,2.7,1.9,4l.7,1.1.4.5.8.7,1,.7a3.1,3.1,0,0,0,1,.5l2,.8h.3l1.4.4h.8l1-.5,1.1-.7.6-.5,1.1-1.2a18.4,18.4,0,0,0,1.7-2.2c1.8-2.9,3.3-5.9,5.1-8.8a43.8,43.8,0,0,1,4.3-6.3c1-1,2.2-1.9,3.3-2.8l3.2-2.3a20.8,20.8,0,0,1,8.9-2.9,18.2,18.2,0,0,1,3.3,0h.2a7.8,7.8,0,0,1,4.9,2.9c.1.1.2.2.2.3l.6.6,2.7,3.5a11.8,11.8,0,0,0,1.1,1.9c.2,1.3.5,2.7.7,4s1.3,3.8,1.9,5.7h.1c.8,2,1.9,3.9,2.6,6l2.7,2.5a9.1,9.1,0,0,0,4.2,2,9.6,9.6,0,0,0,4.1-.4,15.6,15.6,0,0,0,3.4-2.3,42.5,42.5,0,0,0,7.7-8.7c3.1-4.4,5.9-8.9,9.3-13l2-2a9.1,9.1,0,0,1,1.6-1.1c.1-.2.3-.2.4-.4l2.1-.8h1.2a10.8,10.8,0,0,1,1.8,0l1.8.3c2.5.6,4.9,1.3,7.3,2.1l3.4,1.3.6.4,1.2,1,.6.5,1.8,2.3-.3-.5c.9,1.5,1.8,3,2.8,4.5s2.4,3.4,3.6,5a27.8,27.8,0,0,0,4.2,4.2,15.7,15.7,0,0,0,3,2,20.3,20.3,0,0,0,3.9,1.4,18.1,18.1,0,0,0,5.1.8l2.5-1.2.5-.3,2.3-1.8,2.8-2.4h0c1.2-1.1,2.6-2.2,3.7-3.4s2.8-3.5,4.4-5.1a21,21,0,0,1,5.5-4.3,10.6,10.6,0,0,1,10.1,0c2.4,1.3,3.3,4,4.6,6.2,0,.2.1.2.1.4l1.5,2a20.9,20.9,0,0,1,1.9,4c.8,2,1.4,4,2.2,6l.3.6a.8.8,0,0,1-.2-.4,10.9,10.9,0,0,0,.8,1.5l2.5,3.6.7.4,2.6,1,3.5,1,4.6.5h2.1l1.9-.4h.5l1.6-.4h.2c.2-.2.4-.2.6-.3l1.4-.9.5-.3h0c.9-.9,2-1.8,2.9-2.8l1.4-1.9c1-1.6,2-3.2,2.8-4.8a.1.1,0,0,1,.1-.1v-.2c.7-1.5,1.3-2.8,1.8-4.2s.9-2.6,1.5-3.9a17.6,17.6,0,0,1,3.2-4.5h.2a18.5,18.5,0,0,1,4.5-3.8,11.1,11.1,0,0,1,6.5-1.1,9.9,9.9,0,0,1,6.5,2.8c1.8,1.9,2.5,4.5,3.2,6.9h0a12.8,12.8,0,0,0,.9,2.2h0c1,1.9,2,3.7,3.1,5.5l1.2,1.6,1.3,1.4.9.5a.1.1,0,0,1,.1.1h.1l.9.3.7.2,5.5.6h1.6l1-.3,1.6-.7.9-.6,1.6-1.2,2.5-2.2h0a36.1,36.1,0,0,0,3.3-3.5h0l.2-.2a19.5,19.5,0,0,0,1.7-2.3c.5-.8,1-1.6,1.4-2.4a.5.5,0,0,0-.2.4c1.2-2.7,2.6-5.4,3.6-8.2h0c.6-1.7,1.3-3.5,1.8-5.3a22.3,22.3,0,0,0,.4-2.3h0v-.2c.1-.7.1-1.5.2-2.2a30.1,30.1,0,0,0-.9-8.4c-.3-1.2-.7-2.4-1-3.6l-1.8-7.3a2.9,2.9,0,0,0-.2-.9l.2.7c-.2-1.1-.5-2.2-.7-3.4h0a.6.6,0,0,0-.1-.4c0-.2-.1-.4-.1-.7l-1.2-2.5c-.9-1.9-1.7-3.7-2.7-5.5-2-3.8-4-7.7-6.2-11.4s-4.4-7.1-6.4-10.7-3.8-6.8-5.7-10.3-2.8-4.6-4.1-6.9-3.4-5.7-5.2-8.5h-.2c-2-2.9-4.1-5.8-6.2-8.5s-4.3-5-6.4-7.4-4.6-5.8-6.8-8.8l-3-4.3c-1-1.5-2-3-2.9-4.6-1.8-3.4-3.4-6.9-4.9-10.5-.7-1.6-1.3-3.3-2-5a49.9,49.9,0,0,1-1.6-5.1c-.3-1.1-.5-2.1-.7-3.1a15.3,15.3,0,0,1,0-3.7,9.4,9.4,0,0,1,1.6-4.2,7.4,7.4,0,0,1,2.7-1.9,8.3,8.3,0,0,1,5.6.3c4.8,1.8,7.8,6.8,10.1,11.2,1.1,2,2,4.1,3,6.2s2.5,4.5,3.9,6.7l2.1,2.6,1.1,1.3h.2l.3.4-.3-.4,6.4,5.8c2.5,2.3,4.8,4.6,7.1,7.1l-.3-.4c5.7,5.7,11.7,11.2,15.9,18.3a51.2,51.2,0,0,1,2.7,5.2c.8,1.7,1.4,3.5,2.1,5.3l1.8,4.6c.8,1.6,1.6,3.2,2.5,4.8l-.3-.5a45.7,45.7,0,0,0,4.3,6.5,28.1,28.1,0,0,0,2.9,3.1,35.7,35.7,0,0,0,3.8,3,56.4,56.4,0,0,0,5.3,3.1l7.7,1.3,3.8,1c3.2,1.3,6.4,2.7,9.7,3.9a27.5,27.5,0,0,0,4.9,1.4,33.1,33.1,0,0,0,5.5.7,79.3,79.3,0,0,0,10.9-.1,40.8,40.8,0,0,0,11-2.4,66.2,66.2,0,0,0,10-4.9c1.7-1.1,3.4-2.1,5-3.3l.8-.5,3.2-1.4c2.5-1.2,5.1-2.5,7.4-3.9l8.4-5.2c5.1-3.4,9.8-7.3,14.8-10.8s10.4-5.7,15.7-8.4,9.3-4.9,14-7.5a103.8,103.8,0,0,0,12.4-8.4l3.9-2.9h.1c2.7-2.1,5.3-4.1,8.1-6.1l9.2-6,4.2-2.9c1.2-.9,2.5-1.7,3.6-2.6,5.9-4.8,11.7-9.6,16.7-15.3l-.6.8.6-.7c3.1-3.5,6.1-6.9,9.1-10.5s4.3-5.4,6.3-8.2,2.9-3.9,4.1-6l3.1-5.3c4.3-7.3,7.5-15.2,8.4-23.6a36.6,36.6,0,0,0-1.5-14.7c-1.3-3.8-4.2-6.4-7.8-8.2a29.8,29.8,0,0,0-6.5-2.4l-4.9-.7a39.2,39.2,0,0,0-5.9-.2c-7.4.2-14.5,2.3-21.5,4-1.9.4-3.7.6-5.5.8h-2.3l-4.5-.6-.6-.2-.8-.3-1.3-.8a18.4,18.4,0,0,1-2.2-1.7l-.3-.2-1-1.4a3.5,3.5,0,0,0-.5-.8l-.3-.8c-.5-1.5-.9-3.1-1.3-4.7-1-5.9-1.8-11.9-2.7-17.9s-1.8-12.3-2.3-18.5-.3-14.1-.8-21.2a48.6,48.6,0,0,0-2.1-10.6c-.8-3-1.5-6-2.2-9.1a.7.7,0,0,1-.1-.5h0c-1.2-4.4-2.3-8.8-3.8-13.2v-.2h-.1c-.5-1.3-1-2.5-1.6-3.8-2.3-4.6-4.6-9.2-6.8-13.8a.8.8,0,0,1-.2-.4c-.7-1.1-1.4-2.1-2-3.2-2.1-3.6-4-7.3-5.9-11l.3.7c-3.4-6.3-6.7-12.5-10.5-18.5s-7.8-11.4-11.8-17l.4.6c-3.9-5.5-7.6-11.1-11.3-16.6l-5.6-8c-1.8-2.8-3.6-5.6-5.6-8.3a24.8,24.8,0,0,0-2.5-3c-1.8-1.8-3.7-3.4-5.5-5.1a56,56,0,0,1-8-8.9,93.4,93.4,0,0,1-9.6-16.8,70.8,70.8,0,0,1-2.8-7.7c-.6-2.1-1.2-4.1-1.7-6.2s-1-5.9.6-8.3a5.9,5.9,0,0,1,9.5-.3,21.3,21.3,0,0,0,2.9,3.1l-.6-.5.5.5c4.4,3.7,9.2,7,13.8,10.5,2.2,1.7,4.4,3.6,6.5,5.4a76.1,76.1,0,0,1,7.2,6.7,103.8,103.8,0,0,1,8.3,10.3,99.7,99.7,0,0,1,5.5,8.8c1.5,2.6,3,5.2,4.6,7.7a34.4,34.4,0,0,0,2.8,3.6c2.2,2.3,4.4,4.5,6.4,6.9a33.3,33.3,0,0,1,5.3,8.6c1.4,2.8,2.4,5.7,3.6,8.6s1.6,3.7,2.4,5.5l3.4,4.2c2.2,2.8,4.3,5.6,6.2,8.5s4,5.7,6.1,8.5,4.2,5.3,6.1,8.1a79.7,79.7,0,0,1,4.9,9.1c2.4,5.2,4.9,10.3,7.2,15.6a143.5,143.5,0,0,1,6.3,18.1,150.8,150.8,0,0,1,3.9,17.7c.5,2.6.7,5.2,1.1,7.7s.6,4.4.7,6.6c.3,5.3-.1,10.6.5,15.9a1.3,1.3,0,0,1,.1.6h0a54.3,54.3,0,0,0,1.3,5.8c-.1-.2-.1-.3-.2-.4.5,1.5,1.1,3,1.6,4.6s.9,3.2,1.4,4.8h.1a11.1,11.1,0,0,0,.7,1.6,21.1,21.1,0,0,0,1.9,2.3,29.1,29.1,0,0,0,3.1,3,33.9,33.9,0,0,0,3.9,1.8l1.7.7h.5l1.5.6.7.3h1.6a24,24,0,0,0,12.9-4.1,48.6,48.6,0,0,0,12-10.6,37.9,37.9,0,0,0,7.1-12.9c2.6-8.6,3-17.5,3.4-26.5.2-3.8.4-7.8.3-11.6s-.4-8.7-.5-13.1a17.7,17.7,0,0,1-1.6-2.2l1.4-1.9c-.4-8.4-1.1-16.7-1.7-25.1h0c0-.1-.1-.2-.1-.3v-.5h0c-.3-4.8-.5-9.7-.8-14.5s0-8.5,0-12.7.5-8.8.8-13.1c.5-7.4,1.4-14.8,2.1-22.2s1.3-15.1,1.8-22.6c1.1-17.2,1.1-34.4,1.5-51.6s1.8-36.3-.8-54.4c-.4-2.5-.7-5-1.2-7.4s-1.1-5.2-1.6-7.8c-1.7-7.9-4.7-15.3-8-22.6s-7.4-15.7-11.2-23.4a272.7,272.7,0,0,0-13-24.5c-2.4-4-4.7-8-7.4-11.8l-7.4-10.5a88.4,88.4,0,0,1-5.8-9.9c-5.3-10.8-8.9-22.4-14.5-33a53.2,53.2,0,0,0-6-9.6,62.2,62.2,0,0,0-7-7.5c-5.4-4.8-12-7.9-18.7-10.1s-12.5-3.6-18.6-5.6c-2.6-1-5.2-2-7.7-3.2-6.1-3.2-11.7-7.2-17.4-11s-10.7-7.5-15.7-11.6-10.8-9.1-16.2-13.7h.2l-.2-.2h-.2l-.3-.3h0c-3.8-3.4-7.5-6.9-11.2-10.4L649.2,81.3c-8-8.4-15.8-16.9-24.5-24.6a114.3,114.3,0,0,0-14.3-10.5c-3.6-2.3-7.2-4.6-10.9-6.6s-8.2-4.5-12.5-6.4-8.4-3.8-12.7-5.5c-6.9-2.8-13.8-5.8-21-7.9-11.7-3.6-23.8-5.6-35.9-7.4-4.1-.6-8.2-.8-12.2-1.2L491.3,10h1.2c-7.9-.8-15.8-1.4-23.7-2.1s-15-1.4-22.6-1.9h.2L414.5,3.2,393.8,1.6c-5.3-.4-10.5-.6-15.7-.8C368.8.3,359.6.2,350.3.1S332.8,0,324.1.4c-4.3.2-8.6.3-12.8.7l-10.1,1-4.2.4L281.3,4.8c-4.6.7-9.2,1.8-13.7,2.7s-7.7,1.6-11.6,2.6c-5.4,1.3-10.8,2.6-16.2,4.1a147.8,147.8,0,0,0-33.9,13.4,170.4,170.4,0,0,0-23.6,15.8c-7.3,5.7-14.5,11.5-21.7,17.4L148.8,71.1a98.8,98.8,0,0,0-9.2,9.1l.9-1L138,82.1h-.2a6,6,0,0,0-.8.8h.1c-4.1,4.7-7.9,9.6-11.8,14.5s-7.1,9.1-10.9,13.4c-11.7,12.7-24.2,25-33.8,39.5-2.5,3.8-5,7.7-7.2,11.7s-4.1,7.7-6.1,11.6c-4,8-8.4,15.7-12.4,23.6-1.9,3.8-4,7.5-6.1,11.2a89,89,0,0,0-5.7,12.1c-1,2.8-2,5.7-2.9,8.5-2.8,4.7-5.6,9.5-8.3,14.3s-4.3,7.5-6.1,11.4-3.4,7.3-5,11A204.2,204.2,0,0,0,13.2,286a176,176,0,0,0-4.3,20.4C7.7,314,6.7,321.7,5.8,329.3ZM744.2,621.8c.1.5.4,1.1.3,1.5s-.7.5-1.1.7l-.8-1Zm68.9-115.6a3,3,0,0,1-2.9,1.9,3.1,3.1,0,0,1-1.9-.6,3.4,3.4,0,0,1-1.2-1.2,6.1,6.1,0,0,1-.9-1.8l-1.5-2.9c-1-2.2-1.9-4.4-2.8-6.6-1.8-4.8-3.7-9.5-5.8-14.1-.4-.9-.9-1.7-1.3-2.5a24.9,24.9,0,0,0-1.5-2.8c-1.3-2.1-2.5-4.2-3.9-6.3l.2.2-.2-.2h0l-4.3-6-2.4-3.1-2.8-2.2-4.8-3.7-7.4-6.2-8.8-6.8a69.5,69.5,0,0,1-16.8-19.8,81.5,81.5,0,0,1-5.9-12.7,61.6,61.6,0,0,1-1.8-6.5,18.7,18.7,0,0,1-.3-5.8,18.5,18.5,0,0,1,.4-2.3c.2-.7.7-1.3.9-1.9a5.5,5.5,0,0,1,2-1.7c2.3-1,4.5-.1,6.6,1a25.5,25.5,0,0,1,3.8,2.6c1.8,1.3,3.5,2.6,5.1,4s2.8,2.5,4.2,3.8,2.6,2.7,3.9,4l3.9,4,4,3.8-.3-.3,4.5,3.9c1.5,1.4,3.2,2.6,4.8,3.9,3.2,2.7,6.5,5.2,9.6,7.9h-.1l.4.3-.3-.2,6,5.3c1.2,1.2,2.5,2.5,3.6,3.8a48.5,48.5,0,0,1,5.3,7.5,68.4,68.4,0,0,1,6.8,17.4,48.6,48.6,0,0,1,1.1,5.5c.2,1.2.5,2.5.7,3.8.6,5,1.3,10.1,1.7,15.2.2,2.6.5,5.2.6,7.8l.3,4.8a26.2,26.2,0,0,1,.1,2.8A8.1,8.1,0,0,1,813.1,506.2ZM746.6,324c1.1-.3,2.8,3.4,4.2,5.3-1.6,1.8-3.2,3.6-5.4,5.9l-5.1-6C742.4,327.3,744.3,324.5,746.6,324Zm-2.9-64c.3-.2.7-.5,1-.4s.4.7.6,1.1l-1.6.7Zm52,148.1c.1-.5.2-1.5.2-1.5l1.9.4c-.1.5-.1,1-.2,1.5Zm-65-207.3a10.4,10.4,0,0,1,1.2-3.5,7.5,7.5,0,0,1,2.5-2.5,8.9,8.9,0,0,1,3.7-1.4l2-.2,2.9.2h.3c.2-.6,1-1.2,1.6-1.8.5.9.9,1.8,1.4,2.8h0l.9.3a26.1,26.1,0,0,1,4.3,2.4,33.9,33.9,0,0,1,4.2,3.3,86.3,86.3,0,0,1,8.4,8.7c2.2,2.3,4.6,4.3,6.8,6.5a40.9,40.9,0,0,1,6.1,7.1,67.9,67.9,0,0,1,5.5,10.3c1.6,3.5,3.1,7.1,4.6,10.7.4.8.7,1.6,1.1,2.5l1.7,2.5,3.4,5.3a39.6,39.6,0,0,1,2.2,3.4L798,262c.8,1.4,1.6,2.8,2.3,4.3s2.7,5.4,3.9,8.2,2.5,5.9,3.6,8.9,2.4,6.1,3.5,9.2c0-.1,0-.1-.1-.1a.4.4,0,0,1,.1.3h.1c1,3,2.1,5.9,3.1,8.8h0c.8,2.1,1.4,4.2,2.1,6.3s1.3,4.1,1.9,6.2,1.3,4.8,1.7,7.1,1,4.8,1.2,7.2c.6,5.1,1.1,10.2,1.2,15.3.1,2.3.1,4.6.1,6.9V354a7.2,7.2,0,0,1-.5,3.2,2.9,2.9,0,0,1-2.8,1.8,3.1,3.1,0,0,1-2.7-1.4,12.6,12.6,0,0,1-1.3-2.6c-5.4-9.9-10.7-19.7-16.6-29.3s-12.4-20.6-18.8-30.8l.2.3c-2-2.9-3.9-5.9-6.1-8.6s-5.5-6.7-8.4-10-4.6-5.1-6.7-7.8c-3.9-5-7.9-10-10.6-15.8-.8-1.9-1.7-3.8-2.6-5.7s-1.5-3.7-2.3-5.6c-1.4-3.5-2.8-6.9-4.3-10.3s-3-6.6-4.4-10l-2.1-5.1-1.5-4.2a23.3,23.3,0,0,1-1.1-6.5A26.3,26.3,0,0,1,730.7,200.8ZM713.9,362c3.6.9,6.9,3.9,12.5,7.4-4.4,5.1-7.5,10.5-8.6,9.7-3.4-2.1-5.9-6.7-8.8-10.3C710.7,366.4,712.6,361.7,713.9,362Zm-17.4-26.4c-1.2,1.5-2.1,3.5-3,3.5s-2.1-1.7-3.1-2.7l2.9-4.6Zm-6.7-179.4a10.3,10.3,0,0,1,.4,1.4c-.1.4-.5.7-.8,1s-.5-1.5-.7-2.3Zm.9,69.6a23.5,23.5,0,0,1,2.1,4.2l-2.7,1.5c-.5-1.5-1-3-1.6-4.5S690.4,225.5,690.7,225.8ZM147.8,771.2a11,11,0,0,1-2.5.2,24.1,24.1,0,0,1-7.1-1.3c-2.9-.9-5.8-2-8.7-3.1h-.2a.1.1,0,0,1-.1-.1l-2.6-.8-2.6-.7c-3.5-.5-7-1.3-10.4-1.8s-7.7-1-11.6-1.4l-3.3-.2h.1a99.1,99.1,0,0,1-12.2-1.5,29.8,29.8,0,0,1-7.4-3.1,43.3,43.3,0,0,1-7.1-5c-4.6-3.9-8.1-9-11.2-14.2a71.8,71.8,0,0,1-3.8-7.9,45.8,45.8,0,0,1-2.5-8.2,28,28,0,0,1,1.7-13.4,26.5,26.5,0,0,1,7.1-11.2,28.8,28.8,0,0,1,4.8-7.3,30.2,30.2,0,0,1,6.5-5.3c3.2-1.9,7.2-2.2,10.8-2h0a23.6,23.6,0,0,1,4.5.8c1.6.6,3.2,1.6,3.4,3.5a6.4,6.4,0,0,1-.8,3.6c-.8,1.9-1.8,3.7-2.7,5.5h-.1c-1.5,3.1-2.8,6.1-4,9.3-.4,1.3-.7,2.5-1,3.8a35.4,35.4,0,0,0-.7,4.7v.1h0a46.9,46.9,0,0,0-.1,5.3c.1,1,.2,2.1.4,3.1s.1.6.2,1h.1v.2h0l.3.6c0,.1,0,.1.1.2a16.2,16.2,0,0,0,1,1.8l1.8,2.2.5.5a62.8,62.8,0,0,0,5.2,3.8c3.4,1.9,7,3.7,10.5,5.4l-.4-.2,7.4,3.7,8,3.5c6.2,2.6,12.6,4.7,18.7,7.3a27.1,27.1,0,0,1,8.2,4.9c1.9,1.6,4,3.5,5,5.9S151,770.4,147.8,771.2Zm-24.3-186c.4-.9.9-1.7,1.3-2.5a18.2,18.2,0,0,1,1.5,2.3,12.7,12.7,0,0,1-1.9,1.3C124.2,586.4,123.5,585.3,123.5,585.2Zm25.9,116.9c-1.4-3.1-2.8-5.8-4.1-8.6,1.2-.7,3-2.4,3.4-2a62.4,62.4,0,0,1,5,7.9Zm79.7,61.6c-.3-.1-.5-.8-.7-1.2l1.7-.9a9.2,9.2,0,0,1,.1,1.6C229.9,763.4,229.4,763.8,229.1,763.7Zm46,106.5,1.2-.6c.1.5.3,1,.4,1.6ZM292.3,736l-.9,4a13.8,13.8,0,0,1-.8,2.9l-1.2,2.5-3.7,6.5a.1.1,0,0,1,.1-.1c-.1,0-.1.1-.1.2h-.1c-.6,1.5-1.3,3-1.8,4.5a20,20,0,0,1-1.7,4c-1,1.7-2,3.3-2.9,5l-3.1,5a.1.1,0,0,1,.1-.1c-1.3,2.1-2.4,4.2-3.5,6.4s-2.3,4.7-3.4,7.1l-7.1,14.9c-1.2,2.5-2.4,4.9-3.7,7.3a61.2,61.2,0,0,1-3.1,5.6,22.2,22.2,0,0,1-1.9,2.7l-1.3,1.4a4.8,4.8,0,0,1-1.4.9,2.8,2.8,0,0,1-1.3.4h-.9l-1.3-.3a4.7,4.7,0,0,1-1.2-.9,9.1,9.1,0,0,1-1.1-2.2c0-.3-.1-.7-.1-1.1v-1a13.7,13.7,0,0,0,.2-1.9,21.2,21.2,0,0,1,1.2-4.1h0a.1.1,0,0,0,.1-.1h0l.6-1.8a25.6,25.6,0,0,1,1.1-2.4.1.1,0,0,1,.1-.1c.8-1.6,1.5-3.3,2.2-5v.2a.4.4,0,0,1,.1-.3q1.2-3.3,2.4-6.9h0c.3-1.3.6-2.6,1-4v.3c.4-1.6.7-3.2,1-4.8s.7-3.1,1.1-4.7a39.6,39.6,0,0,1,1.3-4.6,53.6,53.6,0,0,1,3.9-9.6c1.8-3.2,3.5-6.5,5.4-9.6s2-3.5,3.1-5.2,1.9-3.8,2.9-5.6c0,.1-.1.2-.2.3,1.1-2,2.3-4,3.6-5.9s2.5-4.1,3.9-6.1l1.1-1.5a4,4,0,0,1,1-1.5c.1-.2.3-.3.4-.4l.3-.3a24.2,24.2,0,0,1,3.3-3.1,5.3,5.3,0,0,1,3.2-.8,4.1,4.1,0,0,1,2.9,1.8,7.8,7.8,0,0,1,1.1,4.7A45.3,45.3,0,0,1,292.3,736Zm14,65.7c-.1.1-1-.4-1-.7a24,24,0,0,1,.3-2.8l1.8,1.5C307,800.3,306.7,801.1,306.3,801.7Zm20.9-142.9c-.7,0-1.4-1-2.1-1.5s.7-1.8,1.1-2.8l2.1,1.7C328,657.1,327.6,658.7,327.2,658.8Zm4.3,40c-.6-.7-1.6-1.3-1.7-2s.8-1.8,1.2-2.7c.6.6,1.6,1.2,1.7,2S331.9,697.9,331.5,698.8Zm.3-114.7h0v.7h0c-.6,8.5-1,17.1-2.6,25.4a183.3,183.3,0,0,1-5.6,19.2,96.9,96.9,0,0,1-4.4,10.5c-.9,1.7-1.8,3.3-2.8,4.9-2.2,3.1-4.6,6.1-7.1,9s-2.8,3.2-4.3,4.6-4.3,4.2-6.6,6.2h0a.1.1,0,0,1-.1.1l-.5.5a.1.1,0,0,1,.1-.1c-2.2,1.8-4.4,3.5-6.7,5.1a48.5,48.5,0,0,1-4.9,2.9c-6.8,3.2-14,5.8-20.9,8.7s-12.5,5.8-18.9,8.1l-4.7,1.3c-3.1.5-6.2,1-9.4,1.3h-8.8c-4.7-.4-9.3-.9-14-1.5l-15-2-14.9-1.4c-4.6-.4-9-.9-13.6-1.7s-7.1-1.7-10.6-2.8l-5.4-2.2a26.1,26.1,0,0,1-2.8-1.7c-1.3-.9-2.4-1.8-3.6-2.8s-2.5-2.4-3.7-3.7l-1.5-1.9c-1-1.7-2-3.4-2.9-5.2a22.8,22.8,0,0,1-1.5-3.6,15.5,15.5,0,0,1-.7-2.3,25.4,25.4,0,0,1-.4-2.9,78.5,78.5,0,0,1,.2-8.4,69.3,69.3,0,0,1,1-7.8c1.4-6.5,3.3-12.9,4.7-19.4s3.7-15.5,5.2-23.3,3-15.8,4.4-23.7l3.3-21.2c1.2-7.5,2.5-15.1,3.9-22.6.7-2.9,1.4-5.8,2.2-8.6s1.4-3.5,2.2-5.3a90.5,90.5,0,0,1,4.5-8h0c1.1-1.5,2.2-3,3.4-4.4h0q1.8-1.9,3.6-3.6l3-2.5,4.8-2.8h.1l4.1-1.7c2.3-.8,4.7-1.4,7-2s6.7-.8,10-1.1c9-.4,17.9-.3,26.8-.9l13.4-1.2,12-1.1c3.3-.1,6.7-.1,10,0s8.5.9,12.8,1.5,8.3.9,12.4,1.7,6,1.6,9,2.6c0-.1-.1-.1-.2-.1h.7c3.6,1.4,7.1,2.9,10.6,4.6a59.5,59.5,0,0,1,7.2,4.3c1.4,1,2.9,2.1,4.3,3.3l2.5,2.4,2.3,3,1.4,2.5a46.8,46.8,0,0,1,1.9,4.5,82.8,82.8,0,0,1,3.1,11.1,63.1,63.1,0,0,1,1,7.6h0c0,.5.1,1,.1,1.5h0c0,.5.1.9.1,1.4v0h0c0,.6.1,1,.1,1.5h0v.7a1.7,1.7,0,0,1,.1.7h0c.3,7.3.7,14.6.5,21.8S332.2,577.5,331.8,584.1ZM227.9,375.2H223c-3,0-6-.2-9-.5a50.6,50.6,0,0,1-9.1-2.3l-.7-.2-4.5-1.7a127.9,127.9,0,0,1-12-5.5,43.9,43.9,0,0,1-4.5-3l-.7-.6-1.6-1.4L180,359a4.3,4.3,0,0,1,0-4.4,4.8,4.8,0,0,1,4.2-1.8l2.1.2,8.5,1.4,1.2.3,5.8,1.1,5.7,1.1h4.7l10.9.3c3.7.2,7.4.4,11.1.8l4.5.8a38.4,38.4,0,0,1,5.5,1.5,31.2,31.2,0,0,1,5.4,2.3,12.2,12.2,0,0,1,3.7,2.9,5.3,5.3,0,0,1,1,3.2,4.8,4.8,0,0,1-2.9,4.2,17.4,17.4,0,0,1-3.2,1l-4.2.4-4.1.2h-1.3C235,374.7,231.4,375,227.9,375.2Zm6,101.4c-1.6,2.7-2.4,4.4-2.5,4.3a39.6,39.6,0,0,1-2.9-2.9c.7-1.2,1.3-3.4,2-3.4S232.9,476,233.9,476.6Zm87.2-54.2c-4.9-1.6-9.8-2.9-14.7-4-2.6-.5-5.1-1-7.7-1.3l-1.2.3a17.1,17.1,0,0,1-4.5.4l-3.2-.2-5.4-.2a58,58,0,0,1-5.9,0,40.1,40.1,0,0,1-5-.8l-5.5-.7c-3.3-.2-6.8-.1-10-.8l-2.9-.8a10.1,10.1,0,0,1-3.4-1.8c-2-1.5-4.1-3.7-3.7-6.4a10.1,10.1,0,0,1,.7-2.3,11.1,11.1,0,0,1,1.7-3,41,41,0,0,1,5.2-5,23.3,23.3,0,0,1,9.2-4.5l5-1.4c3.7-1.3,7.3-2.9,11.2-3.6a28.5,28.5,0,0,1,10.9-.1,40.8,40.8,0,0,1,6,1.6,71.7,71.7,0,0,1,9.4,4c3,1.4,5.9,2.7,8.8,4.2h0a.1.1,0,0,0,.1.1h.1l10.8,5.8c2.4,1.1,4.9,2.3,7.4,3.3s5.3,2,8,3l-.4-.2c3.3,1,6.7,2,10.1,2.8s6.6,1.5,9.9,2.4,7,1.9,10.4,3.1a69.2,69.2,0,0,1,12.4,5.6,31.8,31.8,0,0,1,8.6,7.3,7.4,7.4,0,0,1,1.4,6.4,5.7,5.7,0,0,1-2,3,10.2,10.2,0,0,1-3.6,1.8,15.4,15.4,0,0,1-4.3.6h-3.8l-5.8-.6a74.8,74.8,0,0,1-9.6-2.4L355,434.1h.5l-3.4-1.2h.2l-15.2-5.2h0Zm-43.3-49.1,1.6-1.3c.1.5.4,1.1.3,1.5s-.7.5-1,.8ZM384.6,547.8c-.6,1.8-1,3.8-1.2,3.8a11.4,11.4,0,0,1-3.5-1.3c.3-1.1.6-3.1,1-3.2S383.2,547.5,384.6,547.8ZM354.7,788.7a16.7,16.7,0,0,1-3.1.5h-1.9c0-.1-.1-.1-.2-.1l-.4-.3a3.9,3.9,0,0,1-1-.8,53.2,53.2,0,0,1-4.7-4.8,37.6,37.6,0,0,1-2.5-3.1c-1.2-1.9-2.3-3.9-3.3-5.9s-1.5-3.2-2.1-4.7-.7-2.4-1-3.6h0c0-.2-.1-.4-.1-.6a4.3,4.3,0,0,0,.1.5,51.4,51.4,0,0,1-.6-5.5,58.1,58.1,0,0,1,0-5.9,64.2,64.2,0,0,1,1-7.5,101.6,101.6,0,0,1,3.3-10.7h0v-.2h.1c.9-2.3,1.7-4.6,2.8-6.9l3.7-8.1,6.9-14.3-.2.5q3.3-6.6,6.9-13.2c2.2-4,4.6-8,6.9-12s3.6-6.7,5.3-10.1,3.1-7.1,4.6-10.6c3-7.3,5.6-14.8,8-22.3l1.8-5.6c.6-2.2,1.1-4.4,1.8-6.6s.7-2.3,1-3.5,1-3.6,1.4-5.4l1.2-2.3c.6-1.7,1.1-3.3,1.6-5a.4.4,0,0,1-.1.3c.9-3.1,1.7-6.3,2.4-9.4s1.6-6.6,2.6-9.8a19.5,19.5,0,0,1,4-7.5,10.6,10.6,0,0,1,1.5-1.5,14.1,14.1,0,0,1,2.7-1.8,7.6,7.6,0,0,1,3.3-.8,9.1,9.1,0,0,1,2.3.3,9.4,9.4,0,0,1,5.1,3.1,15.9,15.9,0,0,1,2.4,4.9,85.9,85.9,0,0,1,3.6,13.2c.2,1.2.5,2.4.6,3.6a3,3,0,0,1,.4.8c1,4.1,2.2,8.2,3.4,12.3,2.2,7,4.5,13.9,6.8,20.8a173.7,173.7,0,0,0,8.7,20.9c3.2,6.7,6,13.6,8.7,20.6s5.4,12.8,7.9,19.3c1.2,3.4,2.4,6.9,3.3,10.4s1.8,7.2,2.6,10.9h0c.3,2,.8,3.9,1.2,5.9h-.1l1.2,7c.7,4.7,1.4,9.3,1.7,14a74.8,74.8,0,0,1,.1,8.2l-.3,4.2c-.5,4.2-.8,8.2-1.5,12.2l-.5,1.7a39.2,39.2,0,0,1-1.6,3.6l-.6,1.1-.3.4-.3.2c0,.1-.1.1-.2.2h0c-3,1.4-6,2.5-9,3.6l-2.6.7h-2.2l-1.2-.2h-.1l-2.6-2.1-2.4-2.3h0a47.3,47.3,0,0,1-3.1-4.3c-1.1-1.7-2.2-3.4-3.2-5.1l-2.2-4.1h0c-.1-.2-.1-.4-.2-.5h-.1a.1.1,0,0,0-.1-.1c-.2-.6-.5-1.1-.7-1.6h0a.3.3,0,0,0-.1-.2c-.6-1.3-1.2-2.5-1.9-3.7h0a40.2,40.2,0,0,0-3.1-5.8l-1.7-2.4-2.4-3.3-1.8-2a18.3,18.3,0,0,0-2.6-2.1,26.4,26.4,0,0,0-3.7-2,11.9,11.9,0,0,0-3.2-1,6.5,6.5,0,0,0-2.4.2,22,22,0,0,0-7.4,3.1c-3.6,2.3-6.5,5.6-9.2,8.8s-5.3,6.3-8,9.4l-8.6,9.3c-3.2,3.3-6.4,6.5-9.8,9.6h0c-1.5,1.3-3.2,2.6-4.9,3.8l-3.2,2-1.9.8Zm49.4-351.8c1.5-1.5,3.1-4.5,4.4-4.2a7.7,7.7,0,0,1,4.4,5.3c.4,2.4-1.2,5.4-2.6,10.2Zm22.2,154.5c.7,2.2,1.3,4.4,1.9,6.6l-1.2-3.4C426.8,593.5,426.5,592.5,426.3,591.4Zm8.5,31.1,1.8-.8v1.7c-.4.2-.8.6-1.1.5S435,623,434.8,622.5ZM427,797.1c-.7,1.7-2.3,2.1-4,1.9s-3.7-.8-5.5-1.2l-4.4-.7H411l-2.5.2a32.7,32.7,0,0,0-4.5,1,33.9,33.9,0,0,0-5.3,2l-3.5,1.8c-5.1,3.5-9.6,7.7-14.5,11.4-2.4,1.8-5.1,3.2-7.7,4.8s-5.2,3.6-8.3,3.9h-2.1a7.2,7.2,0,0,1-2.5-.7,5.7,5.7,0,0,1-1.6-1.5,6.7,6.7,0,0,1-1-2.3,13.7,13.7,0,0,1,.2-2.9,24.9,24.9,0,0,1,1.8-4.5,24.4,24.4,0,0,1,2.8-4.3l2.6-3.4a29.9,29.9,0,0,1,2.5-3.4,76.6,76.6,0,0,1,6.8-7.1c1.3-1.1,2.8-2.1,4.2-3.1l3.3-2.4c1.9-1.2,4-2,5.9-3.2h0l2.6-1.9,2.6-1.9h-.2l2-1.7a.1.1,0,0,0,.1-.1c.6-1,1.2-2.1,1.9-3.1a11.3,11.3,0,0,1,4.3-3.5A19.8,19.8,0,0,1,404,770a12.9,12.9,0,0,1,4.8-.4,12.4,12.4,0,0,1,3.3.9,20.4,20.4,0,0,1,5.1,4.1,46.5,46.5,0,0,1,5.4,7,38.5,38.5,0,0,1,3.7,8.6h0c0,.1.1.2.1.3s-.1-.1-.1-.2a15.4,15.4,0,0,1,.9,3.7A5.8,5.8,0,0,1,427,797.1Zm240.3-69.2-1.4-2.2c.4-.3.9-.9,1-.7a10.8,10.8,0,0,1,1.6,2Zm50.1,37.7c-.7-.4-1-1.7-1.5-2.7s1.5-1.5,1.9-1.2,1,1.7,1.5,2.6S717.8,765.9,717.4,765.6Zm8.3-103.7,2.7-3.2a15.4,15.4,0,0,1,1.9-1.7,3,3,0,0,1,2.7-.6,3.3,3.3,0,0,1,2.2,1.8,7.5,7.5,0,0,1,.5,4.7,22.5,22.5,0,0,1-1.3,5.1,54.8,54.8,0,0,1-2.3,5.6c-1.6,3.5-3.1,7-4.8,10.4a63.4,63.4,0,0,1-6.3,9.3c-2.1,2.7-4.5,5.3-6.9,7.9s-4.1,4.6-6.3,6.8a50.2,50.2,0,0,1-9.3,7.2c-2,1.1-4.2,2-6.3,2.9l-3.6,1.3-5,.9-10.4,1.1L662,722.6c-7,.8-13.9,1.1-20.9,1.5l-5.2.2h-.4a25.6,25.6,0,0,1-3.9-.3,15.8,15.8,0,0,1-4.8-1.5l-3.6-1.9h.1a41.9,41.9,0,0,0-4.9-2l-5.8-1.8a42,42,0,0,1-5-1.7,4.1,4.1,0,0,1-2.3-2c-.4-1.2-.7-2.4.1-3.5l.6-1,1-.9a8.3,8.3,0,0,1,1.8-1.3l3.8-1.7c2.1-.8,4.3-1.7,6.5-2.4l3.1-1,3.2-.7,2.9-.3a14.2,14.2,0,0,1,4.6.6l3.6,1.1,3.6.9,2.8.4h1.9l5.5-.5,3-.3,1.2-.4h.1l12.2-4.7q6.5-2.6,12.9-4.8h-.3l1.7-.6a144.3,144.3,0,0,0,14.2-5.6,162.5,162.5,0,0,0,15.2-8.8l1.7-1.3,2-1.6a.1.1,0,0,0,.1-.1h0c1.8-1.8,3.7-3.7,5.4-5.6S723.7,664.4,725.7,661.9Zm-9.5-44c.1,0,.8,1.1.7,1.4a15.8,15.8,0,0,1-1.3,2.6l-1.5-2.5A15.9,15.9,0,0,1,716.2,617.9ZM668.9,443.6l-1.7,2.2c-.3-.9-.8-1.8-1.1-2.8s.7-1.4.8-1.3A17.5,17.5,0,0,1,668.9,443.6Zm-3.6-77c.9,0,1.8,1.8,3.2,3.3-1.3,1.5-2.3,3.5-3.2,3.3s-2.3-2.1-2.3-3.4S664.4,366.6,665.3,366.6Zm-6.1,155.1c4.4,1.7,8.9,3.6,13.3,5.6,2.2,1.1,4.3,2.3,6.4,3.6s2.7,2,3.9,3.1h.4l.4.4-.4-.3a52.9,52.9,0,0,1,4.1,4.1,79.8,79.8,0,0,1,5.6,7.4c1.5,2.5,3,5,4.3,7.5,3.5,7.4,6.7,14.9,9.5,22.6s4.1,13.3,5.6,20.2c.4,2.3.7,4.6.9,7a166.5,166.5,0,0,1-.3,17.3c-.6,5.3-1.2,10.5-2.2,15.7a91.7,91.7,0,0,1-2.7,10.3q-1.1,2.8-2.4,5.7c-.5,1-1.1,2-1.7,3s-3.1,4.1-4.7,6-2.2,2.3-3.4,3.4a82.2,82.2,0,0,1-6.7,4.9c-3.8,2.4-7.5,4.9-11.5,7l-4.1,1.7a42.7,42.7,0,0,1-4.8,1.3c-2.1.4-4.1.8-6.2,1h-5.6a136.8,136.8,0,0,1-14.3-2.1c-14.5-3-28.6-7.4-43-11a92.8,92.8,0,0,0-23.5-2.9c-7.6.1-15.2.7-22.8,1.2l-10.5.2-7.9-.3c-3.5-.4-6.9-.8-10.3-1.5l-5.3-1.3-2.3-.9-.8-.5-.2-.2c-.1-.2-.3-.3-.5-.5l-1.5-2c-1-1.6-1.9-3.2-2.8-4.9s-2-4.6-2.9-7-1.8-6.1-2.5-9.1-1.3-8.6-1.7-13c-.6-11-.8-22-1.1-33.1-.2-5.1-.3-10.2-.4-15.3s.1-8.1.1-12.1c.6-7.7,1-15.4,2.5-23a78.6,78.6,0,0,1,2.1-8,57.9,57.9,0,0,1,2.9-6.8c.5-1,1.1-2,1.7-3s2.4-3.2,3.7-4.8c-.1.1-.1.2-.2.2s.1-.1.2-.2l.4-.5-.4.5c1.3-1.3,2.5-2.6,3.9-3.9s3.9-3.1,5.9-4.5,4.8-2.9,7.3-4.2a89.4,89.4,0,0,1,9.2-3.8c6-2,12.1-3.5,18.3-4.9h.1a110.1,110.1,0,0,1,15-2l3.5-.2c4.1,1,8,2.3,12,3.6a161.5,161.5,0,0,1,15.5,6.2h.4l.4.3h.2l1.4.8c5.4,2.8,10.6,5.3,16.8,6.3,4.5.7,9.1,1.2,13.6,2l6.4,2C650.1,518,654.6,519.9,659.2,521.7ZM517,795.9c-2.7,2.8-4.3,5.5-5,5.1s-4-3.7-6-5.8c.8-1.3,1.8-3.8,2.4-3.7C510.8,792.3,513,793.8,517,795.9Zm11-461.4c2.3-7.2,6.1-10.5,10.2-3.7,2.5,4.1,2.7,10.9,4,16.4-4.7.8-10,3.7-14,1.7-6.1-3-4-9.4-.2-14.4Zm-2.5,40.1c.1.1-.8,2.5-1.4,4.5l-8.6-6.9c.7-1.2,1.7-3.6,2-3.4A59.9,59.9,0,0,1,525.5,374.6Zm28.5-4c-.2-.6,1.3-3.6,2.1-3.7s2.9,1.1,5.7,2.5c-2.2,2.8-3.4,5.3-4.5,5.2S554.8,372.3,554,370.6Zm32.9,107.2c-.1-.4,1.9-3.2,2.6-3s2.4,2.3,4.1,4.2c-1.8,1.8-3.3,3.9-3.7,3.6A12.7,12.7,0,0,1,586.9,477.8ZM643,190c.3,0,.5.5.8.8s-.6.7-.8.7-.5-.5-.8-.7S642.7,190,643,190Zm-2.4,284.3c2.1,2.6,4,3.9,4.3,5.6s-1.5,4.8-2.4,4.8-3.4-1.7-4-3.5S639.5,477.6,640.6,474.3Zm-17.7-99.4c-1.8-1.1-3.2-3.5-4.8-5.5l3.9-5.9,5.2,6.9C625.3,372.5,623.6,375.3,622.9,374.9Zm-7.7-217.5c.3.9.7,1.9,1,2.9s-1.3,1.7-1.8,1.6-1.2-1.4-1.7-2.2Zm-1.5,13.2a18.2,18.2,0,0,1,5.7-.7,6.7,6.7,0,0,1,6,3.8c.8,1.8.4,3.9.1,5.8a19.6,19.6,0,0,1-2,6.8c-1.5,3.4-3.2,6.8-5,10.1s-3.9,6.7-5.9,10l-5.7,9.5c-2.2,3.6-4.2,7.3-6.1,11.1,0-.1.1-.2.1-.3a74.6,74.6,0,0,0-3.7,8.8v-.3c-.5,1.8-1.1,3.6-1.5,5.5s-.3,2.5-.4,3.7,0,2.4.1,3.6h-.1a48.5,48.5,0,0,0,.8,5.3,34.4,34.4,0,0,0,1.5,5.5c.9,2.7,2.1,5.2,3.2,7.8s2.1,4.7,3.1,7.1c1.7,3.9,3.4,7.9,5,11.9s2.8,7,4,10.6c.5-1.4.9-2.7,1.4-4.6l7.1,13.5-5.1,4.6c.6,2.6,1.6,5.1,1.8,7.7a27.5,27.5,0,0,1-.3,6.4,8.2,8.2,0,0,1-1,3,14,14,0,0,1-1.6,2,3.2,3.2,0,0,1-3.8.5l-1.5-.9-1.2-1.4c-.7-.9-1.3-1.9-1.9-2.8l-3-4.9a18.3,18.3,0,0,1-1.3-2.4l-1.6-2.9c-.9-1.8-1.8-3.7-2.6-5.6-3.2-6.6-6.1-13.3-9.1-20.1s-6.8-15-10-22.5a119.6,119.6,0,0,1-7.6-24.7,57.1,57.1,0,0,1-.9-14.3,53.6,53.6,0,0,1,1-7,39.6,39.6,0,0,1,2-6.7,51.8,51.8,0,0,1,5.5-10.1,48.7,48.7,0,0,1,4-5,54.8,54.8,0,0,1,4.4-4h-.1l.9-.8,1.1-1.9a45.3,45.3,0,0,1,3.4-5.5,39.7,39.7,0,0,1,4.2-5,34.9,34.9,0,0,1,4.9-4.5,33.8,33.8,0,0,1,5.8-3.4A32.8,32.8,0,0,1,613.7,170.6Zm-21.1,163a13.8,13.8,0,0,1-.8,2.7,12.9,12.9,0,0,0-1.6-1.7,13.7,13.7,0,0,1,1.6-1.8C591.9,332.7,592.7,333.4,592.6,333.6ZM589.1,44.4c1.7.3,3.2,2.7,6.1,5.5-3.2,2.2-5.2,4.6-6.6,4.1s-2.3-3.9-3.4-6C586.5,46.7,588,44.2,589.1,44.4Zm-55.5,77.7.8,1a2.9,2.9,0,0,1-.5,1.4c-.2.2-.7-.1-1-.2A18.7,18.7,0,0,1,533.6,122.1Zm-10.8,72a65.2,65.2,0,0,1,5.3-8.7c2.2-3,4.3-6,6.6-8.9,4.3-5.3,8.4-10.7,12.7-16l2.1-3.7c.9-1.4,1.8-2.7,2.8-4a24.8,24.8,0,0,1,2.8-3.6c1.1-1.1,2.1-2.3,3.1-3.4l6.3-6.8.2-.2h.1l2.1-2.4h-.1q3.3-3.9,6.3-8.1c1.8-2.5,3.7-5,5.7-7.3a72.5,72.5,0,0,1,7.6-7c3.5-2.7,7.3-5.9,12-6.4a5.8,5.8,0,0,1,5.5,2.7,9.6,9.6,0,0,1,.8,5.3c-.3,3.1-.6,6.2-1.1,9.3-.9,7-1.7,14.1-4,20.8a4.9,4.9,0,0,0-.4,1.1,1.4,1.4,0,0,0-.2.7v-.3a56.8,56.8,0,0,1-4.2,9,63.3,63.3,0,0,1-8.3,12.1,70.3,70.3,0,0,1-8.1,7.4c-2.6,2.3-5.3,4.4-7.9,6.6l-3.9,3.6c-1.3,1.5-2.6,2.9-4,4.3s-2.7,3.3-4.1,5-2.5,3.4-3.8,5.1l-2.8,4.5c-.9,1.4-1.7,2.9-2.5,4.4s-1.8,4-2.6,6a28.6,28.6,0,0,0-.7,2.8,23.5,23.5,0,0,0-.5,3.7,26.7,26.7,0,0,0,0,4c.2,1.8.5,3.6.7,5.4s.8,3.5,1.3,5.2l1.5,4.9c2.7,7.1,5.8,14.1,8.8,21,1.4,3.2,3,6.3,4.5,9.5l5,10.2h-.1a2.1,2.1,0,0,1,.4.6h-.1c.7,1.3,1.3,2.7,2,4a.8.8,0,0,0-.2-.4c2.8,5.5,5.9,11,7.9,16.9s3.3,11.5,4.6,17.2a149.4,149.4,0,0,1,3.2,17.5c.3,2.6.5,5.2.8,7.9a82.2,82.2,0,0,0,1.3,9.8,47.5,47.5,0,0,0,2,6.4c-.1-.1-.1-.1-.1-.2l1.5,3.7c.4,1,1,2,1.5,3h0c.1.1.1.2.2.4s0-.1-.1-.2l5.2,9.8c1.7,3.3,3.1,6.6,4.5,10,2.8,6.8,5.7,13.7,8.1,20.7,1.5,4.3,2.8,8.7,4.1,13.1a60.1,60.1,0,0,1,1.9,12,5.1,5.1,0,0,1-3.7,5.2h-1.1c-2.1,0-3.9-1.5-5.5-2.9s-2.7-2.6-4-3.9-2.3-2.4-3.3-3.6-2.5-3.1-3.6-4.7c-2.1-3.2-4.2-6.3-6-9.5l-5.6-10-3.1-5.8c-1-1.8-1.8-3.6-2.6-5.4a37.5,37.5,0,0,1-1.9-4.1l-3-7.2c-1.4-3.6-2.5-7.4-3.7-11.1s-2.2-7.3-3.2-11c-1.9-7-3.5-14.1-5.9-21l-1.2-3.6-3.8-8.7c-.1,0-.1,0-.1-.1h0a85.1,85.1,0,0,0-5.4-9.2c-3-4.4-6.1-8.6-9.2-12.9s-5.7-7.7-8.4-11.6l-4.4-6.4c-1.6-2.3-3-4.8-4.5-7.2a77.4,77.4,0,0,1-3.7-7,71.9,71.9,0,0,1-4-10,36.1,36.1,0,0,1-1.5-6.5c-.1-1.2-.4-2.5-.5-3.8v-.3h0a3.8,3.8,0,0,0-.1-1v.3c-.1-1.7-.3-3.4-.3-5.1v-4.3c0-2.1,0-4.1.2-6.2l.3-4.8a4.9,4.9,0,0,1-2.8.4c-1.2-.3-2.2-3-3.3-4.6,1.6-1.6,3.2-4.7,4.7-4.5s1.3.8,2.1,1.8c.1-1.1.3-2.1.4-3.2s.8-4.5,1.2-6.7l.9-3.7c.3-1,.5-2.1.8-3.1a49.3,49.3,0,0,1,2.4-6.4l3.3-6.7Zm-9-181.6c.9-.1,1.8,1.7,3.1,3.2-1.5,1.5-2.7,3.6-3.3,3.3s-1.9-2.6-2.9-4.1C511.8,14,512.8,12.5,513.8,12.5Zm-9.3,134.4c4.6,4.1,8.8,9.2,13.1,13.9l-6.2,5h-.2l-3.8,4.2c-.4-.9-.7-1.8-1-2.7l4.8-1.5v-.2a104.2,104.2,0,0,1-8.2-8.1c-1.5-1.7-2.5-4.4-3.7-6.6C501.1,149.6,503.7,146.2,504.5,146.9Zm-1.6,686.8c3.9.8,7.8,1.6,11.7,2.1s7.9.4,11.9.4,5.4-.3,8.1-.6,5.1-.7,7.6-.8h4.3a23.5,23.5,0,0,1,7.9,1,6.9,6.9,0,0,1,4,2.4,3.4,3.4,0,0,1,.5,3.5c-.6,1.5-2.1,2.2-3.5,2.8a27.5,27.5,0,0,1-3.6,1.5l-5.8,2c-2.2.7-4.4,1.6-6.6,2.5h.2l-.4.2h-.1l-6.4,3.4a27.4,27.4,0,0,1-7.7,2.8,32.9,32.9,0,0,1-4.4.5,27.8,27.8,0,0,1-5.8-.6l-7.6-1.8h-.1a34,34,0,0,0-4.6-.7h-.3s.2,0,.2.1h-2.9l-1.2.3-.7.3-.5.2c-1.5,1.1-2.9,2.3-4.3,3.5l-2.5,1.8-2.8,1.9a9.3,9.3,0,0,1-2.9,1.3,33.1,33.1,0,0,1-5.4.6h-.3a24.5,24.5,0,0,1-3.8-.4c-2-.4-4.1-.9-6.1-1.5a37.1,37.1,0,0,1-6.5-2.7,43.3,43.3,0,0,1-5.1-3.1c-3.2-2.3-6.2-5-9.5-7.3l.3.2-4.8-3-1.3-1-.6-.3-9.5-5.3a14.9,14.9,0,0,1-4-3.1,3.6,3.6,0,0,1-.1-4.2,6.8,6.8,0,0,1,2.3-1.4l2.9-.8a48.2,48.2,0,0,1,7.5-1,37.1,37.1,0,0,1,4.7.3,38.2,38.2,0,0,1,5.9.9l5.3,1.3,5.3,1.6h.1l4.4.7h1.6l1.6-.2h.4l5.4-2.2c4-1.6,8.5-1.7,12.8-1.2a65.6,65.6,0,0,1,8.8,1.9ZM485.5,621.2l.9-.8a22.5,22.5,0,0,1,1.2,2.1c-.3.3-.8.9-.9.8S485.9,621.9,485.5,621.2Zm6.6,54.1c2,4.7,4.3,7.6,4.3,10.4s-2.5,5.6-3.9,8.5c-1.6-3.5-3.8-6.7-4.7-10.5C487.5,682.1,490,679.3,492.1,675.3Zm-8.4-551.6h0l5.7-3.9c0,5.3.2,10.6-.5,15.7-.1.7-5,.1-7.7.1l2.5-11.9ZM464.1,17.1l1.4,1.8c-.3.3-.8.8-1.1.6a12.7,12.7,0,0,1-1.4-1.7Zm-3.9,63c2.2,1.3,4,3.8,7.1,7-3.1,2.6-5.6,5.8-6.4,5.1s-3.2-4.9-4.1-7.9C456.6,83.5,459.5,79.7,460.2,80.1Zm2.6,154.1-2.1,1.6c-.4-1.1-1.1-2.2-.9-3.1s1.2-1,1.9-1.5C462.1,232.2,462.5,233.2,462.8,234.2ZM446.9,572.9a39.3,39.3,0,0,1,2.6,5,87.4,87.4,0,0,1,3.4,9.8c.7,2.1,1.3,4.1,2,6.1a.4.4,0,0,1-.1-.3,33.8,33.8,0,0,0,2.2,5.2l2.4,4.3a33.5,33.5,0,0,1,2.7,4.5c1.6,3,3,6.2,4.4,9.3s2.9,6.5,4.3,9.8,2.6,6.7,3.8,10.2l3.6,9.8a86.7,86.7,0,0,1,3.6,12.3c.2,1,.4,2,.5,3a23.5,23.5,0,0,1,.1,2.6c0,.9-.1,1.8-.1,2.7-.1,3-.7,6.3-2.9,8.5a3.3,3.3,0,0,1-1.9.8h-.3a2.9,2.9,0,0,1-1.7-.6,4.9,4.9,0,0,1-1.7-1.8,11.6,11.6,0,0,1-1.4-2.4c-2.3-4.8-4.3-9.8-6.2-14.8-1-2.9-2-5.8-3.2-8.6s-2.2-5-3.3-7.4l-4.5-8c-1.5-2.7-2.9-5.5-4.3-8.2h0c0-.2-.1-.3-.1-.4s.1.2.1.3c-1.4-2.7-2.5-5.5-3.7-8.3s-2.2-5.5-3.1-8.3l-.3-1-1.4-3.8c-1.2-3.5-2.2-7-3.1-10.5s-1.6-6.8-2.3-10.3l-.6-3.4a36.4,36.4,0,0,1-.4-5.7,10.6,10.6,0,0,1,.5-3.5,5,5,0,0,1,1.7-2.3,3.8,3.8,0,0,1,4.3-.2,9.1,9.1,0,0,1,2.3,2.1A23,23,0,0,1,446.9,572.9Zm-13.5-531,5.3,3c-1.7,2.2-2.5,4.1-3.3,4.1a3.9,3.9,0,0,1-3-2.6C432.1,45.3,433,43.4,433.4,41.9ZM409.6,80.2c.5-.3,1.8,1.9,3.4,3.7-1.6,1.8-2.8,4-4.1,4.3s-2-2.5-3-4C407.1,82.8,408.2,80.9,409.6,80.2ZM406,231.5l7.3,7.6-2.7,4.6c-2-2.7-4.2-5.2-6.1-8.2C404.2,235.1,405.4,232.9,406,231.5ZM398.2,23.7l-1.4.8-.3-1.5ZM384.3,126l.8,1.3h-1.2Zm-8.5,135.4c3.5,1.3,6.9,3.7,12,6.6-3.6,4.8-6.7,9.5-7,9.2-3.2-3.2-5.8-7.2-8.4-11.2C372.3,265.9,375,261.1,375.8,261.4Zm-4.6,83.5c3.4,1.2,6.8,2.6,10.1,4.1s6.8,3.3,10.1,5.2l5.4,3.1,5.2,3.1c3.2,2,6.3,4,9.3,6.1s5.9,3.9,8.7,5.9l9.1,6.6a38.9,38.9,0,0,1,8,7.7h0l.2.2a.1.1,0,0,0,.1.1h-.1l1.5,2a.1.1,0,0,0-.1-.1.1.1,0,0,1,.1.1h0a57.5,57.5,0,0,1,5.2,9.4,27,27,0,0,1,1.6,4.8,11.8,11.8,0,0,1,.3,6.2c-.8,2.5-3,3.6-5.4,4.2l-1.5.2-2.2-.2-3-.5a47.1,47.1,0,0,1-10.5-2.4,54.5,54.5,0,0,1-10-4.9l-6.6-3.8c-2.2-1-4.3-2.1-6.3-3.2l-3.5-2.1c-4.3-2.2-8.7-4.4-12.9-6.8-5.9-3.4-11.5-7.1-17.2-10.6l-3.1-1.7-2.5-1.4c-2.4-1.1-4.8-2.1-7.2-3.3l-11.9-5-.6-.3q-5.2-1.4-10.5-2.4L318.9,363l-22.1-3.9c-3.5-.7-7.1-1.5-10.6-2.4l-11.8-3.4c-6.9-2.1-13.7-4.5-20.5-6.9l-25.1-9.2c-7.8-2.8-15.7-5.7-23.7-8.1q-5.8-1.4-11.7-2.4l-11.8-2.2c-3.8-.7-7.6-1.5-11.3-2.5s-6.2-1.8-9.4-2.4h-1.4a3.1,3.1,0,0,1-1.9-3.9h.1a3.1,3.1,0,0,1,2.3-2.1h3.7c1.4,0,2.8.1,4.2,0h7.6c8.6.1,17.2.6,25.7,1.2s17,1.3,25.5,1.5,15.2-.6,22.8-1.1a59.1,59.1,0,0,1,10.3,0,84.7,84.7,0,0,1,11.2,2c7.1,1.7,14,4.6,20.9,7s14.5,5,21.8,7.4l3.6,1.1c7.1,1.9,14.3,3.7,21.6,5.1s14,2.4,20.9,4.2C363.6,342.6,367.5,343.6,371.2,344.9ZM332.5,46c2.3,2.6,4.5,5.3,7.5,8.9l-6,6.7c-1.7-3.1-4-5.9-5-9.4C328.6,51,331.3,48.1,332.5,46ZM332,185.3l5.8,4.8c-1.7,1.5-3.5,4.4-5.1,4.2s-3.3-3.4-4.9-5.3C329.1,187.8,330.4,186.6,332,185.3ZM305.3,7.6c1.7.5,3.1,2.8,5.9,5.7-3.4,2.1-5.5,4.7-6.9,4.1s-2.1-4.4-3.1-6.7C302.6,9.6,304.1,7.3,305.3,7.6Zm1.3,78.2c.1.3-.2.9-.3,1.4s-.5-1.3-.8-2.2S306.5,85.5,306.6,85.8ZM147.3,130.7a15.6,15.6,0,0,1,1.6-2c1.2-1.6,2.6-3.1,3.8-4.6,2.8-3.2,5.5-6.5,8.4-9.6-.1.1-.2.3-.4.4l2.8-2.9c3-3.3,6.2-6.5,9.2-9.7l-.3.3c1.9-2.1,3.9-4.2,5.8-6.5a41.5,41.5,0,0,0,2.7-3.2c1.1-1.3,2.1-2.7,3.2-4.1s2.7-4.2,4-6.3,2.6-4.4,4-6.6a53.8,53.8,0,0,1,10.7-12.6c3.1-2.6,6.8-4.5,10.3-6.6s4.4-2.4,6.6-3.5l6.3-3.1,4.7-2.4c3.5-2.4,7.1-4.7,10.7-7a62.3,62.3,0,0,1,8-4.4,59.3,59.3,0,0,1,9.3-3,84.1,84.1,0,0,1,12.2-2.1,27.5,27.5,0,0,1,13,1.5c2.1.7,4.4,2.3,4.9,4.6a4.7,4.7,0,0,1-1.3,4.4,6.9,6.9,0,0,1-3.4,1.4q-3.3,1-6.6,2.4a52,52,0,0,0-5.3,2.6h-.1l-4.4,3.3h0a.1.1,0,0,1-.1.1h-.1L265,53.6l-2.7,2.7c-2.1,2.3-4.1,4.7-6.2,7.1s-4.7,5.5-7.3,8.1-2.5,2.6-3.9,3.8l-4.5,3.8-4.6,3.7-3.6,2.9L222,93.1c-3,2.2-6.2,4.1-9.3,6.2-5.6,3.8-11.5,7.3-17.3,10.9,0-.1,0-.1.1-.1l-10.7,7.1-11.5,8.1c-3.6,2.6-7.4,5-11.2,7.3-1.8,1.2-3.6,2.2-5.4,3.3l-2.2,1.1a6.9,6.9,0,0,1-3.6,1.3h-.3a4.6,4.6,0,0,1-4.3-4.7A5.9,5.9,0,0,1,147.3,130.7ZM280.9,190a7.2,7.2,0,0,1,0,1.5,2.9,2.9,0,0,1-1.3.1V190ZM258.7,85.7l-5.3,4.1c-.6-2.1-1.7-4.1-1.7-6.1s2.1-3.6,2.6-3.3S256.6,83.1,258.7,85.7ZM151.2,157l-.7,1.1-1.8-3.4-.3-.3h.1l.2.4Zm-36,29.2a5.5,5.5,0,0,1,4.4-1.7c3.2.1,4.9,2.9,5.5,5.6a15.5,15.5,0,0,1,.4,2.1c0,.1,0,.1.1.2a24.9,24.9,0,0,0,1.9,3l2.5,3-.2-.3.3.4h0l4.7,4.1,6.5,5c2.2,1.6,4.3,3.4,6.4,5.2a66.7,66.7,0,0,1,5.9,6l2.6,3a58.1,58.1,0,0,0,3.8,4.6c1.6,1.6,3.2,3.1,4.9,4.5h.1l.2.2h-.1l3.8,2.8a46.6,46.6,0,0,0,5,2.5l-.3-.2.8.4h.1l.3.2h0l1.6.7h-.2l2.3,1h-.2c2.2.9,4.4,1.6,6.7,2.3l5.6,1.3,8.3,1.3h.1c3.2.4,6.4.7,9.7,1.3l11.5,2,9,2,10,2.1c7.1,1.5,14,3.2,21,5.3a42.8,42.8,0,0,1,4.6,1.7l5.1,2.4c2.9,1.5,5.7,3,8.7,4.3a89.5,89.5,0,0,0,10.3,3.6l11.1,3.2,11,2.9c3.7,1.1,7.5,2.1,11.2,3.4,1.3.5,2.5,1.2,3.8,1.8,2.1-1.1,4.4-3.2,6.5-2.8s4.3,3.3,8.8,7l-5.1.9,5.2,3.1,4.3,3.1a61.4,61.4,0,0,1,4.5,4.3,27.9,27.9,0,0,1,5.3,9.5,51.8,51.8,0,0,1,1.4,5.3,5.5,5.5,0,0,1-.7,4.2c-1.2,1.7-3,2.2-4.8,2.5h-.6a19,19,0,0,1-2.5-.3,16.5,16.5,0,0,1-3.2-.7l-6.7-2.3-6.9-2.7h-.7a4,4,0,0,1-2.7-1.4l-2-.8c-6.9-2.7-13.7-5.5-20.5-8.4l1.3,1.2c-.5.8-.9,2.2-1.4,2.2s-1.3-1-1.9-1.5l1.2-2.2-1.4-.6c-7.7-2.9-15.4-5.5-23.3-8l.6.2-4.4-1.2-4.9-1c-2.7-.6-5.6-1-8.4-1.4h.3c-7.6-.9-15.3-1.4-22.9-2.2a161.6,161.6,0,0,1-21.7-3.8c-3.7-.9-7.4-1.9-11-3s-6.8-2-10-3.2-7.1-2.9-10.6-4.6l-9.9-5.1-7.6-3.7c-3.1-1.4-6.2-2.9-9.2-4.5s-5.5-3.2-8.2-5-5.4-4-8-6a109.2,109.2,0,0,1-13.7-13.5,37.4,37.4,0,0,1-5.1-7.6,38.3,38.3,0,0,1-2.4-5.9c-.6-1.5-1-3.1-1.6-4.7s-1-2.9-1.5-4.3c0,.2.1.3.2.5-1.3-3-2.7-6-3.7-9.1s-1.2-5.4-1.8-8l-.6-2.1h0a1.9,1.9,0,0,0-.2-.7A5.8,5.8,0,0,1,115.2,186.2Zm33.3,75.7c.2.3,0,.9-.1,1.4l-1.4-1,.6-1.1C147.9,261.4,148.4,261.6,148.5,261.9ZM83.6,281a3.9,3.9,0,0,1,1.8.4l2,.9a7.1,7.1,0,0,1,1.8,1.2,21.1,21.1,0,0,1,1.9,2.3,30.4,30.4,0,0,1,2.5,4.7c.6,1.1,1,2.2,1.5,3.3,2,4.2,3.8,8.5,5.9,12.8s4.6,8.2,7,12.3,4.9,8.6,7.6,12.7a97.1,97.1,0,0,0,7.3,9.6h-.1l3.4,3.8,3.4,3.9a69.5,69.5,0,0,1,4.6,6.1,55.7,55.7,0,0,1,5.5,10.2l2.1,6c.6,2.3,1.1,4.6,1.5,6.8.9,4.7,1.1,9.4,1.8,14.1.2,1.8.5,3.6.7,5.4a41,41,0,0,0,1,4.8h-.1l1.2,4.9,1.5,5.1c1,3.7,1.8,7.4,2.6,11.2s1.7,7.5,2.3,11.3c.2,2,.5,3.8.7,5.8s.3,4.2.4,6.4a82.5,82.5,0,0,1-.5,11.1,31,31,0,0,1-1.1,5.1,54.4,54.4,0,0,1-1.5,5.4l-1.5,3.9a20,20,0,0,1-1,2.6,16,16,0,0,1-1,2.3l.3.3-1.2,2.5-.2-.2-.2.4c-.6,1.4-1.1,2.8-1.8,4.2l-2.5,5.1A56.6,56.6,0,0,1,138,499c-.8,1-1.6,2.1-2.4,3a8.3,8.3,0,0,1-2.9,2.4,7.9,7.9,0,0,1-2.9.8,3.4,3.4,0,0,1-3.5-3,17.9,17.9,0,0,1,.2-2.3c.2-1.3.3-2.6.4-4a.8.8,0,0,1,.1-.4h0q.1-3.5,0-6.9c-.1-3.5-.1-7,0-10.4a106.3,106.3,0,0,1,2.3-21c0,.2-.1.3-.1.5.5-2.4.9-4.7,1.4-7.1a.6.6,0,0,0,.1-.4,225.6,225.6,0,0,0-3.4-23.1c-.8-4.5-1.5-9.1-2.5-13.6.1.2.1.4.2.6l-.6-2.8a1.3,1.3,0,0,1,.1.6c-.4-2.1-.8-4.3-1.3-6.5a1.3,1.3,0,0,1,.1.6,5,5,0,0,0-.2-1.2v.3c0-.3-.1-.6-.1-1h0a92.2,92.2,0,0,0-2.9-11.5.3.3,0,0,1,.1.2c0-.1-.1-.2-.1-.3h0c-1.2-3-2.4-6.1-3.9-9h.1a80.2,80.2,0,0,0-4.1-7c-1.8-2.6-3.8-5.1-5.8-7.5s-4.3-5.1-6.3-7.9a48.9,48.9,0,0,1-4.2-6.9,49.9,49.9,0,0,1-2.8-7.3c-.7-2.3-1.3-4.6-1.9-6.9-2.1-8.6-4-17.2-5.7-25.9h0c-.8-3.7-1.4-7.4-2.1-11.1-.5-2.2-1-4.5-1.6-6.7a22.2,22.2,0,0,0-1-3.1,34.3,34.3,0,0,1-.9-4.4c-.2-1-.3-2.1-.4-3a7,7,0,0,1-.1-2.5,2.4,2.4,0,0,1,1.2-2A6,6,0,0,1,83.6,281ZM72.9,192.4c.3.7.5,1.4.9,2.3s-1.1-.5-1.2-.9S72.8,192.9,72.9,192.4Zm2.4,74.8c1.5-.2,3.2,1.3,4.8,2.1l-1.8,4.2c-1.5.6-2.9,1.8-4.3,1.6s-2.3-3.2-2.1-3.7S74,267.5,75.3,267.2ZM48.6,227.5c.4.9.9,1.7,1.3,2.6l-1.7,1.8c-.5-.9-1.2-1.7-1.2-2.6S48,228.1,48.6,227.5ZM18.8,338.3c.1-1.2.3-2.5.4-3.7l.2-2,.3-1.4.3-1.9a10.6,10.6,0,0,1,.5-2.3l.2-.9a66.1,66.1,0,0,1,2.2-7.6c.7-1.8,1.5-3.5,2.4-5.3a11.5,11.5,0,0,1,3.2-4.1,5.9,5.9,0,0,1,3.7-1.4h.7a5.2,5.2,0,0,1,3,1.6,5.5,5.5,0,0,1,1.6,3.8c0,1.1,0,2.2-.1,3.3v1.7c0,2.1-.1,4.4-.2,6.6s-.1,5.5-.2,8.3,0,3.8.1,5.7v1.1c.1,1.5.2,3.7.3,5.8.5,6.1,1.4,13.1,2.7,21.5l1,6.1.9,6c.5,3.3.9,6.6,1.3,9.8l.3,2.2c.3,2.5.6,5,.8,7.5l.3,3.7c.2,2.5.3,4.9.4,7.4v10.5c0,1.3.1,2.6,0,3.8s-.2,5.2-.3,7.8V439c-.2,2.3-.4,5-.6,7.6,0,.8-.1,1.4-.1,1.9s-.3,3.2-.5,5.1l-.3,3.2-.2,2c-.1,1.4-.2,2.7-.4,4.1V464l-.2,1.2v.9a15.5,15.5,0,0,1-.4,2.1l-.3.7-.3.8a2.1,2.1,0,0,1-.7,1.1,3.3,3.3,0,0,1-2.9,1.7,3.8,3.8,0,0,1-3.2-1.8,10.9,10.9,0,0,1-1.1-5.1V465c0-.1,0-.1-.1-.1h0l-.4-5.3-.3-6.8-.3-6.8v-1c-.1-1.7-.1-3.5-.3-5.2s-.6-4.9-1-7.3-1.1-4.8-1.8-7.2-1.7-4.6-2.6-6.9l-1.6-3.7L23.1,411l-.9-2.3-.4-1.1a38.6,38.6,0,0,1-2.3-10.1c-.2-2.3-.3-4.8-.4-7.2v-3.5c0-1.8,0-3.1.1-4.3v-3.8c0-1.5,0-3,.1-4.5s.3-5.5.5-8.3l-.6-4.6c-.4-4-.5-7.9-.6-12S18.6,342,18.8,338.3Zm-.3,105.4c.7.4,1.7.6,2.1,1.4s-.5,1.9-.7,2.8-1.8-.6-2.1-1.4S18.2,444.7,18.5,443.7Z"/><path class="ea485fbd-034f-4c81-a4e8-795ea3f4fdb0" d="M247.7,1193.1h0Z"/><path class="ea485fbd-034f-4c81-a4e8-795ea3f4fdb0" d="M512,899.7a.1.1,0,0,0-.1-.1l-.3-.5Z"/><path class="ea485fbd-034f-4c81-a4e8-795ea3f4fdb0" d="M793.4,270.1l-.4.2a80.6,80.6,0,0,1,4.3,8.1C796.1,275.6,794.8,272.8,793.4,270.1Z"/><path class="ea485fbd-034f-4c81-a4e8-795ea3f4fdb0" d="M117.8,795.4h-.3l-.6-.3Z"/><path class="ea485fbd-034f-4c81-a4e8-795ea3f4fdb0" d="M543.5,922.4c-1.1,2.5-2.2,5-3.2,7.7s-1.6,5-2.3,7.6-.5,2.7-.7,4.1-.4,2.3-.5,3.5-.4,3.3-.5,4.9a36.9,36.9,0,0,0,.6,9.4,25.2,25.2,0,0,0,2.6,7.1,14.1,14.1,0,0,0,5,5.3,26.5,26.5,0,0,0,8.4,3.4,35.6,35.6,0,0,0,8.6,1.1h1.3a46.7,46.7,0,0,0,12.8-2.4,20.7,20.7,0,0,0,6.4-2.9,18.5,18.5,0,0,0,3.6-3.8,16.8,16.8,0,0,0,2.4-4.6,25.3,25.3,0,0,0,1.2-5.6,32.5,32.5,0,0,0,.1-5.4c-.5-5.8-2.4-11.3-4.5-16.6s-2.9-7.5-4.4-11.2a49.7,49.7,0,0,0-4.4-8.6,26.3,26.3,0,0,0-6.5-6.8,21.1,21.1,0,0,0-3.1-2.1,16.1,16.1,0,0,0-2.9-.9l-3.1-.4a6.2,6.2,0,0,0-2.7.1,17.1,17.1,0,0,0-7.3,4.1,23.1,23.1,0,0,0-2.4,2.9,30.7,30.7,0,0,0-1.7,3.1,27.4,27.4,0,0,0-1.5,4Zm5.4,20.9c0-.9-.1-1.8-.1-2.7a29.5,29.5,0,0,1,.1-4.2c0-1.4.1-2.7.2-4v.2a49.1,49.1,0,0,1,.6-6.5h0v-.1a18.6,18.6,0,0,1,2.4-5.4c0-.1,0-.2.1-.2h0c.3-.5.3-1.1.7-1.5l1-1a4.1,4.1,0,0,1,1.7-1.2,2.6,2.6,0,0,1,2.8.8c1.3,1.4,1.4,3.6,1.4,5.4s0,5.8.2,8.8h0a100.3,100.3,0,0,0,1.5,11h-.1c.2.9.5,1.7.7,2.6l.6,1.2h-.1a.1.1,0,0,1,.1.1h0a17.6,17.6,0,0,0,1.4,2.3h0a30.1,30.1,0,0,0,2.2,2.8,18,18,0,0,0,2,1.9h-.1a.1.1,0,0,1,.1.1h.1a35.5,35.5,0,0,0,3.1,2.3h-.2l1.1.7,1.2.6.8.2a3.2,3.2,0,0,1,2.2,1,2.1,2.1,0,0,1,0,2.4,5,5,0,0,1-2,1.8,6.1,6.1,0,0,1-1.8.9.1.1,0,0,0,.1-.1h-.1l-1.3.4c-.6.3-1,.9-1.7,1h-1.7l-2.5.5H563a23.3,23.3,0,0,1-5.2-1.3l-2.5-1.2-1.6-1a11.2,11.2,0,0,1-1.6-1.3l-.5-.6a10.3,10.3,0,0,1-1.9-4.1c-.3-1.1-.5-2.3-.7-3.5a26.8,26.8,0,0,1-.2-4,26.1,26.1,0,0,1,.2-4A3.4,3.4,0,0,0,548.9,943.3Z"/><path class="ea485fbd-034f-4c81-a4e8-795ea3f4fdb0" d="M225.6,870.4h0Z"/><path class="ea485fbd-034f-4c81-a4e8-795ea3f4fdb0" d="M546.3,915.5h0c0-.1,0-.1.1-.2A.4.4,0,0,0,546.3,915.5Z"/><path class="ea485fbd-034f-4c81-a4e8-795ea3f4fdb0" d="M533.6,1020.5c0,1.5-.1,3.1,0,4.7s.2,3.9.4,5.8.4,2.6.5,3.9v3.1c.1,3.6.1,7.3.4,11s.7,10.7,4,14.9a12.1,12.1,0,0,0,4,3.8,18.2,18.2,0,0,0,4.5,2,22.5,22.5,0,0,0,5.8.7,30.4,30.4,0,0,0,5.1-.5,35.6,35.6,0,0,0,4.7-1,30.5,30.5,0,0,0,5.3-2,27,27,0,0,0,9.3-7.8,54.5,54.5,0,0,0,6.9-12.5,41.1,41.1,0,0,0,2.2-9.2c.8-5.4,2-11,.4-16.3a34.2,34.2,0,0,0-4.6-8.9,18.4,18.4,0,0,0-6.3-5.1c-3.1-1.6-6.3-3.2-9.4-5a82.5,82.5,0,0,0-9.3-4.9,45.6,45.6,0,0,0-5.2-1.8l-4.8-1c-2.2-.4-4.7-.4-6.6.9a13.8,13.8,0,0,0-3,2.9c-3.5,4.8-3.6,10.9-4,16.6C533.7,1016.6,533.7,1018.6,533.6,1020.5Zm9.3-1.7a19.9,19.9,0,0,1,1.1-5.9c.3-.9.7-1.7,1.1-2.6a8.3,8.3,0,0,1,.7-1.3l1.9-1.8a6.8,6.8,0,0,1,3.9-1.6,15.4,15.4,0,0,1,3,.4,57.2,57.2,0,0,1,7.2,1.4,21.2,21.2,0,0,1,4.5,2.3h0l.3.2a11.8,11.8,0,0,0,1.9,1.1,22.6,22.6,0,0,1,2.6,1.6,3.8,3.8,0,0,1,1.3,2.4,4,4,0,0,1-2.6,4.2,16.5,16.5,0,0,1-3.2.6,27.1,27.1,0,0,1-4.1.4,13.5,13.5,0,0,1-3.5-.2c0,.1,0,.1.1.1h-.7a.1.1,0,0,0,.1-.1.1.1,0,0,1-.1.1H558l-.3.2h-.2l-.4.4-.6.8a.3.3,0,0,1,.1-.2l-.2.3-.2.5a5,5,0,0,0-.3,1.3c-.2,1.1-.3,2.3-.4,3.4v-.3c0,1.4-.1,2.8,0,4.2s.1,2.5.1,3.8-.2,5.1-.4,7.6a26.1,26.1,0,0,1-.8,5.6,8.3,8.3,0,0,1-1.3,3.2,3.3,3.3,0,0,1-2.3,2h-2.1a4.2,4.2,0,0,1-1.6-.9,11.4,11.4,0,0,1-3.1-4.7c-.3-1.1-.4-2.1-.6-3.2s-.1-1.8-.2-2.7,0-2.1-.1-3.2v-.5h0c-.1-2.2-.2-4.5-.2-6.8s-.2-4.5-.2-6.8S542.8,1020.6,542.9,1018.8Z"/><path class="ea485fbd-034f-4c81-a4e8-795ea3f4fdb0" d="M484,999.5a13.8,13.8,0,0,0-2.6,2.2,11.1,11.1,0,0,0-2.2,3.8,28.8,28.8,0,0,0-1.4,7.1c-.1,1.2-.1,2.4-.1,3.6a27.2,27.2,0,0,0,.1,2.8c.4,2,.8,4.1,1.4,6.1s1.3,4,2.1,6l2.1,4.9.6,1.6c1.2,5.9,2.1,11.7,3.1,17.5.7,3.6,1.1,7.2,1.6,10.8s.9,5.3,2.6,7.1a6.2,6.2,0,0,0,2.1,1.5,5.2,5.2,0,0,0,2.1.4h1.9a6.8,6.8,0,0,0,2.5-.9,18.2,18.2,0,0,0,2.3-1.5,20.5,20.5,0,0,0,3.8-3.4,29.2,29.2,0,0,0,3.2-4.4,41.6,41.6,0,0,0,2.3-4.2c.7-1.8,1.5-3.7,2.1-5.6l1.8-5.5c.3-1,.6-2.1.8-3.1a16,16,0,0,0,.5-2.1,45.9,45.9,0,0,0,1-5.1,81.1,81.1,0,0,0,.6-11c.1-3.7.1-7.3.1-11-.1-.8-.1-1.7-.2-2.5s-.1-1-.2-1.4a8.3,8.3,0,0,0-.9-1.6c-.8-1.3-1.7-2.5-2.6-3.8s.2.1.2.2a25.9,25.9,0,0,0-3.2-4.2,31.6,31.6,0,0,0-4.5-3.7,20.2,20.2,0,0,0-3.2-1.8,21.6,21.6,0,0,0-8.7-1.5,38.5,38.5,0,0,0-4.9.7,22.3,22.3,0,0,0-4.6,1.3A8,8,0,0,0,484,999.5Zm28.8,15.7.4,1.1h-.8Zm-12.9,48.2c.2-.7.4-1.4.6-2.4.2.8.4,1.3.5,1.8Zm-6.9-55.3a4.1,4.1,0,0,1,1.7-1.2,16.5,16.5,0,0,1,2.1-.2h1.5a9.4,9.4,0,0,1,4,1.3,12.1,12.1,0,0,1,4.4,4,23.3,23.3,0,0,1,3.4,6.2,17.4,17.4,0,0,1,.9,6.4l-.6,7.2v-.3c0,.6-.1,1.1-.1,1.7h0v.8h0a77.2,77.2,0,0,1-1.2,8.4c-.3,1.5-.6,3-1,4.5l-.6,2.2a2.4,2.4,0,0,1-.7,1.6l-.4,1a2.5,2.5,0,0,1-1.5,1.5h-.5a2,2,0,0,1-1.4-.6c-1.7-1.7-1.2-4.2-.9-6.4,0-.5-.1-1.1-.1-1.6s-.1-2.5-.1-3.8v-.3c-.2-2.1-.5-4.1-.8-6.2s-.4-3.6-.7-5.4h0c-.4-1.8-.9-3.6-1.4-5.3h0a46.7,46.7,0,0,0-2.4-6.2,33.5,33.5,0,0,0-2.1-3.6h0a12,12,0,0,1-2-3.9A3,3,0,0,1,493,1008.1Z"/><path class="ea485fbd-034f-4c81-a4e8-795ea3f4fdb0" d="M574.7,895.2l-.3-.3h0Z"/><path class="ea485fbd-034f-4c81-a4e8-795ea3f4fdb0" d="M570.2,888.1c0-.1-.1-.2-.1-.3h0C570.1,887.9,570.2,888,570.2,888.1Z"/><path class="ea485fbd-034f-4c81-a4e8-795ea3f4fdb0" d="M576.9,896.9h0Z"/><path class="ea485fbd-034f-4c81-a4e8-795ea3f4fdb0" d="M680.7,399.2h-.1C680.6,399.1,680.7,399.1,680.7,399.2Z"/><path class="ea485fbd-034f-4c81-a4e8-795ea3f4fdb0" d="M680.9,399.3a.2.2,0,0,0,.2.2l-.4-.3Z"/><path class="ea485fbd-034f-4c81-a4e8-795ea3f4fdb0" d="M386.8,891h0Z"/><path class="ea485fbd-034f-4c81-a4e8-795ea3f4fdb0" d="M570,887.7h0Z"/><path class="ea485fbd-034f-4c81-a4e8-795ea3f4fdb0" d="M346.4,894.6v.2l-.2.3Z"/><path class="ea485fbd-034f-4c81-a4e8-795ea3f4fdb0" d="M517.8,904.7h-.1A.1.1,0,0,1,517.8,904.7Z"/><path class="ea485fbd-034f-4c81-a4e8-795ea3f4fdb0" d="M232.5,871.4h0Z"/><path class="ea485fbd-034f-4c81-a4e8-795ea3f4fdb0" d="M604.9,871.4h0a.4.4,0,0,1-.1.3C604.8,871.6,604.9,871.5,604.9,871.4Z"/><path class="ea485fbd-034f-4c81-a4e8-795ea3f4fdb0" d="M489.8,997.4h0Z"/><path class="ea485fbd-034f-4c81-a4e8-795ea3f4fdb0" d="M357,978c3.1,2.5,7.4,3.4,11.3,3.6H370a40,40,0,0,0,12.8-2.2c3.8-1.3,7.6-2.9,10.4-5.9s3.7-6.6,3.8-10.2a35.5,35.5,0,0,0-1.5-11.3q-1.7-6.1-3.6-12c-2.4-6.7-5.1-13.3-7.6-20.1-.5-1.6-1.1-3.2-1.6-4.9a46.6,46.6,0,0,0-1.6-4.9,18.2,18.2,0,0,0-2.4-4.3,8.6,8.6,0,0,0-2.6-2,8.4,8.4,0,0,0-3.8-.8,10.3,10.3,0,0,0-4.5,1.1,12.9,12.9,0,0,0-4.2,3.5l-1.3,1.6a6.2,6.2,0,0,0-3.8,3.6,66.9,66.9,0,0,0-3.5,10.7c-1,3.6-1.6,7.4-2.4,11.1a96.6,96.6,0,0,0-1.4,10.8c-.3,3.5-.5,7.1-.5,10.6s0,4.2.2,6.3a59,59,0,0,0,1.5,7.3C353.2,972.7,354.4,976,357,978Zm1.8-35.1c.3-2.3.5-4.6.8-6.9h0v-.2h0v-.2h0a79.5,79.5,0,0,1,2.2-10.8c.1-.9.3-1.7.4-2.6s.5-2.1.7-3.1a27.6,27.6,0,0,1,.8-2.7,13.8,13.8,0,0,1,1.7-2.9c1.2-1.2,2.9-2.5,4.6-1.8a4.1,4.1,0,0,1,2.3,3.1,9.2,9.2,0,0,1,.1,3.3V921c0,1.2,0,2.3.1,3.5s.2,3.1.2,4.7-.2,5.4-.2,8.1.2,6.4.4,9.6,0,6.7.4,10c.2,1.4.5,2.6.8,3.9s-.1-.2-.1-.3a29.9,29.9,0,0,1,.9,3.2c.5,1.9,1.1,4.1.1,6a5,5,0,0,1-4.3,2.5h-.8c-1.9-.3-3.1-1.8-4.2-3.3l-2.6-3.7a21.7,21.7,0,0,1-2.6-5.3,32.7,32.7,0,0,1-1.3-5.4,36.8,36.8,0,0,1-.8-5.8A21.9,21.9,0,0,1,358.8,942.9Z"/><path class="ea485fbd-034f-4c81-a4e8-795ea3f4fdb0" d="M407.6,953.8a56.1,56.1,0,0,0,.2,7.1,45.7,45.7,0,0,0,1,7.3,32.6,32.6,0,0,0,2.2,6.9,14.9,14.9,0,0,0,3.4,4.9,13.9,13.9,0,0,0,5.2,3.1,37,37,0,0,0,8.7,1.6l7.3.2h3.5c2-.1,4.1-.1,6.1-.4a19.9,19.9,0,0,0,7.7-2,16.9,16.9,0,0,0,6.6-6.9,27.8,27.8,0,0,0,1.9-4.4,42.5,42.5,0,0,0,1.5-5.9,49.1,49.1,0,0,0-.5-17.6,64,64,0,0,0-3.6-10.4c-1.3-3.3-2.8-6.6-4.2-9.9s-2.6-6.5-3.8-9.8a49.1,49.1,0,0,1-1.5-5.1v-.1c-.4-2.3-.6-4.6-.9-6.8a35,35,0,0,0-1.5-6.4,11.5,11.5,0,0,0-4-5.7l-2-1.4a15.7,15.7,0,0,0-4.2-1.3l-2.6-.4a15.1,15.1,0,0,0-3,.2l-1.7.5h-.3a6.5,6.5,0,0,0-4.2,1.6l-1.6,1.5a16.7,16.7,0,0,0-2.1,3.3,17.6,17.6,0,0,0-1.5,4.4c0,.1-.1.2-.1.3a108,108,0,0,0-5,13.4c-1.8,5.9-3.3,11.8-4.6,17.8.1,0,.1-.1.1-.2a99.9,99.9,0,0,0-1.9,13.2Zm9.8-10.1.3-4.8v.4c.1-1.7.2-3.5.4-5.2s.3-2,.4-3a7.8,7.8,0,0,1,.2-1.4,54.6,54.6,0,0,1,.2-7,29.7,29.7,0,0,1,.6-4.3,25.4,25.4,0,0,1,1-3.7,21.1,21.1,0,0,1,1.6-3.4,8.5,8.5,0,0,1,2.4-2.6l1.2-.5a5.2,5.2,0,0,1,1.8-.3,3.6,3.6,0,0,1,2.6,1.2,9,9,0,0,1,2.3,5.6,47.4,47.4,0,0,1-.5,8.4c.1-.1.1-.1.1-.2a60.9,60.9,0,0,0-.1,7.4h0v.2h0q.6,5.4,1.5,10.8h0a20,20,0,0,0,.5,2.6l.6,2h0a101.5,101.5,0,0,0,3.9,9.9,85.3,85.3,0,0,1,3.6,8.8h0v.2a2.9,2.9,0,0,1,.9,1.6h-.1a2.2,2.2,0,0,1-1,2.2,4,4,0,0,1-1.5.3h-.7l-4.1-.5-2-.2-3.3-.7a9.2,9.2,0,0,1-3.3-1.6,16.4,16.4,0,0,1-3.3-2.6,17.1,17.1,0,0,1-2.1-2.6,13.2,13.2,0,0,1-1.2-2,4.2,4.2,0,0,0-.4-1,49.8,49.8,0,0,1-1.9-6.6,18.2,18.2,0,0,1-.6-4.6A20.9,20.9,0,0,1,417.4,943.7Z"/><path class="ea485fbd-034f-4c81-a4e8-795ea3f4fdb0" d="M477.8,939.2a45.4,45.4,0,0,0,.9,5.1c0,2.7,0,5.3.2,8s.3,3.7.4,5.6v-.5c.1,1.2.2,2.5.2,3.7s.1,2.3.3,3.4a29.4,29.4,0,0,0,1.9,6.6,13.1,13.1,0,0,0,8.7,7.5,17.6,17.6,0,0,0,5.5.9l2.7-.2a18.7,18.7,0,0,0,6.9-1.9,16.4,16.4,0,0,0,5.5-4.3,21.5,21.5,0,0,0,3.3-6.8,41.4,41.4,0,0,0,.9-17.5,54.8,54.8,0,0,0-3.5-12.6c-1-2.4-2.2-4.7-3.3-7-1.9-4.1-3.9-8.3-5.9-12.4-.9-2.1-1.9-4.1-3-6.1a24,24,0,0,0-2.3-3.8c-1.3-1.7-2.9-3.1-5-3.3a11.3,11.3,0,0,0-5.2.3,9.1,9.1,0,0,0-3.7,3.3c-2.6,3.8-3.5,8.4-4.3,12.9q-.6,3.1-.9,6.3a19.4,19.4,0,0,1-.2,2.4,1.1,1.1,0,0,0,.1-.5l-.3,5.5A48.7,48.7,0,0,0,477.8,939.2Zm15.9-21.1c1.4-.6,2.9.5,3.8,1.4a25.7,25.7,0,0,1,2.8,3.7l2.7,3.7a21.4,21.4,0,0,1,3.5,7.5c.1.5.3.9.4,1.5h0c0,.3.1.6.1.9v-.2l.4,1.3h0c.4,1.2.9,2.5,1.2,3.8a32.7,32.7,0,0,1,.8,7,44.2,44.2,0,0,1-.1,6.3,22.6,22.6,0,0,1-2.4,7.2c0,.1,0,.1-.1.2a3.5,3.5,0,0,1-1.2,1.7h0a4.7,4.7,0,0,1-.9.6H504c-.2.2-.2.4-.4.6a2.3,2.3,0,0,1-1.7.7,3.4,3.4,0,0,1-1.7-.5A3.9,3.9,0,0,1,499,964a11.5,11.5,0,0,1-.6-1.7l-.3-2.5c0-.2-.1-.5-.1-.7s-.1-.1-.2-.2-.3-1.8-.5-2.7-.3-1.5-.4-2.3-.6-4.3-.9-6.5-.5-1.7-.6-2.5c-.5-2.5-.8-4.9-1.1-7.4s-.3-2.8-.5-4.1-.5-2.3-.6-3.5.1-.7.1-1.1l-.3-2.5v.2c-.1-.3-.1-.7-.2-1v.2a19.7,19.7,0,0,1-.3-2.4c0-.1.1-.1.1-.2l-.3-1.4C492.2,920.3,492.3,918.7,493.7,918.1Z"/><path class="ea485fbd-034f-4c81-a4e8-795ea3f4fdb0" d="M478.1,926.6v0Z"/><path class="a789dc1d-34b0-401b-b168-d208faff05f1" d="M416.3,1068.4l2.3,2.5a54.6,54.6,0,0,0,4.5,3.9c1.2,1,2.4,2,3.7,2.9a20.1,20.1,0,0,0,10.1,3.2h.5a11.8,11.8,0,0,0,7.4-2.5,27.4,27.4,0,0,0,5.1-5.1l2.2-3.2a86.9,86.9,0,0,0,4.6-7.7c.8-1.6,1.6-3.2,2.3-4.8s1.3-3.2,1.9-4.8a74,74,0,0,0,2.6-10.3,52.1,52.1,0,0,0,.8-5.5,39.1,39.1,0,0,0,.5-4.8,61.4,61.4,0,0,0,.3-10.5l-.3-5c-.2-2.8-1.8-5.3-3.4-7.4a10.7,10.7,0,0,0-3-3,13.9,13.9,0,0,0-2.8-1.2l-4.6-1c-3.2-.8-6.3-1.9-9.5-2.7s-3.8-1-5.8-1.5a46.7,46.7,0,0,0-5.2-.8l-3.1-.4-2.6-.2a10.2,10.2,0,0,0-3.5,1.1,8.6,8.6,0,0,0-2.9,3.1,22.2,22.2,0,0,0-3.8,11.6,24.5,24.5,0,0,0-.2,2.7l-.6,3a104.6,104.6,0,0,0-1.2,11.1c-.3,3.7-.7,7.4-1,11.1s-.9,7.1-.7,10.6a48.7,48.7,0,0,0,.6,5.5,27.4,27.4,0,0,0,2.1,6.3A20.2,20.2,0,0,0,416.3,1068.4Zm3.2-35.9c-.1-2.5.1-5,.2-7.4s.1-3.1.3-4.6.2-2.6.4-3.9v-1.9a17.1,17.1,0,0,1,.9-4.5,4.7,4.7,0,0,1,.5-1c.1-.3.1-.6.2-.8a7.2,7.2,0,0,1,1.8-3.2,2.4,2.4,0,0,1,2.7-.4h0a4.3,4.3,0,0,1,2.1,2.1,25.5,25.5,0,0,1,1.3,2.9c.1.2.4.3.5.6s0,.9.1,1.4l.6,2.1.6,3.5a40.1,40.1,0,0,1,.5,6.9,18.2,18.2,0,0,1-.3,3.2c-.1,1-.2,2.1-.4,3.1s-.3,1.3-.4,1.9h0v.3c0,.6.1,1.2.1,1.8s.3,2.4.4,3.7l.3,5.3c.1,2.4.3,4.8.5,7.3a14.1,14.1,0,0,0,.1,2l.3,1.2,1.6,4.9c-.1-.1-.1-.1-.1-.2a29.7,29.7,0,0,1,.9,5.2,7.5,7.5,0,0,1-.2,2.1,2.1,2.1,0,0,1-1.4,1.5h-.8a3.9,3.9,0,0,1-2.3-.9l-1.7-1.3a7.2,7.2,0,0,1-1.9-2c-.7-1-1.5-2-2.1-3s-.5-1.3-.8-2-1.5-2-2.1-3.1a24.8,24.8,0,0,1-1.7-4.8,24.2,24.2,0,0,1-.7-4.7c-.1-2.1-.1-4.2-.1-6.3s.1-3.3.2-4.9A16.2,16.2,0,0,0,419.5,1032.5Z"/><path class="ea485fbd-034f-4c81-a4e8-795ea3f4fdb0" d="M411.6,1058.6a.4.4,0,0,0-.1-.3.4.4,0,0,0-.1-.3C411.5,1058.2,411.5,1058.4,411.6,1058.6Z"/><path class="ea485fbd-034f-4c81-a4e8-795ea3f4fdb0" d="M309,895.2a10.6,10.6,0,0,0-5,2.7,20,20,0,0,0-5.9,9l-.9,2.1c-1.4,3.6-2.8,7.3-4.1,11a110.2,110.2,0,0,0-4.6,21.4,54.9,54.9,0,0,0-.2,14.6,26.9,26.9,0,0,0,1.9,7.4,17.8,17.8,0,0,0,4.1,6,19.8,19.8,0,0,0,10.2,5.1,36.8,36.8,0,0,0,6.6.6,59.9,59.9,0,0,0,7.3-.6l6.5-1.1,3.3-.7a12.1,12.1,0,0,0,4.3-1.4c1.6-1,3.4-2.1,4.3-3.7a13.8,13.8,0,0,0,1.3-3.9,20.1,20.1,0,0,0,.1-2.4v-2.1c-.1-1.1-.1-2.2-.2-3.2a45.3,45.3,0,0,0-.5-5.3c-.3-1.8-.5-3.5-.9-5.3h0c-.9-4.8-2-9.5-3.2-14.2s-2.3-9.5-3.9-14.1a52.5,52.5,0,0,0-2.8-5.9,31.7,31.7,0,0,0-3.6-5.4c-1.2-1.4-2.4-2.8-3.5-4.3a34,34,0,0,0-2.3-3h0a10.6,10.6,0,0,0-3.5-2.8A9.8,9.8,0,0,0,309,895.2Zm8.9,57.6c1,1.2,2.1,2.4,3.2,3.5l2.1,2.1,1.1,1.2a4.8,4.8,0,0,1,.8,1.6,9,9,0,0,1,.3,1.6,3.2,3.2,0,0,1-.3,1.4,2.8,2.8,0,0,1-1.4,1.2h0a7.6,7.6,0,0,1-3.4.6h-.9a11,11,0,0,1-3.1-.4l-2.7-.8a13.9,13.9,0,0,1-3.5-1.6,32.5,32.5,0,0,1-6.1-6.2,24.8,24.8,0,0,1-3.9-8,26.2,26.2,0,0,1-.9-3.8l-.3-2.3a9.9,9.9,0,0,1-.3-2.4c-.1-1.4-.3-2.8-.3-4.2a43.4,43.4,0,0,1-.1-5.1c.3-3.2.6-6.3,1-9.5,0-.4.1-.7.1-1.1s.1-1.4.1-2.1a28.5,28.5,0,0,1,.4-4.1,12.6,12.6,0,0,1,1-3.3,7.3,7.3,0,0,1,1.7-2.6,4.2,4.2,0,0,1,2.5-1.2,2.9,2.9,0,0,1,2.4.7,6.1,6.1,0,0,1,1.7,3.4v.1h0a50.5,50.5,0,0,1,1.1,8.7c.1,2.6.1,5.3.1,8s.1,4.8.3,7.2h0v.2h0l.6,3.2c.4,1.3.8,2.6,1.3,3.9,1.2,3,2.8,5.8,4.3,8.7,0-.1,0-.1-.1-.2Z"/><path class="ea485fbd-034f-4c81-a4e8-795ea3f4fdb0" d="M344.3,1000.8a7.5,7.5,0,0,0-1,2,23.4,23.4,0,0,0-.4,2.6v1.8c-.6,1.4-.1,3,.1,4.5s.7,4.2,1,6.2q.9,5.7,1.5,11.4c.2,2,.5,3.9.8,5.9a53.5,53.5,0,0,0,1.1,5.5c1,3.8,2.2,7.5,3.5,11.3.4,1.2.9,2.4,1.3,3.5a26.4,26.4,0,0,0,2.7,4.6,41.9,41.9,0,0,0,5.7,6.2c2.5,2.1,4.9,4.4,7.9,5.7a13.4,13.4,0,0,0,4.9,1,11.7,11.7,0,0,0,4.5-.9,24,24,0,0,0,4.7-2.7,26.1,26.1,0,0,0,3.1-2.7,30.8,30.8,0,0,0,7.4-9.4,25.3,25.3,0,0,0,2.5-8.5,64,64,0,0,0,.1-7.6c-.1-3.8-.4-7.5-.8-11.3l-1.2-11.1c-.3-2.5-.6-4.9-2-7a41.8,41.8,0,0,0-5.7-6.9,13.2,13.2,0,0,0-2.9-2.4,14.2,14.2,0,0,0-3.6-1.4l-5.6-1.8h.4l-4.1-1.6-4.1-2.3a14.9,14.9,0,0,0-4.5-1.5,21,21,0,0,0-7.5.1,16,16,0,0,0-5.2,2.2A15.2,15.2,0,0,0,344.3,1000.8Zm5.8,1.9a2.5,2.5,0,0,1,2.3-1.3c1.8,0,3.1,1.6,4.3,2.7h-.1c0,.1.1.1.2.2h0l.3.2a18.9,18.9,0,0,1,2.7,2,6.5,6.5,0,0,1,1.6,2.1,9.2,9.2,0,0,1,.9,2.8l.3,2v.2a14.2,14.2,0,0,1,.8,1.8c.4,1.4.6,2.8.9,4.1h0a.4.4,0,0,1,.1.3v-.3c.1.5.3,1,.4,1.4a62.8,62.8,0,0,0,2.7,5.9,25.4,25.4,0,0,0,2.3,3.4,6.9,6.9,0,0,0,1.1,1.3c1.3,1.2,2.6,2.4,4,3.5h.1c.1,0,.1.1.2.2l-.2-.2h.1l.4.3-.3-.3,3.2,2.4,3.2,2.9-.2-.2.3.2c.1.1.2.1.2.2a.1.1,0,0,0-.1-.1c.9.6,1.9,1.1,2.8,1.8a13.3,13.3,0,0,1,2.6,2.7,5.3,5.3,0,0,1,1.2,4,4.5,4.5,0,0,1-3.4,3.4c-.1.2-.1.4-.3.6l-3,2.5-1.9,1.1a17.5,17.5,0,0,1-3.8.9l-3.4.2h-1.3a8.7,8.7,0,0,1-3.2-.6c-2.3-.8-4-2.6-5.6-4.4a31.7,31.7,0,0,1-2.9-3.5,13.8,13.8,0,0,1-2-3.3,17.6,17.6,0,0,1-1-3l-1.2-4.9c-.6-2.8-1.3-5.6-2-8.4l-1.5-6.5c-.5-2.2-.9-4.4-1.3-6.6a43.5,43.5,0,0,1-.6-5.2,19.2,19.2,0,0,1,0-2.4v-.2c-.1-.1,0-.2,0-.3s-.4-2.2-.4-3.2A4.2,4.2,0,0,1,350.1,1002.7Z"/><path class="ea485fbd-034f-4c81-a4e8-795ea3f4fdb0" d="M350.9,1052h0a1.4,1.4,0,0,0-.2-.6A1.4,1.4,0,0,1,350.9,1052Z"/><path class="ea485fbd-034f-4c81-a4e8-795ea3f4fdb0" d="M332.3,1043.9c.2-1.9.3-3.7.4-5.6.4-6.4-.9-12.8-1.4-19.1-.3-4.1.1-8.2-.6-12.3a21.7,21.7,0,0,0-3.2-7.3,15.4,15.4,0,0,0-4.3-4.5,29.7,29.7,0,0,0-9-4.7,17.4,17.4,0,0,0-12.5.3,28.3,28.3,0,0,0-7.1,4.7c-3.6,3.4-3.5,8.7-3.4,13.3a18.4,18.4,0,0,0,.6,4.1h0c-.1,1.7,0,3.4,0,5.1s-.1,3.1-.1,4.7.1,3.2.1,4.8a88.5,88.5,0,0,0,.5,8.9c.3,3.3.8,6.6,1.4,9.9s1.5,6.7,2.5,9.9a50.6,50.6,0,0,0,5,11.4,17.7,17.7,0,0,0,1.7,2.4,10.6,10.6,0,0,0,1.5,1.5l2.5,1.7,2.4,1a14.1,14.1,0,0,0,2.2.6h2.2a10.6,10.6,0,0,0,2.5-.9,16.5,16.5,0,0,0,3.1-2l2-1.8a19,19,0,0,0,3.5-4,41.8,41.8,0,0,0,5.7-12.3A85.8,85.8,0,0,0,332.3,1043.9ZM317.8,1006a8.8,8.8,0,0,1-3.6,1h-.6c0,.1-.1.1-.2.1h-.1l-.4.3a.1.1,0,0,1,.1-.1h-.1l-.6.4c-.9,1.1-1.8,2-2.6,3.1l-1.1,1.5c.1-.1.1-.2.2-.2l-.3.5h0a.1.1,0,0,0-.1.1h0c0,.1-.1.2-.1.3s-.1.3-.1.5a2.2,2.2,0,0,0-.1.8,10.9,10.9,0,0,0,.1,1.8h0v.2h0c.2,1.1.4,2.1.5,3.2h0c.5,3.7.6,7.5,1.1,11.3,0-.1-.1-.2-.1-.3.7,4,1.8,8,2.4,12.1a77.8,77.8,0,0,1,.6,11.8v0a26.2,26.2,0,0,1-.1,2.8,9,9,0,0,1-.4,2.8,2.9,2.9,0,0,1-1.9,1.8l-.8.2a2.8,2.8,0,0,1-1.8-.6,6.8,6.8,0,0,1-2.1-2.9,35.4,35.4,0,0,1-1.6-3.4,23.3,23.3,0,0,1-.7-2.5l-.9-3.6c-.5-2.4-1-4.8-1.4-7.1s-.8-5-1.2-7.5-.9-5.1-1.5-7.7a40.7,40.7,0,0,1-1.3-5,44.6,44.6,0,0,1-.7-5.1h0v-.2h0c-.1-1-.3-2-.4-3a26.7,26.7,0,0,1,0-4,17.7,17.7,0,0,1,1.1-6,14.5,14.5,0,0,1,4-4.2l2-1.4a7.1,7.1,0,0,1,2.2-1.3l1.3-.4a7.6,7.6,0,0,1,2.1-.3h1.6l2,.2a17.1,17.1,0,0,1,3,.9,9.1,9.1,0,0,1,3.1,1.2,4.5,4.5,0,0,1,2.3,3.8A4.9,4.9,0,0,1,317.8,1006Z"/><path class="ea485fbd-034f-4c81-a4e8-795ea3f4fdb0" d="M410.9,1052.9h0c0-.2-.1-.3-.1-.5A1.3,1.3,0,0,1,410.9,1052.9Z"/></g></g></svg>