<svg xmlns="http://www.w3.org/2000/svg" viewBox="0 0 656.8 431.2"><defs><style>.b3a65a95-1bca-416b-b15a-dfe217a8b2a0{fill:#9b794e;}</style></defs><g id="b61bc724-1d61-421a-b23a-526524aaa0bd" data-name="Layer 2"><g id="ee919619-1f3a-4b38-9456-b7be32f52138" data-name="Layer 1"><path class="b3a65a95-1bca-416b-b15a-dfe217a8b2a0" d="M649.5,23l2.1-3.7a30.7,30.7,0,0,0,1.7-3.1,28.3,28.3,0,0,0,1.6-3.6,20.9,20.9,0,0,0,1.9-6.9,6.7,6.7,0,0,0-.4-2.4,6,6,0,0,0-.9-1.5A5.3,5.3,0,0,0,654,.7a3.7,3.7,0,0,0-1.8-.5,11.1,11.1,0,0,0-4.8.1,15.1,15.1,0,0,0-3.3,1.3l-3.3,2.2-3.2,2.4-2.5,1.7-2.7,1.4-3.1,1.5-5.9,2.7-6,3.1-5.9,2.7c0-.1.1-.1.2-.1l-10.5,4.5-3.4,1.4-3.7,1.3-3.7,1.4-3.7,1.3L579,32.3l-7.1,3.2-10.4,4.3-3.6,1.4-2.4.8-2.4.9-2.9.8-2.3.6L540.8,46l-8.5,2.1c-5,1.2-9.9,2.6-14.8,3.9-2.5.6-5,1.3-7.5,1.7l-8.5,1.6-7,1.3c-2.7.6-5.4,1.1-8,1.8L472,62.1c-4.1.5-8.2,1.2-12.3,1.8l-6.7.8-5.9.7L435,66.6l-4.2.5-3.8.5-4.4.8-5,1-5.9,1.3-9.7,1-12.7,1a55.1,55.1,0,0,0-5.7.6l-6.3.8c-4.1.6-8.3,1.1-12.5,1.4-1.9.1-3.8.1-5.7.3l-6,.4c-2.1.2-4.2.4-6.3.8l-6.1,1.1c-3.9.8-7.7,1.9-11.6,2.7l-11.8,2.1L304.1,85q-5.7,1.1-11.4,2.4h-.8a10.4,10.4,0,0,1,.6,1.6c.1.7-.6,1.6-1.4,3.5a45.4,45.4,0,0,1-1-4.6l-9.4,2.2-11.9,3.2c-4,1-8,1.9-12.1,2.7l-12,2.3a78.3,78.3,0,0,0-11.6,2.8l-5.9,2.2-5.6,2.2a111,111,0,0,1-11.5,3.9h0l-3.3.9-3.9.9c-2.3.5-4.6.8-6.9,1.1h0l-7.5,1-8.1,1.1a57.8,57.8,0,0,0-5.7,1.2c-1.9.4-3.9.8-5.8,1.4-4,1.1-8.1,2.2-12.1,3.7s-7.9,2.9-11.9,4.2-7.9,2.4-11.9,3.5l-11.7,3.4-11.9,4-5.6,2.1-5.6,1.9c-1.8.7-3.7,1.4-5.5,2.3l-3.1,1.5-2.8,1.5c-1.8,1-3.5,2.2-5.3,3.4s-3.2,1.9-4.7,3l-2.8,2-2,1.7c-.8.7-1.9,1.6-1.7,2.9a2.8,2.8,0,0,0,2.1,2l1.6.2h1.4a13.6,13.6,0,0,0,2.9-.6l4.7-1.6,5.5-2.2,11.8-4.8c3.7-1.5,7.4-2.8,11.2-4s8.1-2.3,12-3.6l11.4-4.3,6.1-2.4,5.5-1.9,4.3-1.1,4.5-1,12.8-2.9,11.7-2.9,12.6-2.9,5.3-1.2,3.1-.5,3.2-.5c4.8-.5,9.5-1.1,14.3-1.8s8.2-1.1,12.3-1.8l3.6-.6h1.5l6.8-.2,6.6-.3,6.8-.4c3.4-.2,6.9-.5,10.3-.9s7.2-.7,10.8-1.2,6.7-.9,10.1-1.2l10.7-1c3.6-.3,7.3-.7,10.9-1.2l10.3-1.6c3.6-.6,7.2-1.2,10.8-2l10.2-2,2.2-.3,11.5-1.3,10.6-1.1,11.2-1.3,10.6-1.3,10.4-1.2,10.3-.7c3.7-.3,7.4-.5,11-.9l10.8-1.1c3.4-.3,6.8-.4,10.3-.8l10.5-1,10.8-1.4,19.6-3.4,8.9-.7c3.3-.4,6.5-.9,9.8-1.6l9.4-1.9,2.4-.6,5.5-1.4,14.7-3.5,15.9-3.7,7.5-1.9,7.3-1.9,4.9-1.4h.3a94.9,94.9,0,0,0,12.7-4.3l6.4-2.8,6.3-2.8,7.3-2.9,6.6-2.5,7.9-3.1,3.6-1.6,3-1.4,2.3-1.1,1.2-.8a40.5,40.5,0,0,0,3.5-2.1l2-1.4,1.4-1.1,1.6-1.2,1.7-1.5c2-1.6,3.8-3.4,5.7-5a18.5,18.5,0,0,0,1.4-1.4l1.4-1.3,1.5-1.6,1.4-1.8a36.2,36.2,0,0,0,2.2-3.2A34.5,34.5,0,0,1,649.5,23ZM268,107.2h0l-3.2.5,3.3-.5ZM430.6,81.6l-.5.6a2.4,2.4,0,0,1-.9.6c-.9.6-1.9,1-2.8,1.5l-.5.2-1.8.9-2.2,1.2-2.1.8-1,.4-1.2.3-2.2.6-2.3.4-2.3.3-2.4.3-2.6.3-2.4.3-2.3.4-1.9.4-2.4.2-2.6.2-4.9.2h-.2l-9.1.5-4.5.4-4.6.5c-3.2.5-6.3.8-9.5,1.1l-9,.9-9.5.9c-3.1.2-6.2.4-9.2.8l-8.1,1.1-4.8.9-4,.9-10,2.1-1.9.3-2.2.4-2.8.3a52.8,52.8,0,0,1-5.5.4H291a17.5,17.5,0,0,1-3.3-.5l-1.3-.5a1.8,1.8,0,0,1-.8-.7,1.7,1.7,0,0,1-.2-1.2.7.7,0,0,1,.1-.5,1.8,1.8,0,0,1,.5-.7,2,2,0,0,1,.8-.4l.6-.3,1.1-.4,2.3-.7h.8l.5-.2h.1a39,39,0,0,1,4.6-1.2l4.5-.7,2.6-.3,2.2-.2,2.2-.2,2.4-.3,2.8-.5,2.5-.5,2.1-.6,4.1-1.1,5-1.2,2-.4,2.2-.4,4.4-.8,5.1-.6,9.5-1.3,8.2-1.2,3.6-.4,4.4-.7h.1l2.7-.5,2.5-.5,4.1-1,2.2-.4,2.9-.5L383,81l2.3-.2h-.1l4.5-.2h4.9l9.2-.3h3.7l3.6-.2h.4l6.2-1.1h1.4l3.6-.6,3.1-.2,2.1.2,1.7.7a2.2,2.2,0,0,1,1,.9,1.6,1.6,0,0,1,.2,1.5C430.7,81.2,430.7,81.4,430.6,81.6Zm58.6-8.9a3.7,3.7,0,0,1-1.4.7l-3.6,1.1-4.1,1.1-1.9.5-1.9.4-3.7.5-3.9.5-7.5,1-7.8.8H449l-2.1-.3a3.2,3.2,0,0,1-1.7-.9,1.7,1.7,0,0,1-.7-1.4,1.9,1.9,0,0,1,.9-1.5,5.8,5.8,0,0,1,2.8-.9l1.6-.3,3.3-.5,1.4-.3.9-.3,1.7-.8,1.6-.9,1.8-.9,1.7-.6,1.9-.5a5.8,5.8,0,0,1,1.9-.3l1.9-.2H478a79.8,79.8,0,0,1,8.4.9,9,9,0,0,1,2.2.6,1.9,1.9,0,0,1,1.1,1.2A1.3,1.3,0,0,1,489.2,72.7ZM634.8,19.1l-.9,1a6.1,6.1,0,0,0-.7,1,5.7,5.7,0,0,0-.8,1.3l-1.1,2.2a13.3,13.3,0,0,1-1.1,2.4,5,5,0,0,1-.8,1.2l-.9,1.1-2.1,2.2-2.3,2.1L622,35.4h0l-.7.6a.1.1,0,0,0,.1-.1l-3.5,2.9h.1l-2.1,1.7-1.3,1-1.4.9-2.5,1.4-2.6,1.4-1.2.9-1.2,1-1.4,1.4-1.4,1.3-1.4,1-1.4.7-3.2,1.7-3.5,1.7c-2.3,1.1-4.7,2-7.1,2.9l-7.4,2.8L572.3,63l-6.5,2.2h0l-2.4.8h-.2l-7.7,2.4-3.5.9-1.8.5-1.7.3-4,.8-3.7.8-3.7.8-4.2,1.1-6.4,1.7-3.7.9-2.3.5-1,.2h-1.2a2.2,2.2,0,0,1-1.7-.7,1.4,1.4,0,0,1-.2-1.6l.7-.8.9-.6,1.5-.6,1.9-.7,3.7-1.2,7.7-2.3,9.1-2.6,2-.6,1.7-.7a34.9,34.9,0,0,0,3.4-1.5l1.7-.7.9-.4.8-.3,1.9-.7,2-.5,3.1-.8,2.8-.7,1.8-.6,1.6-.6,3.4-1.4,7.6-2.6,3.8-1.4,1.2-.6.6-.5.3-.3.2-.2h-.1l-.4-.2-.8-.2h-.8a17.6,17.6,0,0,0-2.3,0h0l-5.6.3-2.8.2H566l-1.7-.5h.1c-.5-.2-1.1-.4-1.3-.9a1.6,1.6,0,0,1,.3-1.6,8.8,8.8,0,0,1,2.6-1.2l3.4-1.2,4.1-1.3,3.4-1,1.9-.5,2-.5h0l2.9-.9h0l7.4-2.6,3.7-1,1.9-.5,1.6-.4,4.2-1,4.6-1.1,1.6-.7.7-.3.3-.3,1.1-.9,1.4-1.8,1-1.5a8,8,0,0,1,1.5-1.7,8.8,8.8,0,0,1,2.7-1.9l1.7-.8,1.7-.9,1.3-1.1.4-.3h0a36.4,36.4,0,0,1,4.6-3l2.3-1.3,2-.9,1.6-.3h.8l.7.4A1.4,1.4,0,0,1,634.8,19.1Z"/><path class="b3a65a95-1bca-416b-b15a-dfe217a8b2a0" d="M644.1,1.6Z"/><path class="b3a65a95-1bca-416b-b15a-dfe217a8b2a0" d="M93.1,191.2Z"/><path class="b3a65a95-1bca-416b-b15a-dfe217a8b2a0" d="M281.5,366.8c4.1-1,8-2.3,12-3.5l5.9-1.4,5.7-1.5L311,359l6.2-1.4,7.1-1.4,6.9-1.7,12.8-3.2,5.2-1,4.8-.7,10.5-1.7,9.8-1.8L384,344l10.5-2,10.6-2.1c3.5-.7,6.9-1.4,10.3-1.9l10.7-1.8,6.2-1.1,5.5-1.4,11.8-3.1c8.1-2.2,16.4-4.2,24.6-6.5,4.1-1.1,8.1-2.3,12.2-3.6s8.1-2.8,12.2-4.4l11.5-4.7c3.7-1.6,7.5-3,11.4-4.4s8.3-2.9,12.4-4.5l5.5-2.3,5.5-2.5L556,292c3.5-1.9,7.1-3.7,10.7-5.5h-.1l2.4-1.2h0l7.8-4.1L581,279c1.4-.9,2.8-1.8,4.1-2.8l3.8-2.9,1.8-1.6a11.4,11.4,0,0,0,1.5-1.6l.5-.6.3-.8a6.4,6.4,0,0,0,.2-.7v-.8a3.8,3.8,0,0,0-.5-1.5l-.6-.7-.6-.4a1.9,1.9,0,0,0-1-.3,4.7,4.7,0,0,0-2,.2l-1.7.3a73.8,73.8,0,0,0-7.8,1.9l-3.9,1.1-4.1.9a67.5,67.5,0,0,0-8.4,2.6l-4.1,1.7-3.9,1.6-5.3,1.6-4.9,1.3-10.6,2.4-6.4,1.1-5.7,1-6.1,1.1-5.8,1.4c-8,1.9-16,3.7-23.9,6.3-3.9,1.3-7.8,2.6-11.8,3.7s-7.9,2.2-11.9,3.1-10.6,1.9-15.9,2.7-11.2,1.8-16.7,2.9l-6.2,1.3-5.8,1.4-6.7,1.8c-2.1.5-4.1,1.2-6.2,1.8l-13.8,3.8-9.4,1.4c-3.6.6-7.2,1-10.9,1.5-8.9,1.2-17.9,1.9-26.9,2.8l-13.4,1.7-12,1.4-7,.9-7,.8-13.8,1.4-6.6.6-3.2.4-2.6.3-7,1.1-6.4,1.2c-4.5,1-9,1.9-13.5,2.5l-13.7,1.8c-8.9,1-17.6,2.4-26.5,3.3l-7,.3c-4.2.2-8.5.1-12.7.2s-9,.3-13.4.7l-13.4,1.6c-2.1.3-4.3.5-6.4.9l-6.9,1.4h-.4l-8.1,1.9-7.7,1.8-4.8.8-4.4.6c-4.4.4-8.9.6-13.3,1.3-2.1.4-4.3.7-6.4,1.3l-6.3,1.9c-4.2,1.3-8.3,2.7-12.3,4.1l-6.2,2.4-6.1,2.8A100.6,100.6,0,0,0,63.7,367c-3.6,2.4-7.1,5.1-10.6,7.7s-6.7,5.4-9.9,8.2L33.3,392h0l-2.5,2.2-5.2,4.2-4.9,3.7-4.9,3.8c-1.8,1.4-3.5,2.9-5.2,4.4A37.2,37.2,0,0,0,6.4,415c-1.3,1.7-2.6,3.5-3.8,5.3L.9,422.7a4.6,4.6,0,0,0-.8,1.9,3.1,3.1,0,0,0-.1,1,5,5,0,0,0,.3,1.3,4.3,4.3,0,0,0,1.2,2.3l1,.8.9.5a9.4,9.4,0,0,0,2.8.6H7.4l2.3-.2a55.5,55.5,0,0,0,9.8-3l6.1-2.5,12.6-5.4L49.5,415l6-2.8,3.2-1.3,3.3-1.2,3.1-1.1,5.7-1.7,6.6-1.8c4.2-1.1,8.5-2.3,12.7-3.6l14-4,6.4-1.7,6.1-1.3,4.4-.8c1.2-.3,2.4-.4,3.6-.6l2.8-.3,6.7-.6,6.5-.7,6.4-.8c9.1-1.3,18.1-2.9,27-4.6s17-4,25.5-6.3l12.7-3.5c4.2-1.2,8.6-2.2,12.9-3.3l5.1-1,2.8-.4,4.1-.7,6.9-1,7.4-1h.1l9.5-.3,8.1-.2,3.5-.2,2.9-.3,3.5-.5A22.7,22.7,0,0,0,281.5,366.8Zm176.7-55.4a2,2,0,0,1,1-.8l1.2-.6,1.1-.5a45.9,45.9,0,0,1,4.8-1.7h.1l.2-.2,1.6-1a21.3,21.3,0,0,1,3.5-1.4l3.5-1.1,1-.2,1.1-.2a5.8,5.8,0,0,1,2.3-.2l1.2.2,1.1.5a1.9,1.9,0,0,1,.6,1.8,2.7,2.7,0,0,1-1,1.1l-1.7.9h-.3l-1.2.5-3.5,1.7-3.1,1.8-1.9.9-1.9.9a18.5,18.5,0,0,1-4,1.2h-.8a10.6,10.6,0,0,1-3.9-.9c-.7-.3-1.5-.9-1.4-1.7A1.2,1.2,0,0,1,458.2,311.4Zm-26.8,20.1a.1.1,0,0,1-.1.1.1.1,0,0,0,.1-.1h0a15.9,15.9,0,0,1-3,.6l3-.6Zm-137.1,13,1.2-.3,2.5-.5,4.3-.9,9.8-2,10.2-2,9.7-1.9,9.2-1.8,5.1-1.2,5.1-1.2,5-1.1,4.9-1.1,4.6-.8,1.5-.2.8-.2,2.5-.2a18.4,18.4,0,0,1,3.3-.3l3.8-.2h2.7l5.3-.5a30.3,30.3,0,0,0,4.3-1.2l2.4-.7,2-.7,2.8-1,1.8-.6,3-1,1.8-.5,2.8-.8,2.1-.6,4.9-1.4,2.4-.5,2.8-.7,1.5-.4,3.5-.8,4.2-.8h.5l1.3-.4h.9l.4-.2h.6l.4-.2h.1l2.8-.7a22,22,0,0,1,3.6-.4,15.8,15.8,0,0,1,3.1.1,5.3,5.3,0,0,1,1.2.3,3,3,0,0,1,1.1.7,2.1,2.1,0,0,1,.3,2,4,4,0,0,1-2,1.6l-2.5,1.1-4.5,1.7-4.7,1.9-2.3.9-2.3.8-2.4.7-2.2.6-9.5,2.6-4.2,1.1-3.7,1.1h.1l-6.5,2a51.2,51.2,0,0,1-5.6,1.5,27.8,27.8,0,0,1-5.8.6l-4.3.2-8.9.3-4.6.2-1.7.2H366l-2.4.4-2.6.5-2.3.6-5,1.4-4.5,1.3-2.3.5-2.2.5-4.5.8h0l-4,.7h0l-4.4.8-5.3,1.1-5.2,1-4.9.9-3.7.6-2,.3-1.8.2-2.6.3-4,.3h-5.7l-2.3-.4-.9-.4-.8-.8a1,1,0,0,1,.1-1.5,1.8,1.8,0,0,1,.7-.5Zm-2.2-18.4c.3.1.5.7.8,1l-.7,1.1-.9-1.5C291.6,326.5,291.9,326,292.1,326.1Zm-76,13.4c1,1.1,1.8,1.6,2,2.4s-.7,2-1.1,2a2.3,2.3,0,0,1-1.8-1.5C215,342,215.7,340.9,216.1,339.5Zm-98.7,47.9h-.8a2.2,2.2,0,0,1,.1-.6h.8A1.3,1.3,0,0,1,117.4,387.4Zm76.5-14.6c-.3-.5-.9-1-.9-1.6s.4-1.1.8-1.9c.5.9,1,1.5,1,2.1S194.2,372.4,193.9,372.8Zm19-.9-2.7.7,2.6-.7Zm13.9-14-.7-.8c0-.1.1-.6.2-.6l.9.2A5.6,5.6,0,0,0,226.8,357.9Zm9.4-11.1-.6.5-1,.4-.9.3-3.6.5-3.9.6-1.8.4-1.8.5h0l-3,.9a29.9,29.9,0,0,1-3.2.9c-2.1.5-4.3.8-6.5,1.1l-6.5.8-6.1.7-3.6.5h.2l-3.3.7-2.9.7-3.3.8-2.3.5h-.8l-3.3.8-2.9.8-3.2.7-3.3.6-4.9.6-2.6.2-2.8.3-2.8.6-3.2.7-6.2,1.5a31.5,31.5,0,0,1-6.1,1.3q-3.5.3-6.9.3h-6.8l-4.6.4-1.6.4-2,.8-1.7.8-1.9,1.4-.4.3h3.1c2-.1,4.1-.2,6.1-.1a43.6,43.6,0,0,1,6.2.7l6.1.8,3.3.5,3,.3h4.3l1.6-.2,3.3-.5H161l3.4.3,2.8.4,3.4.5h1.3a3.6,3.6,0,0,1-.4-.9c-.1-.1.2-.5.3-.5l.8.7-.5.7h1.6a1.2,1.2,0,0,1,.9.8,1.1,1.1,0,0,1-.3,1.3l-.8.4-.9.2-1.5.2-2.9.5-7.1,1.1-6.7.9-5.6.9-2.1.4-2,.6-5.7,1.7-5.6,1.6a21.4,21.4,0,0,1-2.7.6l-2.9.3a58.3,58.3,0,0,1-5.9.3h.2l-8.8.7c-2.9.2-5.7.7-8.4,1.1h-.6L95,389l-4.7,1a34.9,34.9,0,0,0-5.4,1.2l-1.8.6-1.5.7-1.5.8-1.3.8-1.5.8-2.9,1.4-2.8,1-6.2,2.1-6.2,2.1-3.6,1.1-1.9.7-1.8.8h-.1l-1.7.8-1.6.9-3.2,1.6-3.7,1.4a22.5,22.5,0,0,1-4.4,1.4,7.8,7.8,0,0,1-2.2.3h-.2a4.7,4.7,0,0,1-1.7-.3.8.8,0,0,1-.6-.8,1.2,1.2,0,0,1,.1-1,2,2,0,0,1,.8-.8l2.4-1.3c1-.5,2-1.1,3-1.5l6.1-3.1,6.5-3.3,2.1-1.1,3.5-1.9,1-.6,1.4-.8,2.7-1.6,3.1-1.8,3.2-1.7c1.9-1,4-1.9,6-2.8l5.7-2.4,3.2-1.3,1.6-.6,1.7-.5,3.2-.6,3.2-.5,3.9-.9,1.9-.7,1.1-.6.6-.5h.2a.1.1,0,0,0,.1-.1h-.1a.1.1,0,0,0-.1-.1h-2l-4.3.3-2.2-.2-2-.7a5.9,5.9,0,0,1-1.7-1l-.6-.6-.6-.8c-.1-.2-.1-.4-.2-.6a2.8,2.8,0,0,1-.1-.9,3.7,3.7,0,0,1,.5-1.8,3,3,0,0,1,.9-1.3,5.8,5.8,0,0,1,1.5-1.1l1.4-.8,1.5-.8H93l.5-.2h-.1l.5-.2h-.1a.1.1,0,0,1,.1-.1h.3l2.9-1.1,3-1,6-2,6.2-1.8,6.4-1.6,6.3-1.7,6.6-1.9a42.6,42.6,0,0,1,6.2-1.3l3.4-.3h17.3l3.1-.2,1.6-.2,1.8-.2,6.3-1.2,5.9-1.3,6.6-1.8,3.1-.8,3-.7c2.2-.5,4.3-1,6.5-1.3l3.1-.4,3.6-.3,6.2-.3h3.4l2-.2,6.6-.9c2.1-.3,4.3-.5,6.4-.6h1.6a13.5,13.5,0,0,1,4,.3l1.6.7a3.8,3.8,0,0,1,1.4,1.1,1.6,1.6,0,0,1,.2,1.2C236.5,346.3,236.3,346.5,236.2,346.8Z"/><path class="b3a65a95-1bca-416b-b15a-dfe217a8b2a0" d="M164.3,374.4l-2.2.3,2.2-.3Z"/><path class="b3a65a95-1bca-416b-b15a-dfe217a8b2a0" d="M561.3,72.5h0Z"/><path class="b3a65a95-1bca-416b-b15a-dfe217a8b2a0" d="M231.9,274h-2l-2.1-.2-3.4-.5-.7-.3-.9-.4-1.1-.8h-.1l-1.5-1.3-.9-1-1.1-1.5a4.7,4.7,0,0,1-.5-1,16.3,16.3,0,0,0-2.3-3.5,4.4,4.4,0,0,0-4.5-1.2,10,10,0,0,0-4.6,3.5,19.6,19.6,0,0,0-2.8,5.6,46.1,46.1,0,0,0-1.5,7.2,18.5,18.5,0,0,1-.4,2.3l-.6,2.5a16.6,16.6,0,0,1-.6,2.1c-.2.8-.5,1.6-.7,2.4s-1,3-1.4,4.5a25.7,25.7,0,0,0-.8,3.8,19.8,19.8,0,0,0-.3,3.5,13.7,13.7,0,0,0,.7,3.4,18.9,18.9,0,0,0,1.3,3.3,11.5,11.5,0,0,0,4.1,4.9,9.8,9.8,0,0,0,3.2,1.3l2.4.4,2.8.4,2.9.2,2.9.2h11.8a22.5,22.5,0,0,0,3.6-.6,34,34,0,0,0,3.4-1.2l2.6-1.1,2.6-1.2,4.6-2.2a11.5,11.5,0,0,0,2.5-1.2l1.6-.8.9-.5,1.3-.8,1.2-.9,2.2-1.6,4.3-3,2.2-1.7,2.3-1.9a60.5,60.5,0,0,0,7.3-7.9c2.4-3,4.8-6,7-9.1,1.2-1.5,2.2-3.1,3.3-4.6l3.1-4.6c1-1.5,1.9-3,2.8-4.6l.6-1.2a10.1,10.1,0,0,0,.7-1.5,21.4,21.4,0,0,0,1-2.2h.1c.4-1.1.9-2.3,1.3-3.5l.6-2.2a13.9,13.9,0,0,0,.6-1.9,42.9,42.9,0,0,0,1.6-7.1c.1-.5.1-1.1.2-1.6s.1-1,.1-1.4a26.2,26.2,0,0,0,0-2.8,24.6,24.6,0,0,0-.2-2.6l-.3-2.7a47.5,47.5,0,0,0-2.4-10.7,18.3,18.3,0,0,0-.8-2.5l-.6-1.5a10.2,10.2,0,0,0-1.4-2.2,11.4,11.4,0,0,0-1.9-1.9l-1.6-1.3a23.2,23.2,0,0,0-3.8-2.1,7.5,7.5,0,0,0-1.3-.6l-1.1-.4a12.5,12.5,0,0,0-2.5-.9,56.2,56.2,0,0,0-5.5-1.5h0a36.4,36.4,0,0,1-4.7-1.4l-.9-.4-.9-.6-.7-.6-.4-.4-.3-.5c-.1-.1-.1-.2-.2-.4s-.1-.4-.2-.6a.7.7,0,0,1-.1-.5c0-.2-.1-.3-.1-.5s.1-.9.1-1.4a6.1,6.1,0,0,1,.3-1.3l.3-1.1.8-1.6h0l.9-1.7h-.1a12.1,12.1,0,0,0,1-1.4l.9-1.3c1-1.3,2.1-2.5,3.2-3.7l1.9-1.8,2-1.8,2.2-1.6,1.1-.7,1.3-.8,2.3-1.2,1.8-.6h.1l1.6-.3,1.8-.2h1.4l1.5.3h0l2.2.7.9.4,3.1,1.9,3.1,2.1,1.6,1.3a9.4,9.4,0,0,1,1,1l.7,1.1a11.4,11.4,0,0,1,1,1.9l.9,1.5,1.6,1.3a3.5,3.5,0,0,0,2,.5,4.2,4.2,0,0,0,1.9-.6,10.5,10.5,0,0,0,3.5-3.1,19.2,19.2,0,0,0,2.5-4.4,10.8,10.8,0,0,0,.8-1.9,25.3,25.3,0,0,0,1.2-3.6c.5-1.8.9-3.7,1.5-5.5a51,51,0,0,1,1.9-5c.6-1.8,1.2-3.6,1.7-5.4a10.9,10.9,0,0,0,.5-2.6,10.8,10.8,0,0,0,.1-3.1l-.3-1.5a6.5,6.5,0,0,0-.4-1.3c-.6-1.1-1.4-2.1-2-3.2a9,9,0,0,0-1.4-2l-.8-.9a14.9,14.9,0,0,0-3.8-2.8,18.5,18.5,0,0,0-3.3-1.2,56.8,56.8,0,0,0-7-2.2l-1.9-.3-3.7-.7a29.5,29.5,0,0,0-4.2-.1,43,43,0,0,0-7.2,1l-3.3.8-.9.3-1.9.5-5.1,1.6-2.9,1-2.3,1-5.2,2-5.3,2.2-2.6,1-2.6,1.1-1,.5-1.6.8a34.8,34.8,0,0,0-3.9,2.8l-3.9,3.4-2.3,2-2,1.9-1.8,1.9-1,1.2a13.3,13.3,0,0,0-1.4,1.9,51.2,51.2,0,0,0-3,5.7,16.3,16.3,0,0,0-1.1,2.3l-1.3,2.5-1.2,2.1-1.3,2-2.5,3.9c-1,1.5-2,3.1-2.9,4.7l-1.2,2.1c-.4.8-.9,1.5-1.3,2.4s-.7,1.7-1.1,2.6l-.6,1.4a12.1,12.1,0,0,1-.5,1.4,18.8,18.8,0,0,0-1,4.7,24.5,24.5,0,0,0-.2,2.7,50.5,50.5,0,0,0,0,5.5c.1.5.1,1,.2,1.5a7.8,7.8,0,0,0,.2,1.4,5,5,0,0,0,.2,1.2l.3,1.2a20,20,0,0,0,1,2.6,7.8,7.8,0,0,0,1.1,2,9,9,0,0,0,1.5,1.9l2,2.4,1.8,1.8a26.6,26.6,0,0,0,3.8,2.8l2.9,1.7,2.4,1.3,2.4,1,5.3,1.8,2.6.8,2.7.7,5,1.9,2.2,1,.8.5.8.7.5.6.4.6.3.6c0,.1.1.3.1.4a1.3,1.3,0,0,1,.1.6.6.6,0,0,1,.1.4,2.2,2.2,0,0,1-.1.8c0,.3-.1.7-.1,1s-.3.9-.5,1.3a25.6,25.6,0,0,1-1.1,2.4h0l-1.7,2.5c-.9,1.2-1.9,2.3-2.8,3.4l-1.3,1.5-1.5,1.5h0l-.7.6a9.4,9.4,0,0,1-1,1,6,6,0,0,0-.8.8l-1.2,1.1a37.3,37.3,0,0,1-3,2.6,7.1,7.1,0,0,1-1.4,1l-1.4.7-2.1.7-2.1.5h0ZM216,282.4c.2.1.3.7.4,1.1s-.6.6-.9.5-.3-.7-.4-1S215.7,282.4,216,282.4Zm74.9-137c.2.1.2.8.3,1.2s-.7.5-.9.3-.3-.8-.4-1.2S290.6,145.2,290.9,145.4Zm-36.4,87.3-.9.3h-.9l-2.3-.5a6.2,6.2,0,0,1-1.9-.7l-2-1.1-1.9-1-1.4-.7-1.8-.7-2-.9a16.4,16.4,0,0,1-3.7-2.6,11.9,11.9,0,0,1-1.5-1.8l-.9-1.4a14.2,14.2,0,0,1-.8-1.8l-.6-1.4-.7-1.8c0,.1.1.1.1.2a10.3,10.3,0,0,1-.4-1.4h0c-.3-.8-.4-1.6-.6-2.3a19.3,19.3,0,0,1-.1-2.4,19.7,19.7,0,0,1,.3-2.4,23.5,23.5,0,0,1,1.1-3.5c.4-1.1,1-2.2,1.5-3.3l1.5-3.3h0c.8-2.4,1.6-4.9,2.5-7.3a41.2,41.2,0,0,1,3.1-7.2v-.3h0l.2-.3h0a28,28,0,0,1,2.7-4.3l1.5-2a16.3,16.3,0,0,1,1.7-2h0l.6-.7.8-.9,1.5-1.4h.1l1.4-1.1h-.1l2.1-1.5,1.9-1.3c1.4-1.1,2.9-2.1,4.2-3.2l1.7-1.4,2.8-2.5a24.8,24.8,0,0,1,3-2.5l1.5-1.2,1.5-1.3,1-.7.9-.5,1.6-.9,1-.4.9-.5,2-.8,1.8-.7,1.8-.6,2-.5,1.8-.3a25.6,25.6,0,0,1,3.9-.3H298l1.9.3,1.9.4a17.3,17.3,0,0,1,3.7,1.1l1.4.8,1,.6,1.7,1.1.9.6a.3.3,0,0,1,.4,0,10.5,10.5,0,0,1,2.9,1.2l1.5,1a5.2,5.2,0,0,1,1.1,1,1.7,1.7,0,0,1,0,1.4l-.8.8-.7.5-1.6.8-.9.4-.6.3-1.2.2a5,5,0,0,1-2.1-.2l-.9-.3-1.7-.6-1.4-.3h.1l-2.6-.6h.1l-.5-.2h.2l-2.2-.7-2.4-1.1h0l-1.1-.4-1.6-.2-3.1-.2H288l-4.4.3h-1.2l-1.5.4-1,.4-1.3.6-2.5,2-2,1.6a41.5,41.5,0,0,1-4.3,3h0l-2.5,1.6h.1l-3.4,2.2-3.3,2.6h0a5.2,5.2,0,0,1-1.1,1h0l-3.2,2.8-3.1,3.1-.6.6-.5.6h.1l-.6.8a9.3,9.3,0,0,1-.5,1,11.9,11.9,0,0,0-.8,1.6l-.8,1.8a37.8,37.8,0,0,1-1.7,3.5c-.5,1.2-1.1,2.3-1.6,3.5a37.3,37.3,0,0,0-1.6,3.5l-1.4,3.6h0c-.4,1.1-.7,2.1-1,3.1s-.6,2.1-.8,3.1h-.1a7.8,7.8,0,0,1-.2,1.4,5.7,5.7,0,0,0-.1,1.3h0a10.9,10.9,0,0,0-.1,1.8,6.8,6.8,0,0,0,.2,1.4,2.9,2.9,0,0,0,.2.9,15.9,15.9,0,0,0,.7,2l1.1,1.9,1.4,1.9.8,1a11.8,11.8,0,0,1,1.3,1.8c.5,1,.9,2,1.4,2.8h.1l.5.7.8.9,2,1.6,1.9,1.4c.8.6,1.9,1.2,2,2.3A1.7,1.7,0,0,1,254.5,232.7Zm2.7-12.5-.4-.3-1-.4h0l-1.7-.7a5.8,5.8,0,0,1-1.9-1.6,6.1,6.1,0,0,1-.9-1.8,5.2,5.2,0,0,1-.2-1.1,13,13,0,0,1-.8-1.7,4.4,4.4,0,0,1-.2-1,12.5,12.5,0,0,1-.3-1.9v-1.9a11.1,11.1,0,0,1,.2-1.9l.6-2.1a10.1,10.1,0,0,1,1.2-2.3l1.4-1.8a6,6,0,0,0,.8-.8,4.7,4.7,0,0,1,1.5-1.3.9.9,0,0,1,.7-.1.9.9,0,0,1,.7.3.9.9,0,0,1,.3.6v.5a11,11,0,0,1-.2,1.8l-.3,1.9h0c0,.6-.1,1.1-.1,1.7v3.2c.1.5.1,1,.2,1.5s.1.4.1.6.1.4.2.6h0a33.8,33.8,0,0,0,1.1,3.4h0v.2h0c.1.1.1.3.2.4h-.1a.4.4,0,0,1,.1.3h0c.4,1.2.8,2.4,1.3,3.6a11.7,11.7,0,0,0,.5,1.1,2.8,2.8,0,0,1,.2,1.8,1.2,1.2,0,0,1-1.1.7h0c-.5,0-.8-.3-1.2-.7Zm-21.5,70.5,1.7-1.3,3-2.4,2.6-2.3,1.6-1.4,1.4-1.1,1.5-1,1.7-1.1a33.7,33.7,0,0,0,3.2-1.9l1.7-1.2,1.7-1.7.5-.6.6-.7a11.3,11.3,0,0,1,1-1.3,17.4,17.4,0,0,1,1.1-1.8,6.1,6.1,0,0,1,.7-1,1.6,1.6,0,0,1,.4-.7,5.2,5.2,0,0,1,1-1.1,4.8,4.8,0,0,1,1.1-.9l1.3-.8,1-.6,1-.5,1.9-1,1.9-1.4,1.3-1.2,1.2-1.4,1.3-1.6a31.5,31.5,0,0,0,2.2-2.9,23.4,23.4,0,0,1,2.4-3.1l.7-.6.7-.3.8.2c.2.1.3.4.4.6a2.4,2.4,0,0,1,.2.8c0,.2-.1.3-.1.5a5499078241143.8,5499078241143.8,0,0,1-.2,1.2,8.5,8.5,0,0,1-.4,1.7,13.4,13.4,0,0,1-.7,1.8,38.4,38.4,0,0,1-1.8,3.5l-2.1,3-2.1,3.3-2.6,3.9-3.2,4a.5.5,0,0,1-.4.3l-.9.9-2.8,2.6-5.5,5.3-2.6,2.6-2.7,2.7a103.6,103.6,0,0,1-5.7,5.1,36.2,36.2,0,0,1-3.2,2.2l-.8.6-.8.5-.8.4-1,.5-1.2.5-1.1.4a5,5,0,0,1-1.7.2h-.3a16.6,16.6,0,0,1-3.2-.3h-6.9l-2.2-.2h-3.2c-1.2,0-2.5.1-3.7,0a12.4,12.4,0,0,1-3.8-.9,3,3,0,0,1-1.5-1.2,2,2,0,0,1-.4-.8,1.2,1.2,0,0,1,.2-1l.7-.6.5-.2h3.5l1.9-.2h6.6l3.3-.8,3-.8h0l.9-.4,1-.4,1.9-1h0Z"/><path class="b3a65a95-1bca-416b-b15a-dfe217a8b2a0" d="M545.2,329l2.1-1.9c.7-.6,1.3-1.3,2-2l1.3-1.5a9,9,0,0,0,1.8-2.8,5.2,5.2,0,0,0,.3-1.8,3,3,0,0,0-.2-1.3,3.3,3.3,0,0,0-2-1.7,4.3,4.3,0,0,0-1.6,0l-1,.2-1.3.4-2.4.7c-3.4,1.1-6.8,2.2-10,3.6l-5.3,2.3-4.8,1.9-10.1,4-10.2,4h-.1l-2.3.8h0l-.4.2h.1l-7.6,2.5c-7,2-14,3.6-21.1,5.1l-2.6.6h.2c-4.3.9-8.5,2-12.7,3.1l-10.5,3c-3.3,1-6.6,2.2-9.9,3.3l-10.4,3.1-9.5,1.5-6,1-6.1,1.3-5.5,1.4-6.4,1.4-7.1,1.4-3.5.6-4.1.7h0l-7.8,1.6-8.3,1.9-12.3,3.1c-4.1,1.1-8.2,2.4-12.2,3.7l-11.4,3.7-6.2,2-6,1.7-5.7,1.5-5.9,1.7a49,49,0,0,0-6.1,2.1l-1.6.7-1.3.8a2.3,2.3,0,0,0-.8,1.2,2.5,2.5,0,0,0,.9,2.7,6.2,6.2,0,0,0,2.6.9,30.7,30.7,0,0,0,5.2.6l2.7.2,4.7.2h8.4c3.7-.2,7.4-.4,11.1-.9l6.4-1,6.6-1.1q6.1-1.1,12.3-2.4l2.8-.7c0-.1-.1-.2-.1-.3s.7-1.4,1.1-1.3.8.5,1.4,1L369,385l12.6-3.5c4.1-1,8.1-2.2,12.1-3.4l5.6-1.7,6.4-1.9,5.9-1.4,5.9-1.4,4.3-.8h0l10.4-2.1h0l4.5-1.1,4.1-1.1,3.5-1,3-.8,1.4-.4,6.1-2.2c1.9-.6,3.7-1.4,5.5-2.1l.8-.3,6.5-1.8c3.4-.8,6.7-1.8,10-2.8l20.7-6c3.4-1,6.9-1.8,10.4-2.7l5.2-1.4c1.8-.6,3.6-1.1,5.4-1.8H519l4.2-1.4h-.3l1.7-.7,1.8-.7,3.3-1.5h.2l2.1-1h-.2l.7-.4h.1c0-.1,0-.1.1-.1h0l2.3-1.3,1.9-1.2,1.9-1.3,2.2-1.6ZM335.1,387.7l-.4-1.2c.3-.2.6-.6.9-.5a3.4,3.4,0,0,1,.4,1.2ZM390,374.3l-.7-.4.3-.5c.1.1.4.1.4.3S390,374.1,390,374.3Zm41.4-13.8-1,.5-1.1.3a10.5,10.5,0,0,1-2.4.6l-2.3.6-2.3.5-1.7.6-.8.3-.8.3-1.8.6-3.8,1.3-3.9,1.2-2.1.6-2,.5-1.8.4-1.8.3a10.8,10.8,0,0,1-1.9.3l-1.9.4-1.9.3-2.1.5-3.6,1c-4.9,1.6-9.6,3.5-14.4,5.1l-2.1.7-1.9.6-1.4.4-2.5.6c-1.2.4-2.4.6-3.7.9l-1.5.3-2,.3h-2.8l-2,.3-2.4.4-2.9.4h-3a12.8,12.8,0,0,1-2.7-.5,3.1,3.1,0,0,1-1-.5,2,2,0,0,1-.4-.8.8.8,0,0,1,.3-1.1l.9-.5.7-.3,1-.2,1.8-.5,3.7-.9,7.3-1.9,5-1.5h.2l1-.4,3.7-1.4,3.6-1.2,3.7-1,1.6-.4,1.9-.5a23.7,23.7,0,0,1,3.6-.9l4-.8,3.5-.8,2.6-.4,2.5-.3,4.8-.7,3.7-.7c1.3-.2,2.5-.6,3.8-.9l3.7-1,3.8-1,2.8-.7,1.3-.3,1.3-.2h.1l1.3-.3h.7l2.7-.4,1.7-.2,2-.2h.9l.6.2a.8.8,0,0,1,.3,1A1,1,0,0,1,431.4,360.5Z"/><path class="b3a65a95-1bca-416b-b15a-dfe217a8b2a0" d="M310.6,271.2Z"/><path class="b3a65a95-1bca-416b-b15a-dfe217a8b2a0" d="M225.2,233h0Z"/><path class="b3a65a95-1bca-416b-b15a-dfe217a8b2a0" d="M330.9,257.7l-1.2-.7-.8-.7-.7-.8-.8-1.3-1.3-2.4-.8-1.3a6.1,6.1,0,0,0-1.9-2,3.6,3.6,0,0,0-2.7-.3l-.6.2-.7.3-1,.9a15.5,15.5,0,0,0-2.9,5.2c-.7,1.8-1.3,3.7-1.9,5.6l-1.5,5.4c-.6,1.8-1,3.6-1.5,5.4s-.7,2.9-.9,4.4-.3,1.8-.4,2.6-.1.8-.2,1.2v1.3a13.9,13.9,0,0,0,.3,5,10.6,10.6,0,0,0,2.5,4.8,10.2,10.2,0,0,0,2.2,2,12.8,12.8,0,0,0,2.5,1.5l2.2,1.1,5.3,2.2,2.7.9,2.9.9,1.3.4,1.6.3,2.9.5,2.7.4,2.8.3a17.3,17.3,0,0,0,3.2.3h.7a22,22,0,0,0,3.7-.6l2.6-.8,1.7-.7,2.6-1a53.8,53.8,0,0,0,5.5-2.4,50,50,0,0,0,4.8-3.2l2.3-1.7,4.7-3.7,2.2-1.9.9-.8a9.4,9.4,0,0,0,1-1l1.8-2,1.8-2.1c1.2-1.6,2.5-3.2,3.8-4.7l1.9-2.1,2-2.2c2.4-2.7,4.7-5.5,7-8.3l2.3-2.7a45.7,45.7,0,0,0,4.3-6.5l1.6-3.6a35.8,35.8,0,0,0,1.1-3.5,25.8,25.8,0,0,0,.4-3.9v-1.7h0v-1.7h0c0-.6-.1-1.3-.1-1.9s-.1-.9-.1-1.3l-.3-2c0-.5-.2-1.1-.2-1.6s-.5-2.4-.7-3.6-.4-2.1-.5-3.1c-.7-4.7-1.3-9.3-2-14v.2a2.8,2.8,0,0,0-.1-.9v.2a1.9,1.9,0,0,0-.1-.8,18.7,18.7,0,0,0-.9-4.1,15.9,15.9,0,0,0-.7-2l-1-1.7c-.2-.5-.5-.9-.7-1.3l-1.5-2.3-1.5-2.1a11.3,11.3,0,0,1-1-1.3l-1.1-1.1-1.6-1.8a57.2,57.2,0,0,1-4-4.6h-.1a13.7,13.7,0,0,1-1.3-2,10.6,10.6,0,0,1-1.1-2.1,7.6,7.6,0,0,1-.4-1.1l-.3-1.4c0-.4-.1-.7-.1-1.1s.1-1.2.1-1.8.3-2,.6-3h0c.3-1.1.7-2.3,1.1-3.4s1.1-2.5,1.7-3.7h0a22.6,22.6,0,0,1,1.6-2.6l1-1.1.6-.5.8-.6.6-.3.8-.3h4.7l5.3.7,1.8.3,1.2.2,2.6.5,3.9,1.3,1.4.6,1.1.8.8.6.5.6c.7,1,1.3,2,1.9,3l.9,1.3a2.9,2.9,0,0,0,2.3,1.2h1.7l1.6-.5,1.5-.8,1.5-.8a8.6,8.6,0,0,0,1.4-1.3,6.8,6.8,0,0,0,1.2-1.2l1.5-2.2a19.6,19.6,0,0,0,1.3-2.5,8.4,8.4,0,0,0,.6-1.4l.6-1.5c.6-1.6,1.1-3.3,1.6-4.9a51.4,51.4,0,0,1,2-5.5c.4-1.2,1-2.4,1.5-3.6s1.1-2.5,1.6-3.8,1.1-2.5,1.5-3.8a15.1,15.1,0,0,0,.7-3.7,2.8,2.8,0,0,0,.1-.9,9.4,9.4,0,0,0-.4-1.6l-.6-1.5a10.1,10.1,0,0,0-1.4-2l-1-.9-.6-.3-1-.7a15.7,15.7,0,0,0-4.7-1.3h-.2a53.4,53.4,0,0,0-8.8-2,42.5,42.5,0,0,0-8-.4l-5.2.5-2.1.3-.8.2-3.5.7-2.4.6-2.4.7-3.5,1.1a21.8,21.8,0,0,0-2.3.9l-3.8,1.4a49.7,49.7,0,0,0-5.1,2.7l-1.8,1.1-.8.6-2.8,1.9-4.1,2.9-2.4,1.8-2.6,2.1-2.2,1.9-2,1.7-4.1,3.5-2.6,2.3-2.1,2-2,1.9-1.8,1.9-1.3,1.5-1.5,1.9a39.1,39.1,0,0,0-3.4,4.9l-1.5,2.6-.9,1.7-.4.9c-.4.9-.9,1.7-1.2,2.5s-.8,1.8-1.1,2.7-1.1,3-1.5,4.5-.5,2.8-.7,4.2-.2,2.5-.2,3.8a25.6,25.6,0,0,0,.3,3.9,23.7,23.7,0,0,0,.9,3.6,24.1,24.1,0,0,0,2.5,5.1l1.4,2.4,1.7,2.5c1.1,1.6,2.2,3.3,3.4,4.8l3.8,4.5a11,11,0,0,1,1.4,2.1c.6.9,1,1.9,1.5,2.8l1.3,2.7.6,1c.3.5.5,1,.8,1.4a5.7,5.7,0,0,1,.8,1.3l1.6,2.4a3.4,3.4,0,0,1,.6,1.2l.6,1.5c.1.3.1.7.2,1s.1.8.1,1.1-.1.7-.1,1.1l-.3,1.9-.9,2.6a22.4,22.4,0,0,1-1.3,2.7c-.7,1.3-1.5,2.5-2.2,3.7l-1.1,1.7a17.1,17.1,0,0,1-1.1,1.4,14.7,14.7,0,0,1-1,1.3l-1.5,1.7-1.8,1.6a16.4,16.4,0,0,1-2.2,1.4h.1a30.2,30.2,0,0,1-3.6,1.8,35.9,35.9,0,0,1-3.5,1.2l-2.1.4-1.9.2h-1.5l-2.3-.4-2-.6A15.1,15.1,0,0,1,330.9,257.7Zm80.7-94.6c-.2-.1-.3-.4-.4-.5l.8-.4c0,.2.1.5.1.7Zm10.9-19.7a5.6,5.6,0,0,1-.5.8,1,1,0,0,1-.6.5,4.8,4.8,0,0,1-1.6.8l-1.7.6-1.3.3h-4.7l-1.2.2h0l-3.7.7-1.8.4h-2l-.7-.2-.2-.3c-.1-.1-.1-.3-.2-.4s-.1-.6,0-.8l.3-.6.9-.7,1.4-.8,1.2-.6.9-.4,1.5-.6.8-.4h.5l1.1-.3,1.5-.2,1.6-.2h.9l3.8-.2h1.6l.9.2a2,2,0,0,1,.9.6,1,1,0,0,1,.4.7.4.4,0,0,1,.1.3A.8.8,0,0,0,422.5,143.4Zm-56.7,16.1.5-1.2a16.2,16.2,0,0,1,1-1.8l.4-.7.6-.9,1.2-1.7a11.3,11.3,0,0,1,1-1.3l1.1-1.5,1.3-1.5,1.7-1.9h0l1-1.1h0l.2-.3h.1l.6-.6.6-.7,1.4-1.2,3.1-2.6,1.6-1.3,1.3-.8a6,6,0,0,1,1.6-.8,34.5,34.5,0,0,1,3.4-1.4l3.8-1.3,3.6-1.3,3.7-1,3.6-1,2.6-.8,1.7-.4,1.3-.3,1.4-.2h3l.9.2h3.3l1.1.2h2.8l1.8.5.8.5c.2.1.2.3.3.5a.6.6,0,0,1-.4.7l-.6.4-1.6.8-3.4,1.6-3.5,1.4-1.4.4-1.3.2-2.9.3-2.7.2h-2.8l-.9.2-1,.2-1.8.5-1.4.5-1.5.6-1.4.7-1.7.9-1.5.9-1.8,1.1h0l-1.4,1-1.1.8-2.6,2-2.3,1.8-2.5,2a66.1,66.1,0,0,1-5.8,4.7l-3.1,2.2-1.7,1.2-1.5,1.2-.9.6-.5.2-.4.2h-.5l-.5-.2-.4-.2-.3-.3a1.6,1.6,0,0,1-.3-.9A3.3,3.3,0,0,1,365.8,159.5Zm12.8,75.8c.3.5.8,1.1.8,1.6s-.5,1.1-1.4,2.5a5,5,0,0,0-.5-1.3h0c-.4.9-.8,1.7-1.1,2.6a7.5,7.5,0,0,0-.5,1.6l-.6,1.9a16.6,16.6,0,0,1-1.3,3.5,6.5,6.5,0,0,1-.9,1.6l-.6.9-.6.8a9.3,9.3,0,0,1-1.4,1.4l-.9.6a1.4,1.4,0,0,1-.9.3h-.1a1,1,0,0,1-.7-.2.9.9,0,0,1-.4-.6v-.7c0-.2.1-.4.1-.6s.5-1.1.7-1.7.5-1.1.7-1.7.3-.8.4-1.2l.3-1.3a14.2,14.2,0,0,0,.4-2l.6-2.3c.4-1.3.7-2.6,1-3.9s.1-1.9.2-2.8a22.6,22.6,0,0,1-.2-4.5,25.1,25.1,0,0,1,.4-2.7c.2-.7.5-1.6,1.3-1.8a1.2,1.2,0,0,1,1,.2,1.6,1.6,0,0,1,.4.7h0a11.5,11.5,0,0,1,1,2.3l.9,2.9.4,1.2.6,1.3a7.8,7.8,0,0,1,.5,1.4c0,.2-.1.4-.1.6Zm-11.7-44.5c.7-1,1.5-1.9,2.3-2.9.3.5.9,1.4.8,1.6a30,30,0,0,1-2.1,3.7A11.9,11.9,0,0,1,366.9,190.8Zm-32.1,95.7,1.8-.4,3-1.1,3.2-.9,2.4-.8,2.2-1a30.4,30.4,0,0,0,3.6-1.9,21.1,21.1,0,0,0,3.1-2.1l3-2.1,3-2.3,2.9-2.3,4.7-3.7c.7-.7,1.4-1.3,2-2l.9-.9a7.6,7.6,0,0,0,.8-1.1l1.6-2.1c1.3-1.8,2.4-3.5,3.6-5.3s1.3-1.8,1.9-2.8l1.6-2.7.9-1.9.7-1.8h0l.6-2.2c.5-2.1.7-4.3,1.1-6.5a16.2,16.2,0,0,1,.4-1.9c.1-.5.3-1.1.4-1.6s.7-2.2.9-3.3a22.5,22.5,0,0,0,.5-2.2l.3-2.6h0v-.7h0c.1-.5.1-1,.2-1.5h0c.1-.7.1-1.4.2-2.2a19.4,19.4,0,0,0,.2-2.4c-.1-.1-.1-.2-.1-.4l-.9-2.3c-.6-1.1-1.1-2.2-1.7-3.4a32.4,32.4,0,0,0-1.7-3.2l-.9-1.7-.8-1.8c-.4-1.1-.9-2.2-1.3-3.4s-.3-1.2-.5-1.8a6.4,6.4,0,0,0-.2-.7,2.7,2.7,0,0,1-.3-1.5.9.9,0,0,1,.3-.7l.7-.4h1.1a5,5,0,0,1,2,.8,5.8,5.8,0,0,1,1.9,1.6,3.5,3.5,0,0,1,.5.8l.7.7a9.5,9.5,0,0,1,1.7,2.7,7.4,7.4,0,0,1,.4,1.4h0a4.1,4.1,0,0,1,.3.8h0l.3.9.3,1.1c0,.2.1.3.1.5v.3c.1.2.2.3.2.5a16,16,0,0,1,1,2.3,2,2,0,0,1,.4.8l.5.9.9,1.8a21.7,21.7,0,0,1,.7,2.4c0,.4.1.8.1,1.2a2.8,2.8,0,0,1,.1.9,13.4,13.4,0,0,1,.1,2v1.9a10.9,10.9,0,0,1-.1,1.8,14.9,14.9,0,0,1,.2,2.1c.1,1.3.1,2.6.1,3.9s-.3,2.5-.5,3.7-.6,2.4-.8,3.7-1.1,5.1-1.7,7.6l-.9,3.6c-.3,1.3-.7,2.5-1.1,3.7a14.6,14.6,0,0,1-.7,1.9,12.3,12.3,0,0,1-1.2,2.6,13.7,13.7,0,0,1-1.7,2.3l-.6.7-.6.8-1.4,1.3-.7.6-.7.7a39.2,39.2,0,0,1-3.2,2.5l-3,2.4-1.6,1.4-.9.8-.8.9-1.4,1.7-.9,1.4-1.1,1.9a33.7,33.7,0,0,1-1.9,3.2,13.8,13.8,0,0,1-2.7,2.7,18.5,18.5,0,0,1-3.3,2.1l-3.4,2.1-1.5.9-.9.5-.4.2-.5.2-2,.6-2,.5-3.8.6a41,41,0,0,1-4.9.6h-3.2c-1.1-.1-2.1-.4-3.2-.6l-.7-.3h-3a8.5,8.5,0,0,1-2.3-.4,3.7,3.7,0,0,1-1.4-.7l-1.3-1.1a2.7,2.7,0,0,1-.6-1.2,2,2,0,0,1,.4-1.5c.1-.2.3-.3.5-.5l.5-.2h.5l1.8-.2h1.7l3.5.2Z"/><path class="b3a65a95-1bca-416b-b15a-dfe217a8b2a0" d="M283.6,158.1Z"/><path class="b3a65a95-1bca-416b-b15a-dfe217a8b2a0" d="M234.6,198.2Z"/><path class="b3a65a95-1bca-416b-b15a-dfe217a8b2a0" d="M442.6,135.6h0Z"/><path class="b3a65a95-1bca-416b-b15a-dfe217a8b2a0" d="M378.5,363.9h0Z"/><path class="b3a65a95-1bca-416b-b15a-dfe217a8b2a0" d="M317.3,394.2h0Z"/><path class="b3a65a95-1bca-416b-b15a-dfe217a8b2a0" d="M353.7,388.8h0Z"/><path class="b3a65a95-1bca-416b-b15a-dfe217a8b2a0" d="M444,242c-1.3,3.7-2.7,7.3-4,11-.6,1.7-1.1,3.4-1.8,5.1s-1.3,3.5-2,5.2v-.2l-.9,2.5a28,28,0,0,0-1.3,4.1,16.1,16.1,0,0,0-.7,3.7,12.4,12.4,0,0,0,.4,3.3,8.5,8.5,0,0,0,3.7,5,8.2,8.2,0,0,0,4.7,1.7h1.2a32,32,0,0,0,5.2-1.8l3.2-1.4,4.7-2h-.2q2.7-1.2,5.4-2.1l2.3-.8,3-.9h-.1l5.6-1.5,4.9-1.3,2.4-.7,2.6-.9,5.1-2.2c2-.8,3.9-1.6,5.9-2.2l6.6-1.9,10.6-3.3a46.9,46.9,0,0,1,6.5-1.4c1.1-.2,2.2-.3,3.3-.6l1.8-.4,1.7-.5a28.7,28.7,0,0,0,5.5-2.2,20.6,20.6,0,0,0,5.7-4.5,27,27,0,0,0,2.7-3.9,12.1,12.1,0,0,0,.9-2l.6-1.5c.3-1,.5-1.9.7-2.9a20,20,0,0,0,.4-2.4,7.8,7.8,0,0,0,.2-1.4c0-.5.1-.9.1-1.3v-.3h0v-.5h0a3.4,3.4,0,0,1-.1-1h0v-.4h0c0-1,0-2.1-.1-3.1v-1.7c0-.6.1-1.1.1-1.6s.1-2.4.2-3.5.2-4.8.2-7.1h0a48.9,48.9,0,0,1,.3-5.4c.3-2.3.7-4.6.8-6.8s.3-4.3.5-6.4.3-2.5.4-3.8a11.5,11.5,0,0,0,.1-1.9,8.6,8.6,0,0,0-.1-1.6,6.1,6.1,0,0,0-.7-1.7,2.4,2.4,0,0,0-1-1l-.9-.2-1,.2a4.8,4.8,0,0,0-1.6,1.3l-.9,1.1-2.3,3a26.2,26.2,0,0,0-2.4,3.4,11.4,11.4,0,0,0-1,1.9l-.8,1.7a8.3,8.3,0,0,1-.8,1.2,15.4,15.4,0,0,1-1.7,1.9l-2.1,2a38.7,38.7,0,0,1-3.7,2.4c-2.3,1.3-4.6,2.4-6.9,3.5l-3.3,1.8-3.6,2.2-1.5.7-3.4,1.2-3.7,1.2-2.5.6-2.7.4-2,.2h-4.3l-1.5-.3h-.8l-.2-.2h-.2l-.3-.6v-.4a.6.6,0,0,0-.1-.4v-.3a5.7,5.7,0,0,1,.1-1.3,18.5,18.5,0,0,1,.4-2.3v-.2h0v-.2h0a14.6,14.6,0,0,1,.5-2,.1.1,0,0,1-.1.1l1.2-4.5.9-5.1c.3-1.6.5-3.2.8-4.8s.3-1.6.5-2.4l.6-2.6c.3-.9.5-1.9.8-2.9s.5-1.6.8-2.4,1-3.1,1.6-4.6l1.8-5.2c.7-1.7,1.3-3.5,1.9-5.3,1.3-3.5,2.6-7,3.8-10.5l1.6-4.9c.6-1.7,1.3-3.4,1.9-5.2s.7-1.8,1-2.7l.9-2.7c.5-1.8.9-3.5,1.3-5.3l1.1-4.1.5-2a13.4,13.4,0,0,0,.7-1.8,20,20,0,0,1,1-2.1,21.2,21.2,0,0,1,1.1-2.1c.8-1.5,1.6-3,2.3-4.5a12.1,12.1,0,0,0,1.2-5.3,6.3,6.3,0,0,0-.3-2.7,2.5,2.5,0,0,0-1.4-1.6,5.2,5.2,0,0,0-2.4-.5,15.5,15.5,0,0,0-3.1.7l-3,.8-3.9,1-4.5.8c-2.7.5-5.4,1.2-8,1.9h.1l-1,.2-.7.2a.1.1,0,0,0-.1.1h0l-2,.5-2.4.7-2.6.9-1.4.6-1.3.6a20.3,20.3,0,0,0-3.4,2.3,13.5,13.5,0,0,0-3.2,6c-.4,1.6-.7,3.2-1,4.8l-.9,5.1c-.2,1.8-.5,3.6-.8,5.4s-.7,3.6-1,5.5-.6,3.6-1,5.4-.7,3.4-1,5.1l-1.2,5.6c-.3,1.7-.7,3.3-1.1,5a25,25,0,0,1-.5,2.9.8.8,0,0,0-.1.4c-.4,1.2-.7,2.4-1.1,3.6s-.3,1.3-.4,1.9-.3,1.2-.4,1.8v.2c-.1.3-.1.6-.2.9h0v.2l-.3,1.1v.2h0a.3.3,0,0,0-.1.2v.2a26.8,26.8,0,0,0-.7,2.7c-.1,1-.3,1.9-.4,2.8s-.3,1.8-.5,2.7l-.6,2.6h0c-.1.3-.1.7-.2,1h0c-.3,1.2-.6,2.4-.8,3.6l-2.4,6.7c-.8,2.3-1.5,4.7-2.1,7.1V215c-.2,1-.5,2.1-.8,3.1h0a28.1,28.1,0,0,1-.8,3.1h0l-3,10.9C446.2,235.5,445.2,238.8,444,242Zm55.8-115.2,2.4,3.6c-.9.8-1.8,2.2-2.7,2.2s-1.7-1.4-2.6-2.2C497.7,129.3,498.6,128.3,499.8,126.8Zm30.8,103.6c0,.6-.1,1.2-.1,1.8s-.1,1.1-.2,1.7a1.3,1.3,0,0,0-.1.6,2.2,2.2,0,0,0-.1.8h0v.7a1.4,1.4,0,0,0,.2.6,4.7,4.7,0,0,1,.2,1.7l-.3,1.8c-.2.5-.3,1-.5,1.5a11.9,11.9,0,0,1-.8,1.6l-.9,1.4a8.7,8.7,0,0,1-2.7,2.3l-1.6.6h-1.5l-1-.4a1.7,1.7,0,0,1-.6-1.1,1.9,1.9,0,0,1,.1-.8,8.4,8.4,0,0,1,.6-1.4v0h-.1c.1,0,.1-.1.1-.2a6.4,6.4,0,0,1,.6-1.8c.7-1.4,1.5-2.7,2.1-4.1h0l1.6-3.3a20.6,20.6,0,0,1,1.7-3.3,8.6,8.6,0,0,1,1.5-2.2l.4-.3a.1.1,0,0,1,.1-.1.8.8,0,0,1,1.1,0,1.1,1.1,0,0,1,.2.8Zm-9.3,6.2.4-.2c.2.1.2.3.3.5l-.6.3ZM487,229h.7l3.6-.8,1.9-.5,1.8-.5h0l1.3-.4.4-.3h.3a10.5,10.5,0,0,1,2.9-1.2h1.2l.9.2.5.4a2,2,0,0,1,.1.7,3.6,3.6,0,0,1-.4.9,3.5,3.5,0,0,1-.5.8h0a13.8,13.8,0,0,1-2.9,3,7.6,7.6,0,0,1-1.8.9l-1.1.4-1.8.4a60.9,60.9,0,0,0-7.1,1.7l-3.5,1.1-1.9.5-1.8.4-3.8.6-1.9.4h-1l-1.1.2h-1.2a1.5,1.5,0,0,1-1.2-.8.6.6,0,0,1-.1-.6c0-.2.2-.4.3-.6a8.3,8.3,0,0,1,1.5-1.1l3-1.8,3.3-1.9,1.3-.7,1.1-.3,1.8-.4C483.5,229.3,485.3,229.3,487,229Zm-10.2-37.6.7-.6c.1.3.2.6.1.7s-.3.3-.4.4Zm14.1-43.3h0a16.6,16.6,0,0,1-.3,2.2h0a2.9,2.9,0,0,1-.2.9l-.3,1a12.1,12.1,0,0,1-.5,1.8l-1.2,3.6c-.4,1.2-.7,2.4-1,3.6l-.9,3.7c-.6,2.3-1.2,4.5-1.9,6.7l-.8,2.9c-.4,1.1-.8,2.2-1.1,3.3h0l-.8,2-.6,1.5-.9,2.1a15.1,15.1,0,0,1-1.1,2.2,2.7,2.7,0,0,1-1.4,1.4h-.3a1.1,1.1,0,0,1-1-.6,2,2,0,0,1-.2-1.3,2.8,2.8,0,0,0,.1-.9c0-.3.1-.6.1-.9s.1-1.2.2-1.8.3-1.7.5-2.5.3-1.2.5-1.7a8.8,8.8,0,0,1,.5-1.5,8.8,8.8,0,0,0,.5-1.5l.9-2.2.6-1.6c.1-.6.3-1.1.4-1.6a10.3,10.3,0,0,0,.4-1.4c.2-.6.3-1.3.5-1.9s.7-2.8,1-4.2a1.3,1.3,0,0,1-.1-.6l.9-2.9v-.2a2.9,2.9,0,0,0,.2-.9,20,20,0,0,0,.4-2.4l.3-1.1c.1-.4.1-.8.2-1.2l.3-1c.2-1,.4-2,.7-3l.3-1a4.2,4.2,0,0,1,.4-1,9.4,9.4,0,0,1,.6-1.5,7.6,7.6,0,0,1,1.2-1.9l.6-.4c.2,0,.5-.1.7,0l.6.3.3.7c.2.2.2.5.3.8a2.9,2.9,0,0,1,.2.9v.3h0a5.9,5.9,0,0,1,.2,1.4v1.4Zm-26.4,49.1a12.8,12.8,0,0,1,.1-1.9c0-.6.1-1.3.1-1.9l.3-2.2c.1-.3.1-.6.2-.8s.1-.8.2-1.1.3-1.2.4-1.8.5-2,.7-3.1l.6-2.6h0c.5-2.5,1.1-5,1.6-7.5v.2l.3-1.8a1.9,1.9,0,0,1,.1-.8,2.8,2.8,0,0,1,.1-.9v-3.6a24.4,24.4,0,0,1,.1-2.7,24.7,24.7,0,0,1,1-5.3c.4-1.5.9-2.9,1.4-4.4l.6-2,.6-2.2c0-.1.1-.2.1-.3h0a.4.4,0,0,0,.1-.3h0v-.3h0v-.2h0a.7.7,0,0,0,.1-.5v.2c0-.2.1-.5.1-.7h0c0-.1.1-.2.1-.3a.1.1,0,0,1-.1.1l.9-4.3h0c.1-.2.1-.4.2-.6h0c0-.3.1-.5.1-.8h0a.1.1,0,0,0,.1-.1h0c0-.1.1-.2.1-.4h0l.6-2.5a46.1,46.1,0,0,1,1.5-5.3,9.8,9.8,0,0,1,2-3,14,14,0,0,1,3-2.3,16.5,16.5,0,0,1,3.2-1.8h.3l1.2-.7a21,21,0,0,1,4.2-1.5,5.3,5.3,0,0,1,2.2-.2,3.5,3.5,0,0,1,1.7.9,1.9,1.9,0,0,1,.6,1.7,2.8,2.8,0,0,1-.8,1.5,4.4,4.4,0,0,1-1.8,1.2l-1.7.8-3.2,1.3-.9.5-.6.5-.8.8-.5.6a2.5,2.5,0,0,1-.4.7l-.3.8a10.9,10.9,0,0,0-.5,1.7c-.5,2.5-.9,4.9-1.3,7.4s-1.3,5.3-1.9,7.9-.6,2.3-1,3.5l-1.2,4c-.4,1.2-.7,2.4-1.1,3.6l-.9,3.7c-.5,1.9-1.1,3.7-1.7,5.5l-.9,3.2a24.6,24.6,0,0,0-.7,2.9h0c-.6,2.6-1,5.2-1.5,7.8l-.3,1.7a14.2,14.2,0,0,1-.4,2,18.9,18.9,0,0,0-.5,2.3,20.9,20.9,0,0,1-1.1,3,31.8,31.8,0,0,1-1.6,3.2,4.7,4.7,0,0,1-1.4,1.4h-.7l-.8-.5a2.5,2.5,0,0,1-.4-1.7C464.5,197.9,464.4,197.6,464.5,197.2ZM453,265.3l1.6-2.1c.6-.7,1.1-1.4,1.7-2a18,18,0,0,1,2-1.9h0l.2-.2h0l1.7-1.4,1.5-1.2a20.6,20.6,0,0,1,3.7-2.3h0l1-.5,1-.4,1.8-.6,3.6-1,3.7-1,3.6-.9,1.5-.4,1.7-.6,1.6-.6,3.5-1.3,3.7-1.3,3.5-1.3,2.8-1.2,2.6-1,2.3-1.2.7-.6a1.8,1.8,0,0,0,.7-.5h0l.7-.6a.1.1,0,0,1-.1.1l2.4-2.1,2.6-2c1.7-1.2,3.5-2.5,5.1-3.8l1.3-1.3,1.2-1.2c1.6-1.9,3.1-3.9,4.6-5.8l2.4-3.3.6-.8c.4-.7.9-1.3,1.3-1.9l.7-.9.9-.7a1.5,1.5,0,0,1,1.7-.4,1.5,1.5,0,0,1,.6.5,1.8,1.8,0,0,1,.2,1,8,8,0,0,1-.3,1.5h0a21.4,21.4,0,0,1-1,2.2,25.6,25.6,0,0,1-1.1,2.4l-1.4,2.5c-.4.7-.9,1.4-1.4,2.1h.1c-.6.7-1.1,1.5-1.7,2.3l-.2.3h.1a8.6,8.6,0,0,1-.7,1c-.6,1-1.3,2-1.9,3.1l-1.9,3.5-1.8,3.5-.9,1.7a16.6,16.6,0,0,1-3.2,3.8l-1.7,1.4-1.6,1.2a37.2,37.2,0,0,1-3.4,1.9l-1.7.9-2.9,1.2a29.3,29.3,0,0,1-5.1,1.3l-1,.2h.1a12,12,0,0,1-2,.3l-2.1.3-3.9.6h0l-1.8.4-2.1.4-2,.5-1.7.4-3.5.9-4.1,1.1-1.7.6-1.4.4-1.8,1-3.1,1.9-1.6.8-1.7.8-3.5,1.3-1.9.7-1.8.5h-1.2a1.2,1.2,0,0,1-.8-.6C452.3,266.3,452.7,265.7,453,265.3Z"/><path class="b3a65a95-1bca-416b-b15a-dfe217a8b2a0" d="M542.3,188.5Z"/><path class="b3a65a95-1bca-416b-b15a-dfe217a8b2a0" d="M89.7,193.2a14.8,14.8,0,0,0-3.3,3.3,6.9,6.9,0,0,0-1.4,5,7.4,7.4,0,0,0,.8,3,14,14,0,0,0,.9,1.7c.9,1.3,1.9,2.4,2.8,3.7s1.8,2.4,2.6,3.6l1.5,2.4,1.2,2.4,1.6,3.9c.5,1.5,1,3,1.6,4.4l1.6,4.2,1.7,4.2c.6,1.3,1.1,2.7,1.6,4.1l.6,2.4a22.7,22.7,0,0,0,.6,2.5c.5,1.8,1,3.6,1.6,5.3h0c.1.4.3.8.4,1.3a26.8,26.8,0,0,1,.7,2.7c.2,1.7.4,3.4.7,5,.4,3.4.9,6.8,1.2,10.1s.3,3.6.5,5.3.6,3.5,1,5.2.6,3.4.8,5.1.4,3.3.5,5,.3,6,.4,9a62.4,62.4,0,0,0,1.5,8.7c.6,1.8,1.2,3.6,1.9,5.4s1.3,3.1,2,4.7.8,1.7,1.3,2.5a5.5,5.5,0,0,0,1.8,2.2,8.9,8.9,0,0,0,2.7,1.5,22.2,22.2,0,0,0,4.4.6h1.4l2.5-.2a14.2,14.2,0,0,0,3.3-1.1,55.3,55.3,0,0,0,7.1-4.8l4.1-2.9,3.3-2.6c1-1,2-2,2.9-3.1a17.9,17.9,0,0,0,2-2.8l.7-1.3,1.2-2.3a67.1,67.1,0,0,0,4-9.6c1.2-3.3,2.2-6.6,3.3-9.9s3.1-8.8,4.6-13.2h0a.1.1,0,0,0,.1-.1h0a57,57,0,0,1,2.9-7.2c1.1-2.6,2.3-5.1,3.5-7.7l4.2-8.1c.7-1.4,1.3-2.9,1.9-4.3s1.5-3.6,2.2-5.4l4.2-9.8c.7-1.6,1.3-3.3,2-4.9a33.8,33.8,0,0,0,1.6-4.8c1-3.3,1.8-6.6,2.9-9.9l1.2-3,1.5-3.1c1-1.9,2-3.8,3.1-5.7s1.8-3.5,2.8-5.1a42.5,42.5,0,0,1,2.7-4.6c.9-1.6,2-3.2,3-4.8s1.7-2.6,2.5-4a22.7,22.7,0,0,0,1.9-3.4,9.2,9.2,0,0,0,1-3.2,5.2,5.2,0,0,0-.6-3,6.3,6.3,0,0,0-2.2-2.4,10.2,10.2,0,0,0-2.9-1.1,23.1,23.1,0,0,0-5.2-.6h-5.5l-5.2-.2a42.1,42.1,0,0,0-5-.1h-5.4l-2.8.3a11.8,11.8,0,0,0-5.4,2,8,8,0,0,0-2.3,2.2,6.8,6.8,0,0,0-.9,2.2c0,.1,0,.2-.1.2a9.2,9.2,0,0,0-.9,2.3,10.1,10.1,0,0,0-.3,2.5,4.8,4.8,0,0,0,0,1.2,4.1,4.1,0,0,0,.1,1.1,16.2,16.2,0,0,0,.1,2.2c0,.7.1,1.4.1,2.1s.1,1.6.2,2.4.2,2.8.2,4.3a9.6,9.6,0,0,1,0,1.7,1.7,1.7,0,0,1-.1.7c-.1.4-.1.7-.2,1-.4,2-.9,3.9-1.4,5.9s-1.1,3.7-1.8,5.6-.6,1.8-1,2.7l-3,8.6-1.5,4.4-.6,2.2a17.2,17.2,0,0,1-.7,2.1,5.6,5.6,0,0,1-.4,1.2l-.7,1.4-.9,1.6c-.8,1.4-1.6,2.7-2.4,4.2s-1.5,2.6-2.1,4l-1,2.1-.9,2.3-1.4,4.2c-1.1,2.7-2.2,5.4-3.4,8l-1.8,4.3-1.8,3.9-1.9,4.3c-.6,1.4-1,2.9-1.7,4.3s-.1.2-.2.3h0l-.2.2h-2.6l-.6-.2-.4-.3-.5-.3-.2-.3-.3-.3a5.9,5.9,0,0,0-.4-.8l-.6-1.5c-.6-1.9-1.1-3.8-1.7-5.7s-1.1-3.7-1.7-5.6h0l-.3-.9h0l-.7-2.5-.6-2.4c-.2-1.3-.3-2.7-.4-4s-.3-2.8-.4-4.2-.5-5.5-1-8.2-.8-3.9-1.1-5.9h0c-.2-.9-.3-1.9-.5-2.9s-.2-2.1-.2-3.1c0-3.1.2-6.1.4-9.1.1-1.2.2-2.4.4-3.6s.5-3,.6-4.5a26.4,26.4,0,0,0-.2-4.9,11.3,11.3,0,0,0-2.2-5.3,12.5,12.5,0,0,0-4.5-3.4,43.6,43.6,0,0,0-5.1-1.7c-1.4-.3-2.8-.9-4.2-1.3a13.8,13.8,0,0,0-2-.3,8.7,8.7,0,0,0-2.8.1l-2.9.8a35.6,35.6,0,0,0-4.1,1.7l-4.1,1.8-1.7.9Zm78.5,55a10.1,10.1,0,0,1,.7-1.5c.1-.3.1-.6.2-.9h0c.3-1.1.4-2.1.6-3.2s.3-2.7.5-4a35.4,35.4,0,0,1,1.8-5.5c.4-.9.7-1.9,1.1-2.8h0c.3-1,.7-2,1-2.9a27.6,27.6,0,0,0,.8-2.7l.9-3a22.9,22.9,0,0,0,.8-2.8h0a14.6,14.6,0,0,1,.5-2H177c.4-1.6.6-3.2.9-4.7l.3-1.1a9.4,9.4,0,0,1,.4-1.6,5.4,5.4,0,0,1,.3-1l.4-1.2h0a.6.6,0,0,0,.1-.4h0V207l.2-.5h0a.4.4,0,0,0,.1-.3h.1l1.1-2.7.5-1.5.5-1.4c.2-.9.5-1.8.7-2.7h-.1a44.2,44.2,0,0,1,1.4-5.2c.3-.9.6-1.8,1-2.7s.7-1.7,1-2.6.3-.8.4-1.2a9.9,9.9,0,0,0,.2-1.7h0a1.5,1.5,0,0,0,.1-.7h0c0-.2-.1-.4-.1-.6a10.9,10.9,0,0,0-.5-1.7,5.2,5.2,0,0,0-.6-1.6l-.3-.6-.3-.4-.6-.6a2.7,2.7,0,0,0-.8-.7l-.5-.3-1.4-.6-1.7-.6-1-.3-.8-.4-.4-.4a.8.8,0,0,1-.2-.5c-.2-.2-.1-.5-.1-.8a2,2,0,0,1,.4-.8,3.6,3.6,0,0,1,1.9-.8l2.4-.3a15.1,15.1,0,0,1,3.7.1l1.8.4,1.5.5h3.6l3.9.7.9.3,1,.5a1.8,1.8,0,0,1,.8.7,3.8,3.8,0,0,1,.5,1.9,5.8,5.8,0,0,1-.3,2.3,10.5,10.5,0,0,1-1.5,3,9.5,9.5,0,0,1-1,1.7c-.6,1.2-1.3,2.3-1.9,3.4s0,.1-.1.1h.1a16.2,16.2,0,0,0-1,1.8h0v.4h0a5.9,5.9,0,0,0-.4.8c0-.1,0-.1.1-.1s-.1.1-.1.2l-.2.3v.2h0l-1.8,3.3-1.8,3.1c-.3.7-.7,1.4-1,2.2a14.7,14.7,0,0,0-1,2.2l-.6,1.9a1.4,1.4,0,0,0-.2.6,6.5,6.5,0,0,1-.4,1.3,10.5,10.5,0,0,1-.5,1.9,13.3,13.3,0,0,1-.5,1.9,12.1,12.1,0,0,1-.5,1.8l-.3.7-.3.9a12.2,12.2,0,0,0-.7,1.7A82995086721603.2,82995086721603.2,0,0,1,182,218a13.4,13.4,0,0,0-.7,1.8c-.3.6-.5,1.3-.8,2s-.3,1.2-.5,1.8a8.3,8.3,0,0,0-.4,1.5l-.6,2.2a27.1,27.1,0,0,1-.9,4.1h0v0a5.7,5.7,0,0,1-.4,1.4,5.6,5.6,0,0,1-.4,1.2,13.4,13.4,0,0,1-.7,1.8,6.1,6.1,0,0,1-.5,1.2c-.8,1.8-1.7,3.4-2.5,5.1a2.5,2.5,0,0,0-.4.7h0l-.2.3h0l-.3.5h.1l-1.6,2.8-.8,1.3-.6,1.2-.3.5a.8.8,0,0,1-.7.3.9.9,0,0,1-.7-.3,1.1,1.1,0,0,1-.1-.6A1.4,1.4,0,0,1,168.2,248.2Zm-17.6,4.4.4.3a1.9,1.9,0,0,1-.2.7c-.2-.1-.4-.2-.4-.4S150.5,252.8,150.6,252.6Zm-23.9,1.3c.1.1.1.3.2.5l-.3-.5Zm-12.2,17.7c0-.3.1-.6.1-.9s.3-2.3,1.3-2.8a1.3,1.3,0,0,1,1.3.3,4.6,4.6,0,0,0,.7.7l1.1,1.5.9,1.2,1,1.5h0a16.6,16.6,0,0,1,1.3,2.7c.4.9.7,1.8,1.1,2.6s.7,1.9,1.1,2.8.7,2,1,3h0l.6,1.9c-.1-.1-.1-.1-.1-.2a11.8,11.8,0,0,0,.7,2h0l.3.5a22.6,22.6,0,0,0,1.1,2.2,7.7,7.7,0,0,1,.7,1.6,9.5,9.5,0,0,1,.6,1.8,20,20,0,0,1,.4,2.4l.3,2.4.3,1.4c.1.2.1.4.2.6l.3.5a.8.8,0,0,1,.2.4l.8.8.4.3H134c.8-.7,1.5-1.5,2.3-2.3s3.1-3.8,4.6-5.8l2.4-3.3,2.1-2.9,2.6-3.2a12.9,12.9,0,0,1,1.7-1.6l.9-.7.9-.3h.7c.3.1.4.3.6.5a2.9,2.9,0,0,1,0,1.3,2.9,2.9,0,0,1-.2.9c-.2.6-.3,1.2-.5,1.8s-.9,2.4-1.4,3.6a13,13,0,0,1-.8,1.7h0l-.9,1.7-1,1.5-2.1,3.2c-1.4,2.1-2.7,4.2-4.2,6.2a36.2,36.2,0,0,1-2.2,3.2l-1.2,1.6-1.3,1.4a17.2,17.2,0,0,1-3.5,2.5,13.6,13.6,0,0,1-4.9,1.7h-.7l-1.6-.2a3.5,3.5,0,0,1-2-1.4,14.4,14.4,0,0,1-2.4-4.6l-.3-1.1-.3-.9-.3-1.9-.3-1.9-.9-7.6c-.2-1.5-.4-3-.7-4.6V291l-.3-.6-1.2-3.4c-.4-1.1-.8-2.3-1.1-3.4s-.6-2.4-.9-3.6-.6-2.4-.8-3.6a25.6,25.6,0,0,1-.3-3.9Z"/><path class="b3a65a95-1bca-416b-b15a-dfe217a8b2a0" d="M474.7,142.2Z"/><path class="b3a65a95-1bca-416b-b15a-dfe217a8b2a0" d="M586.7,264.8h0Z"/><path class="b3a65a95-1bca-416b-b15a-dfe217a8b2a0" d="M151.1,341.5h0Z"/><path class="b3a65a95-1bca-416b-b15a-dfe217a8b2a0" d="M90.3,119.2a1.8,1.8,0,0,0,1,.9l.5.2.7.2h.8a12.7,12.7,0,0,0,2.8-.3,29.9,29.9,0,0,0,5.8-1.8l2.6-1,1.8-.9,4.6-2.2,4.3-2.1,3.7-1.9,2.3-1,2.1-1h.1l12.3-4.8,13.8-5.1,4.2-1.6,4.3-1.5,2.4-.9,1.6-.5,4.4-1.4,18.4-5.4h0l5-1.2,5-1.1q5.1-1,10.2-1.8l3-.4,4.7-.6,4.9-.7c3-.4,6.1-.9,9.1-1.6l9.3-2,9.8-2.4,4-1.1,4.8-1.2,4.2-.9a1.5,1.5,0,0,1-.6-1c-.1-.5.5-1.2.9-2l1.4,1.4c-.3.5-.5,1-.8,1.4l4.4-.9,8.7-1.7,9.4-1.6,4.7-.6,9.1-.8c2.8-.2,5.7-.3,8.5-.6l4.8-.5,2.1-.4,2.1-.5,4.8-1.3,4.2-1.3c2.7-.7,5.4-1.4,8.1-1.9l7.9-1.6,8.3-1.8,4-.9,4-.6,6-.8,2.5-.4,1.5-.2,1.6-.4,5.5-1.4,5.2-1.4a12.8,12.8,0,0,0,3.8-1.6,2.2,2.2,0,0,0,.9-1.2,2,2,0,0,0-.2-1.3,2.9,2.9,0,0,0-1.1-1.1l-2-.8a26.1,26.1,0,0,0-2.7-.6l-2.3-.3H362l-4.9.5L348.4,45c-3.1.3-6.1.7-9.2.9l-4.4.4-4.4.8-3.1.7h-1.4l-2.2.2-5,.6-5.2.7-5,.6-4,.7-4.3.6L290,53c-6,1.1-12.1,2-18.1,2.9h-.1c-3.2.5-6.3.9-9.5,1.2l-9.5.9-8.9.7-2.4.2-2.3.3-4.6.6-9.5,1.3-4.4.5-2.3.4-2.7.4-9.2,1.7-4.6.9-4.5.8-8.8,1.5-9.8,1.6-2,.5-1.5.3-.6.2-.7.2h-.3l-3.8,1.1-2,.6-2.8.9-4,1.4c-3,1-5.8,2.1-8.7,3.2l-8.6,3.3-8.4,3-4.2,1.9-2.3,1.1a35.7,35.7,0,0,0-3.8,2.5l-2.3,1.8L121,92.3l-3.3,2.8L114,98.2l-1.7,1.3-2.1,1.7-3.5,2.5-4,2.8-1.7,1.2-1.6,1.2L95.5,112,92,114.9a7.7,7.7,0,0,0-1.6,1.5,5.9,5.9,0,0,0-.4.8,1.7,1.7,0,0,1-.1.7,2.4,2.4,0,0,0,.2.8C90.1,118.9,90.2,119,90.3,119.2Zm50.9-29.6c.2-.7.9-1,1.4-1.4l.8-.5.9-.5,1.2-.5,1.9-.8,3.5-1.3,3.8-1.4,7.6-2.7,7.6-2.8,7.5-2.6c2.6-1,5.2-2,7.8-2.8s5.3-1.6,8-2.4l3.6-1a28.3,28.3,0,0,1,4-.8l3.9-.5,4.6-.2H213a63.1,63.1,0,0,0,7.6-.8l8.9-1.2,1.2-.2,1.2-.3a35.2,35.2,0,0,1,6.5-1h2.5a2.8,2.8,0,0,1,1.7,1.1,1.6,1.6,0,0,1-.4,1.6l-.6.4-.5.2a17.7,17.7,0,0,1-3.8,1.5l-3.7,1.1-4.1,1.1-4,.8-4,.7-3.7.8-7.9,1.7-4.4,1-1.6.4-2.3.4-2.8.4-2.3.3-4.8.7-4.1.8-3.8,1-7.9,2.4-.7.3h0L171,83.9h.2l-2.6.8h0q-7.9,2.5-15.9,4.8l-3.5,1.1-2.1.6-1.1.3-2.7.5h-.1a2.5,2.5,0,0,1-1.7-.6A1.7,1.7,0,0,1,141.2,89.6ZM126.9,100c.3.1.5.7.7,1.1s-.7.7-.9.6-.4-.7-.6-1.1S126.8,99.9,126.9,100Z"/></g></g></svg>